<svg width="82" height="82" viewBox="0 0 82 82" fill="none" xmlns="http://www.w3.org/2000/svg">
<path d="M8.54167 0C3.83008 0 0 3.8335 0 8.54167C0 12.3526 2.52409 15.5539 5.97917 16.6496V28.1875C5.97917 31.4846 8.66125 34.1667 11.9583 34.1667H17.0833V47.8333H11.9583C8.66125 47.8333 5.97917 50.5154 5.97917 53.8125V65.3504C2.52409 66.4461 0 69.6474 0 73.4583C0 78.1665 3.83008 82 8.54167 82C13.2533 82 17.0833 78.1665 17.0833 73.4583C17.0833 69.6474 14.5592 66.4461 11.1042 65.3504V53.8125C11.1042 53.341 11.4868 52.9583 11.9583 52.9583H17.0833V55.5208C17.0833 60.7039 21.2961 64.9167 26.4792 64.9167H55.5208C60.7039 64.9167 64.9167 60.7039 64.9167 55.5208V52.9583H70.0417C70.5132 52.9583 70.8958 53.341 70.8958 53.8125V65.3504C67.4408 66.4461 64.9167 69.6474 64.9167 73.4583C64.9167 78.1665 68.7467 82 73.4583 82C78.1699 82 82 78.1665 82 73.4583C82 69.6474 79.4759 66.4461 76.0208 65.3504V53.8125C76.0208 50.5154 73.3388 47.8333 70.0417 47.8333H64.9167V34.1667H70.0417C73.3388 34.1667 76.0208 31.4846 76.0208 28.1875V16.6496C79.4759 15.5539 82 12.3526 82 8.54167C82 3.8335 78.1699 0 73.4583 0C68.7467 0 64.9167 3.8335 64.9167 8.54167C64.9167 12.3526 67.4408 15.5539 70.8958 16.6496V28.1875C70.8958 28.659 70.5132 29.0417 70.0417 29.0417H64.9167V26.4792C64.9167 21.2961 60.7039 17.0833 55.5208 17.0833H26.4792C21.2961 17.0833 17.0833 21.2961 17.0833 26.4792V29.0417H11.9583C11.4868 29.0417 11.1042 28.659 11.1042 28.1875V16.6496C14.5592 15.5539 17.0833 12.3526 17.0833 8.54167C17.0833 3.8335 13.2533 0 8.54167 0ZM8.54167 5.125C10.4277 5.125 11.9583 6.65908 11.9583 8.54167C11.9583 10.4243 10.4277 11.9583 8.54167 11.9583C6.65567 11.9583 5.125 10.4243 5.125 8.54167C5.125 6.65908 6.65567 5.125 8.54167 5.125ZM73.4583 5.125C75.3443 5.125 76.875 6.65908 76.875 8.54167C76.875 10.4243 75.3443 11.9583 73.4583 11.9583C71.5723 11.9583 70.0417 10.4243 70.0417 8.54167C70.0417 6.65908 71.5723 5.125 73.4583 5.125ZM26.4792 22.2083H55.5208C57.8749 22.2083 59.7917 24.1251 59.7917 26.4792V55.5208C59.7917 57.8749 57.8749 59.7917 55.5208 59.7917H26.4792C24.1251 59.7917 22.2083 57.8749 22.2083 55.5208V26.4792C22.2083 24.1251 24.1251 22.2083 26.4792 22.2083ZM34.1667 30.75C30.3981 30.75 27.3333 33.8148 27.3333 37.5833V48.6875C27.3333 50.102 28.4813 51.25 29.8958 51.25C31.3103 51.25 32.4583 50.102 32.4583 48.6875V46.125H35.875V48.6875C35.875 50.102 37.023 51.25 38.4375 51.25C39.852 51.25 41 50.102 41 48.6875V37.5833C41 33.8148 37.9352 30.75 34.1667 30.75ZM50.3958 30.75C48.9813 30.75 47.8333 31.898 47.8333 33.3125V48.6875C47.8333 50.102 48.9813 51.25 50.3958 51.25C51.8103 51.25 52.9583 50.102 52.9583 48.6875V33.3125C52.9583 31.898 51.8103 30.75 50.3958 30.75ZM34.1667 35.875C35.1063 35.875 35.875 36.6403 35.875 37.5833V41H32.4583V37.5833C32.4583 36.6403 33.2271 35.875 34.1667 35.875ZM8.54167 70.0417C10.4277 70.0417 11.9583 71.5758 11.9583 73.4583C11.9583 75.3409 10.4277 76.875 8.54167 76.875C6.65567 76.875 5.125 75.3409 5.125 73.4583C5.125 71.5758 6.65567 70.0417 8.54167 70.0417ZM73.4583 70.0417C75.3443 70.0417 76.875 71.5758 76.875 73.4583C76.875 75.3409 75.3443 76.875 73.4583 76.875C71.5723 76.875 70.0417 75.3409 70.0417 73.4583C70.0417 71.5758 71.5723 70.0417 73.4583 70.0417Z" fill="#E4E4E7" fill-opacity="0.8"/>
</svg>
