<svg width="35" height="31" viewBox="0 0 35 31" fill="none" xmlns="http://www.w3.org/2000/svg">
<path fill-rule="evenodd" clip-rule="evenodd" d="M34.4095 15.6611C34.4095 15.2998 34.2912 14.9548 34.0944 14.695L23.45 1.16596C23.0296 0.631505 22.3489 0.632858 21.9296 1.16596C21.5091 1.69905 21.5091 2.565 21.9296 3.0981L30.7395 14.2945H1.0753C0.481732 14.2945 0 14.9061 0 15.6611C0 16.4161 0.481732 17.0276 1.0753 17.0276H30.7384L21.9296 28.2241C21.5091 28.7572 21.5102 29.6231 21.9296 30.1562C22.35 30.6893 23.0307 30.6893 23.45 30.1562L34.0944 16.6271C34.2955 16.3714 34.4062 16.0196 34.4095 15.6611Z" fill="#E9680B"/>
</svg>
