<svg width="35" height="31" viewBox="0 0 35 31" fill="none" xmlns="http://www.w3.org/2000/svg">
<path fill-rule="evenodd" clip-rule="evenodd" d="M34.4095 15.9046C34.4095 15.5393 34.2912 15.1904 34.0944 14.9277L23.45 1.24663C23.0296 0.70617 22.3489 0.707538 21.9296 1.24663C21.5091 1.78571 21.5091 2.66139 21.9296 3.20048L30.7395 14.5227H1.0753C0.481732 14.5227 0 15.1411 0 15.9046C0 16.6681 0.481732 17.2865 1.0753 17.2865H30.7384L21.9296 28.6088C21.5091 29.1478 21.5102 30.0235 21.9296 30.5626C22.35 31.1017 23.0307 31.1017 23.45 30.5626L34.0944 16.8815C34.2955 16.6229 34.4062 16.2672 34.4095 15.9046Z" fill="#018F6A"/>
</svg>
