<svg width="60" height="60" viewBox="0 0 60 60" fill="none" xmlns="http://www.w3.org/2000/svg">
<path d="M24.7011 16.5361L23.5911 22.9801C23.5327 23.2826 23.5615 23.5955 23.6741 23.8823C23.7867 24.1691 23.9785 24.418 24.2271 24.6001C24.4716 24.7831 24.7624 24.8942 25.0667 24.9207C25.371 24.9472 25.6766 24.8881 25.9491 24.7501L31.9491 21.7501L37.6371 24.7141C37.9086 24.8604 38.2159 24.9275 38.5237 24.9075C38.8315 24.8876 39.1275 24.7814 39.3779 24.6011C39.6282 24.4209 39.8228 24.1738 39.9394 23.8882C40.0559 23.6026 40.0898 23.29 40.0371 22.9861L38.9271 16.5661L43.5951 12.0001C43.8145 11.7869 43.9699 11.5166 44.0436 11.2197C44.1173 10.9228 44.1064 10.6112 44.0121 10.3202C43.9178 10.0291 43.7439 9.77034 43.51 9.57309C43.2762 9.37583 42.9918 9.24799 42.6891 9.20406L36.1791 8.25606L33.2751 2.40006C33.1375 2.12733 32.9263 1.89852 32.6655 1.73948C32.4047 1.58044 32.1046 1.49751 31.7991 1.50006C31.4946 1.49863 31.1958 1.58209 30.9361 1.74107C30.6765 1.90004 30.4663 2.12825 30.3291 2.40006L27.4191 8.25606L20.9091 9.19206C20.6034 9.23333 20.3155 9.36009 20.0787 9.55776C19.8418 9.75542 19.6656 10.0159 19.5703 10.3094C19.4751 10.6028 19.4645 10.9171 19.54 11.2162C19.6155 11.5153 19.774 11.787 19.9971 12.0001L24.7011 16.5361ZM28.1391 9.97206C28.2803 9.94846 28.4139 9.89151 28.5286 9.80594C28.6434 9.72037 28.7361 9.60865 28.7991 9.48006L31.7991 3.48006L34.7991 9.48006C34.8637 9.61089 34.9592 9.72404 35.0774 9.80975C35.1955 9.89546 35.3327 9.95116 35.4771 9.97206L42.1251 10.9321L37.3251 15.5761C37.2195 15.6775 37.1402 15.8033 37.0942 15.9423C37.0482 16.0814 37.0368 16.2296 37.0611 16.3741L38.1951 22.9441L32.3811 19.9141C32.2539 19.8488 32.113 19.8147 31.9701 19.8147C31.8272 19.8147 31.6863 19.8488 31.5591 19.9141L25.4391 22.9861L26.5791 16.3861C26.5991 16.242 26.5839 16.0953 26.5348 15.9584C26.4857 15.8215 26.4041 15.6985 26.2971 15.6001L21.4971 10.9561L28.1391 9.97206Z" fill="white" fill-opacity="0.8"/>
<path d="M57.0008 28.2003C56.6994 27.8521 56.3323 27.5669 55.9204 27.361C55.5086 27.1551 55.0601 27.0325 54.6008 27.0003C54.1415 26.9687 53.6806 27.03 53.2456 27.1805C52.8106 27.331 52.4103 27.5676 52.0688 27.8763L43.7588 35.3403C43.7371 35.1744 43.7051 35.0101 43.6628 34.8483C43.5231 34.3284 43.2729 33.8448 42.9291 33.4306C42.5853 33.0163 42.156 32.6813 41.6708 32.4483C40.1288 31.8003 37.9868 32.1003 35.9168 32.4003C34.7061 32.6373 33.4695 32.714 32.2388 32.6283C31.6911 32.4908 31.1614 32.2894 30.6608 32.0283C29.0888 31.3263 26.9348 30.3663 22.9268 31.2483C20.8575 31.7827 18.9567 32.8311 17.4008 34.2963V32.1003C17.4008 31.8616 17.306 31.6326 17.1372 31.4639C16.9684 31.2951 16.7395 31.2003 16.5008 31.2003H8.70078C8.46209 31.2003 8.23317 31.2951 8.06439 31.4639C7.8956 31.6326 7.80078 31.8616 7.80078 32.1003V49.5003C7.80078 49.7389 7.8956 49.9679 8.06439 50.1367C8.23317 50.3054 8.46209 50.4003 8.70078 50.4003H16.5008C16.7395 50.4003 16.9684 50.3054 17.1372 50.1367C17.306 49.9679 17.4008 49.7389 17.4008 49.5003V48.2523C18.6008 48.5343 24.0488 49.8003 28.0748 49.8003C32.2748 49.8003 37.4108 48.8403 40.5728 47.4663C46.3988 44.9403 55.9928 34.0383 56.7728 33.1563C57.4486 32.5225 57.8505 31.6501 57.8931 30.7246C57.9356 29.799 57.6155 28.8934 57.0008 28.2003ZM15.6008 48.6003H9.60078V33.0003H15.6008V48.6003ZM55.5248 31.8543L55.4408 31.9383C55.3388 32.0523 45.4268 43.4043 39.8408 45.8223C36.9008 47.1003 32.0528 48.0003 28.0748 48.0003C23.8748 48.0003 17.6768 46.4643 17.6168 46.4523C17.545 46.4435 17.4725 46.4435 17.4008 46.4523V36.8523C18.0548 36.1023 20.3648 33.6663 23.3168 33.0183C26.7488 32.2683 28.4408 33.0183 29.9168 33.6843C30.5536 33.9979 31.2267 34.2317 31.9208 34.3803C33.3378 34.5139 34.7667 34.4412 36.1628 34.1643C37.9088 33.9243 39.8888 33.6483 40.9628 34.0983C41.1937 34.231 41.3956 34.4088 41.5564 34.6211C41.7172 34.8335 41.8336 35.076 41.8988 35.3343C41.9859 35.6884 41.9873 36.0583 41.9028 36.4131C41.8182 36.7679 41.6503 37.0974 41.4128 37.3743C40.0448 39.2103 31.7228 41.9583 28.3088 41.6883C28.0701 41.67 27.8339 41.7472 27.6522 41.9031C27.4705 42.0589 27.3581 42.2806 27.3398 42.5193C27.3215 42.7579 27.3988 42.9941 27.5546 43.1759C27.7104 43.3576 27.9321 43.47 28.1708 43.4883C28.3568 43.4883 28.5608 43.4883 28.7708 43.4883C32.4968 43.4883 39.6128 41.2923 42.2168 39.0963L42.2828 39.0603L53.2268 29.2203C53.5556 28.9273 53.987 28.7763 54.4268 28.8003C54.6569 28.8142 54.8819 28.8745 55.0881 28.9777C55.2943 29.0808 55.4775 29.2245 55.6268 29.4003C55.9349 29.741 56.0969 30.1891 56.0778 30.6481C56.0587 31.1071 55.8601 31.5403 55.5248 31.8543Z" fill="white" fill-opacity="0.8"/>
</svg>
