<svg xmlns="http://www.w3.org/2000/svg" fill="none" width="74" height="74" viewBox="0 0 74 74"><path d="M3.469 2.313c-.639 0-1.156.516-1.156 1.156v34.687c0 .64.517 1.157 1.156 1.157h16.187V37H4.625V4.625H27.75v24.281h2.313V3.47c0-.64-.518-1.156-1.157-1.156H3.47zm63.593 0v2.312h2.313V2.312h-2.313zm2.313 2.312v2.313h2.313V4.624h-2.313zm0 2.313h-2.313V9.25h2.313V6.937zm-2.313 0V4.624H64.75v2.313h2.313zm-58.968 0c-.638 0-1.156.516-1.156 1.156V24.28c0 .64.518 1.157 1.156 1.157H24.28c.639 0 1.157-.517 1.157-1.157V8.094c0-.64-.518-1.156-1.157-1.156H8.094zM9.25 9.25h13.875v13.875h-2.313v-2.313c0-1.515-.742-2.85-1.872-3.694.443-.583.716-1.3.716-2.087a3.473 3.473 0 0 0-3.468-3.469 3.473 3.473 0 0 0-3.47 3.47c0 .786.274 1.503.717 2.086-1.13.844-1.873 2.179-1.873 3.695v2.312H9.25V9.25zm6.938 4.625a1.157 1.157 0 0 1 0 2.313 1.157 1.157 0 0 1 0-2.313zm0 4.625a2.315 2.315 0 0 1 2.312 2.313v2.312h-4.625v-2.313a2.315 2.315 0 0 1 2.313-2.312zm-9.25 9.25v2.313H18.5V27.75H6.937zm13.875 0v2.313h4.625V27.75h-4.625zm10.404 2.315c-.44 0-.88.032-1.313.092l.323 2.29a7.118 7.118 0 0 1 1.983-.002l.323-2.29a9.51 9.51 0 0 0-1.317-.09zm-3.842.833a9.242 9.242 0 0 0-2.213 1.423l1.513 1.748a6.969 6.969 0 0 1 1.662-1.07l-.962-2.1zm7.687 0-.962 2.1c.602.276 1.16.636 1.663 1.07l1.515-1.747a9.256 9.256 0 0 0-2.216-1.423zM9.25 32.375v2.313h8.094v-2.313H9.25zm14.187 1.935a9.206 9.206 0 0 0-1.096 2.396l2.218.65a6.905 6.905 0 0 1 .822-1.792l-1.944-1.254zM39 34.313l-1.944 1.25c.358.558.635 1.162.822 1.796l2.217-.653A9.194 9.194 0 0 0 39 34.313zm-5.217.808-3.816 4.774-1.4-1.4-1.636 1.635 2.313 2.313c.217.218.511.338.817.338.022 0 .043 0 .064-.002a1.16 1.16 0 0 0 .84-.431l4.625-5.782-1.807-1.445zm-9.503 4.19-2.312.004c0 .885.126 1.762.372 2.604l2.22-.65a6.964 6.964 0 0 1-.28-1.959zm13.875.002c0 .665-.093 1.324-.277 1.953l2.217.653a9.231 9.231 0 0 0 .373-2.606h-2.313zm19.657 0c-5.1 0-9.25 4.15-9.25 9.25 0 2.462.972 4.697 2.547 6.357-3.595 1.99-6.194 5.537-6.944 9.622l2.274.418c.684-3.729 3.23-6.904 6.682-8.44a9.18 9.18 0 0 0 2.77 1.09l-2.54 4.234c-.203.338-.22.757-.043 1.11l3.47 6.938a1.157 1.157 0 0 0 2.068 0l3.469-6.937c.176-.354.16-.775-.043-1.114l-2.54-4.232a9.209 9.209 0 0 0 2.781-1.093 11.527 11.527 0 0 1 3.476 2.37 11.488 11.488 0 0 1 3.385 8.176v4.626h2.313v-4.626c0-3.709-1.444-7.193-4.063-9.812a13.945 13.945 0 0 0-3.117-2.324 9.208 9.208 0 0 0 2.555-6.364c0-5.1-4.15-9.25-9.25-9.25zm0 2.312a6.945 6.945 0 0 1 6.937 6.938 6.945 6.945 0 0 1-6.938 6.937 6.945 6.945 0 0 1-6.937-6.938 6.945 6.945 0 0 1 6.938-6.937zM25.38 43.061l-1.944 1.251a9.292 9.292 0 0 0 1.723 1.992l1.515-1.75a6.955 6.955 0 0 1-1.294-1.493zm11.675.002a6.984 6.984 0 0 1-1.293 1.491l1.513 1.75A9.231 9.231 0 0 0 39 44.314l-1.944-1.25zm-8.719 2.564-.962 2.1a9.213 9.213 0 0 0 2.53.743l.325-2.29a6.863 6.863 0 0 1-1.893-.553zm5.763 0c-.6.274-1.236.46-1.892.553l.325 2.29a9.134 9.134 0 0 0 2.53-.743l-.963-2.1zm-20.225 1.81c-.374 0-.748.162-.962.484L8.288 54.86l1.924 1.282 2.507-3.76v5.431c0 7.013 5.706 12.72 12.719 12.72h21.968V68.22H25.438c-5.738 0-10.407-4.668-10.407-10.406V52.38l2.507 3.76 1.924-1.282-4.625-6.938c-.214-.322-.588-.483-.962-.483zm43.938 11.466 2.15 3.586-2.15 4.3-2.15-4.3 2.15-3.586z" fill="#fff"/></svg>