<svg width="86" height="86" viewBox="0 0 86 86" fill="none" xmlns="http://www.w3.org/2000/svg">
<path d="M2.21875 0.8125C1.4425 0.8125 0.8125 1.44109 0.8125 2.21875V44.4062C0.8125 45.1839 1.4425 45.8125 2.21875 45.8125H21.9062V43H3.625V3.625H31.75V33.1562H34.5625V2.21875C34.5625 1.44109 33.9325 0.8125 33.1562 0.8125H2.21875ZM79.5625 0.8125V3.625H82.375V0.8125H79.5625ZM82.375 3.625V6.4375H85.1875V3.625H82.375ZM82.375 6.4375H79.5625V9.25H82.375V6.4375ZM79.5625 6.4375V3.625H76.75V6.4375H79.5625ZM7.84375 6.4375C7.0675 6.4375 6.4375 7.06609 6.4375 7.84375V27.5312C6.4375 28.3089 7.0675 28.9375 7.84375 28.9375H27.5312C28.3075 28.9375 28.9375 28.3089 28.9375 27.5312V7.84375C28.9375 7.06609 28.3075 6.4375 27.5312 6.4375H7.84375ZM9.25 9.25H26.125V26.125H23.3125V23.3125C23.3125 21.4689 22.4095 19.8457 21.0356 18.8191C21.5742 18.1103 21.9062 17.2375 21.9062 16.2812C21.9062 13.9553 20.0134 12.0625 17.6875 12.0625C15.3616 12.0625 13.4688 13.9553 13.4688 16.2812C13.4688 17.2375 13.8008 18.1103 14.3394 18.8191C12.9655 19.8457 12.0625 21.4689 12.0625 23.3125V26.125H9.25V9.25ZM17.6875 14.875C18.4623 14.875 19.0938 15.505 19.0938 16.2812C19.0938 17.0575 18.4623 17.6875 17.6875 17.6875C16.9127 17.6875 16.2812 17.0575 16.2812 16.2812C16.2812 15.505 16.9127 14.875 17.6875 14.875ZM17.6875 20.5C19.2386 20.5 20.5 21.7614 20.5 23.3125V26.125H14.875V23.3125C14.875 21.7614 16.1364 20.5 17.6875 20.5ZM6.4375 31.75V34.5625H20.5V31.75H6.4375ZM23.3125 31.75V34.5625H28.9375V31.75H23.3125ZM35.966 34.5652C35.4313 34.5656 34.8962 34.604 34.3702 34.6779L34.763 37.4629C35.5603 37.3504 36.3715 37.3476 37.1745 37.4601L37.5673 34.6751C37.0371 34.6013 36.5007 34.5649 35.966 34.5652ZM31.2941 35.5787C30.3195 36.0231 29.4152 36.606 28.6024 37.3091L30.4426 39.4349C31.0529 38.9062 31.7329 38.4677 32.4641 38.1331L31.2941 35.5787ZM40.6434 35.5787L39.4734 38.1331C40.2046 38.4677 40.8846 38.9062 41.4949 39.4349L43.3378 37.3091C42.525 36.606 41.618 36.0231 40.6434 35.5787ZM9.25 37.375V40.1875H19.0938V37.375H9.25ZM26.504 39.7288C25.9218 40.6344 25.4729 41.6136 25.1719 42.6429L27.8691 43.434C28.0955 42.6633 28.4329 41.9296 28.8688 41.2532L26.504 39.7288ZM45.4335 39.7316L43.0687 41.2532C43.5046 41.931 43.842 42.6661 44.0684 43.4367L46.7656 42.6429C46.4646 41.615 46.0157 40.6358 45.4335 39.7316ZM39.0889 40.7148L34.4471 46.5211L32.7443 44.8182L30.7557 46.8068L33.5682 49.6193C33.8326 49.885 34.1898 50.0312 34.5625 50.0312C34.5892 50.0312 34.6141 50.0299 34.6394 50.0285C35.0388 50.006 35.4108 49.8161 35.6611 49.5039L41.2861 42.4727L39.0889 40.7148ZM27.5312 45.8098L24.7188 45.8152C24.7188 46.8924 24.8724 47.9583 25.1719 48.9821L27.8718 48.191C27.6468 47.4232 27.5312 46.6212 27.5312 45.8098ZM44.4062 45.8125C44.4062 46.6225 44.2934 47.4233 44.0684 48.1883L46.7656 48.9821C47.0665 47.9583 47.2188 46.8925 47.2188 45.8125H44.4062ZM68.3125 45.8125C62.1095 45.8125 57.0625 50.8595 57.0625 57.0625C57.0625 60.0578 58.2453 62.7762 60.1606 64.7941C55.7886 67.2143 52.6276 71.529 51.7149 76.4973L54.4807 77.0054C55.3132 72.4703 58.4102 68.609 62.6078 66.7415C63.64 67.3518 64.7699 67.8094 65.9779 68.0653L62.888 73.2151C62.6405 73.6272 62.6207 74.1362 62.8358 74.5665L67.0546 83.004C67.2922 83.4793 67.7795 83.7812 68.3125 83.7812C68.8455 83.7812 69.3314 83.4807 69.5704 83.004L73.7892 74.5665C74.0043 74.1362 73.9845 73.6244 73.737 73.2124L70.6471 68.0653C71.8593 67.808 72.9959 67.3491 74.0309 66.736C75.5876 67.425 77.0415 68.4007 78.2579 69.6171C80.9115 72.2707 82.375 75.8022 82.375 79.5625V85.1875H85.1875V79.5625C85.1875 75.0512 83.4316 70.8138 80.2464 67.6286C79.127 66.5106 77.8371 65.5646 76.4561 64.8024C78.3756 62.7844 79.5625 60.062 79.5625 57.0625C79.5625 50.8595 74.5155 45.8125 68.3125 45.8125ZM68.3125 48.625C72.9658 48.625 76.75 52.4092 76.75 57.0625C76.75 61.7158 72.9658 65.5 68.3125 65.5C63.6592 65.5 59.875 61.7158 59.875 57.0625C59.875 52.4092 63.6592 48.625 68.3125 48.625ZM28.8688 50.3718L26.504 51.8934C27.0834 52.7948 27.7883 53.6114 28.5997 54.3159L30.4426 52.1873C29.8323 51.6586 29.3034 51.0468 28.8688 50.3718ZM43.0687 50.3746C42.6327 51.0496 42.1038 51.66 41.4949 52.1873L43.3351 54.3159C44.1465 53.6128 44.8541 52.799 45.4335 51.8962L43.0687 50.3746ZM32.4641 53.4919L31.2941 56.0463C32.27 56.4935 33.3043 56.7966 34.3702 56.9499L34.7657 54.1649C33.9684 54.0524 33.194 53.8252 32.4641 53.4919ZM39.4734 53.4919C38.7435 53.8252 37.9691 54.0524 37.1718 54.1649L37.5673 56.9499C38.6332 56.798 39.6675 56.4949 40.6434 56.0463L39.4734 53.4919ZM14.875 55.6947C14.4204 55.6947 13.9658 55.8908 13.705 56.2825L8.07996 64.72L10.42 66.28L13.4688 61.707V68.3125C13.4688 76.8414 20.4086 83.7812 28.9375 83.7812H55.6562V80.9688H28.9375C21.9597 80.9688 16.2812 75.2917 16.2812 68.3125V61.707L19.33 66.28L21.67 64.72L16.045 56.2825C15.7842 55.8908 15.3296 55.6947 14.875 55.6947ZM68.3125 69.6391L70.9272 74.0007L68.3125 79.2302L65.6978 74.0007L68.3125 69.6391Z" fill="#FBFBFB"/>
</svg>
