<svg width="71" height="70" viewBox="0 0 71 70" fill="none" xmlns="http://www.w3.org/2000/svg">
<path d="M35.993 0C32.2372 0 29.568 3.67291 30.7182 7.23897L13.6848 17.0699C13.13 17.39 12.9291 18.105 13.2649 18.6744C13.8306 19.6638 13.8293 20.8889 13.2598 21.875C12.3753 23.4071 10.4094 23.9337 8.87741 23.0494C7.34528 22.1647 6.81857 20.1986 7.70305 18.6667C8.27267 17.6803 9.33502 17.0651 10.4759 17.0616C11.1202 17.0597 11.6407 16.5359 11.6388 15.8916C11.6369 15.2484 11.115 14.7283 10.4722 14.7283C8.53084 14.7283 6.67676 15.7774 5.68218 17.5C3.81536 20.7334 5.62861 24.8885 9.30551 25.6843C9.30551 26.0146 9.30474 45.2924 9.30693 45.3826C9.32224 46.0157 9.84192 46.5267 10.4827 46.5203C12.5702 46.5238 14.1308 48.5045 13.5802 50.5594C12.8482 53.2913 9.13937 53.8215 7.70277 51.3333C7.26133 50.5687 7.15409 49.6804 7.40084 48.8322C7.5808 48.2136 7.22508 47.5661 6.60645 47.3861C5.98783 47.2065 5.34032 47.5619 5.16037 48.1805C4.73424 49.6453 4.91976 51.1793 5.68218 52.5C7.20293 55.1339 10.5943 56.0627 13.2521 54.5283C15.5531 53.1997 16.5404 50.4595 15.7549 48.0273L22.1388 44.3427V45.3542C22.1388 47.284 23.709 48.8542 25.6388 48.8542H34.8263V59.0414C33.6729 59.2896 32.6514 59.8969 31.8863 60.7413L20.2242 54.0105C19.6661 53.6883 18.9526 53.8796 18.6306 54.4377C18.3086 54.9958 18.4997 55.7095 19.0578 56.0316L30.7182 62.7613C29.566 66.3341 32.246 70 35.993 70C37.4732 70 38.8649 69.4235 39.9117 68.377C40.3673 67.9214 40.3674 67.1827 39.9117 66.727C39.4561 66.2716 38.7174 66.2714 38.2617 66.727C37.6556 67.3329 36.8501 67.6669 35.993 67.6669C34.2239 67.6669 32.7847 66.2277 32.7847 64.4586C32.7847 62.6895 34.2239 61.2503 35.993 61.2503C37.1298 61.2503 38.1901 61.86 38.7647 62.8422C39.0343 63.3236 39.6356 63.5731 40.1945 63.3614C40.3408 63.3059 39.1263 63.9971 57.3977 53.4519C58.4192 54.5763 59.8942 55.2701 61.4953 55.27C65.61 55.2697 68.2745 50.9734 66.4861 47.3001C66.2042 46.7204 65.5056 46.4795 64.9264 46.7615C64.347 47.0436 64.106 47.7417 64.3881 48.321C64.8562 49.2827 64.817 50.4087 64.2832 51.3333C63.3988 52.8655 61.4327 53.3923 59.9006 52.5077C59.1584 52.0792 58.6276 51.3872 58.4058 50.5594C57.8561 48.5074 59.4136 46.5239 61.5036 46.5203C62.1444 46.5267 62.6638 46.0159 62.6791 45.3826C62.6813 45.2927 62.6806 24.9902 62.6805 24.6453C62.6802 24.0045 62.16 23.4789 61.5138 23.4789C60.3301 23.4789 59.2828 22.8385 58.7265 21.8747C57.8398 20.3391 58.3648 18.3788 59.9006 17.492C61.4327 16.6077 63.3986 17.1343 64.2832 18.6664C64.7579 19.4886 64.8443 20.4729 64.5202 21.3666C64.3006 21.9724 64.6136 22.6415 65.2192 22.8611C65.825 23.0807 66.4941 22.7679 66.714 22.1621C67.2734 20.6192 67.124 18.9198 66.3041 17.4997C64.4337 14.26 59.9277 13.7634 57.398 16.5481L40.3652 6.71773C39.8065 6.3953 39.0851 6.58583 38.7647 7.15808C38.1901 8.14027 37.1298 8.75 35.993 8.75C34.2239 8.75 32.7847 7.31077 32.7847 5.54167C32.7847 2.72431 36.1518 1.30306 38.1802 3.19438C38.6516 3.63377 39.39 3.60774 39.8294 3.13656C40.2688 2.66537 40.2429 1.92707 39.7716 1.48767C38.7426 0.528379 37.4006 0 35.993 0ZM31.8869 9.25842C32.6519 10.1028 33.6732 10.7104 34.8266 10.9586V21.1458H25.6391C23.7093 21.1458 22.1391 22.716 22.1391 24.6458V41.6488L14.5848 46.0087C13.8054 45.1512 12.7727 44.5562 11.6391 44.3123V25.6852C12.7546 25.446 13.7934 24.8673 14.5866 23.9921L17.471 25.657C18.0267 25.9777 18.7411 25.7903 19.0647 25.2297C19.3867 24.6716 19.1955 23.958 18.6374 23.6358L15.7529 21.9713C16.1075 20.8673 16.1075 19.6748 15.7529 18.5701L31.8869 9.25842ZM40.0997 9.25871L56.2311 18.5687C55.8719 19.6862 55.8715 20.8679 56.2305 21.973L49.8472 25.657V24.6458C49.8472 22.716 48.277 21.1458 46.3472 21.1458H37.1597V10.9563C38.2905 10.711 39.3212 10.1158 40.0997 9.25871ZM25.6388 23.4792H46.3472C46.9904 23.4792 47.5138 24.0026 47.5138 24.6458V35C47.5138 35.6443 48.0362 36.1667 48.6805 36.1667C49.3248 36.1667 49.8472 35.6443 49.8472 35V28.3512L57.4017 23.9913C58.1812 24.8488 59.2136 25.4435 60.3472 25.6875V44.3123C59.2136 44.5564 58.1812 45.1509 57.4017 46.0084C48.8314 41.062 49.13 41.1558 48.6805 41.1558C48.1049 41.1558 47.5886 41.587 47.5215 42.1931C47.5109 42.2897 47.5138 42.1501 47.5138 45.3539C47.5138 45.9972 46.9904 46.5205 46.3472 46.5205H25.6388C24.9956 46.5208 24.4722 45.9974 24.4722 45.3542V24.6458C24.4722 24.0026 24.9956 23.4792 25.6388 23.4792ZM32.9305 28.5833C32.2862 28.5833 31.7638 29.1057 31.7638 29.75V33.8333H30.8888C30.2445 33.8333 29.7222 34.3557 29.7222 35C29.7222 35.6443 30.2445 36.1667 30.8888 36.1667H31.7638V40.25C31.7638 40.8943 32.2862 41.4167 32.9305 41.4167H35.8472C39.3854 41.4167 42.2638 38.5382 42.2638 35C42.2638 31.4618 39.3854 28.5833 35.8472 28.5833H32.9305ZM34.0972 30.9167H35.8472C38.0987 30.9167 39.9305 32.7485 39.9305 35C39.9305 37.2515 38.0988 39.0833 35.8472 39.0833H34.0972V36.1667H34.9722C35.6165 36.1667 36.1388 35.6443 36.1388 35C36.1388 34.3557 35.6165 33.8333 34.9722 33.8333H34.0972V30.9167ZM49.8472 44.3427L56.2305 48.0267C55.8721 49.13 55.8712 50.3119 56.2311 51.4313L40.0997 60.7413C39.3214 59.8842 38.2905 59.2893 37.1597 59.044V48.8542H46.3472C48.277 48.8542 49.8472 47.284 49.8472 45.3542V44.3427Z" fill="white"/>
</svg>
