<svg width="71" height="70" viewBox="0 0 71 70" fill="none" xmlns="http://www.w3.org/2000/svg">
<path d="M35.9942 2.80005C34.2442 2.80005 32.7535 3.50671 31.7969 4.58286C30.8666 5.62947 30.4262 6.96343 30.4024 8.28794L14.9914 17.1829C14.0348 16.1067 12.5442 15.4 10.7942 15.4C9.04415 15.4 7.55347 16.1067 6.59689 17.1829C5.64031 18.259 5.19415 19.6389 5.19415 21C5.19415 22.3612 5.64031 23.7411 6.59689 24.8172C7.28495 25.5913 8.25568 26.1615 9.39415 26.4278V43.5723C8.25568 43.8386 7.28495 44.4088 6.59689 45.1829C5.64031 46.259 5.19415 47.6389 5.19415 49C5.19415 50.3612 5.64031 51.7411 6.59689 52.8172C7.55347 53.8934 9.04415 54.6 10.7942 54.6C12.5442 54.6 14.0348 53.8934 14.9914 52.8172L30.4024 61.7122C30.4262 63.0367 30.8666 64.3706 31.7969 65.4172C32.7535 66.4934 34.2442 67.2 35.9942 67.2C37.7442 67.2 39.2348 66.4934 40.1914 65.4172C41.1217 64.3706 41.5621 63.0367 41.586 61.7122L56.9969 52.8172C57.9535 53.8934 59.4442 54.6 61.1942 54.6C62.9442 54.6 64.4348 53.8934 65.3914 52.8172C66.348 51.7411 66.7942 50.3612 66.7942 49C66.7942 47.6389 66.348 46.259 65.3914 45.1829C64.7034 44.4088 63.7326 43.8386 62.5942 43.5723V26.4278C63.7326 26.1615 64.7034 25.5913 65.3914 24.8172C66.348 23.7411 66.7942 22.3612 66.7942 21C66.7942 19.6389 66.348 18.259 65.3914 17.1829C64.4348 16.1067 62.9442 15.4 61.1942 15.4C59.4442 15.4 57.9535 16.1067 56.9969 17.1829L41.586 8.28794C41.5621 6.96343 41.1217 5.62947 40.1914 4.58286C39.2348 3.50671 37.7442 2.80005 35.9942 2.80005ZM35.9942 5.60005C37.0442 5.60005 37.6535 5.94339 38.0969 6.44224C38.5403 6.94108 38.7942 7.66116 38.7942 8.40005C38.7942 9.13894 38.5403 9.85902 38.0969 10.3579C37.6535 10.8567 37.0442 11.2 35.9942 11.2C34.9442 11.2 34.3348 10.8567 33.8914 10.3579C33.448 9.85902 33.1942 9.13894 33.1942 8.40005C33.1942 7.66116 33.448 6.94108 33.8914 6.44224C34.3348 5.94339 34.9442 5.60005 35.9942 5.60005ZM31.0695 11.1344C31.2697 11.516 31.5009 11.8843 31.7969 12.2172C32.7535 13.2934 34.2442 14 35.9942 14C37.7442 14 39.2348 13.2934 40.1914 12.2172C40.4874 11.8843 40.7186 11.516 40.9188 11.1344L55.7528 19.6985C55.6588 20.1284 55.5942 20.5634 55.5942 21C55.5942 22.3612 56.0403 23.7411 56.9969 24.8172C57.685 25.5913 58.6557 26.1615 59.7942 26.4278V43.5723C58.6557 43.8386 57.685 44.4088 56.9969 45.1829C56.0403 46.259 55.5942 47.6389 55.5942 49C55.5942 49.4367 55.6588 49.8717 55.7528 50.3016L40.9188 58.8657C40.7186 58.4841 40.4874 58.1158 40.1914 57.7829C39.2348 56.7067 37.7442 56 35.9942 56C34.2442 56 32.7535 56.7067 31.7969 57.7829C31.5009 58.1158 31.2697 58.4841 31.0695 58.8657L16.2356 50.3016C16.3295 49.8717 16.3942 49.4367 16.3942 49C16.3942 47.6389 15.948 46.259 14.9914 45.1829C14.3034 44.4088 13.3326 43.8386 12.1942 43.5723V26.4278C13.3326 26.1615 14.3034 25.5913 14.9914 24.8172C15.948 23.7411 16.3942 22.3612 16.3942 21C16.3942 20.5634 16.3295 20.1284 16.2356 19.6985L31.0695 11.1344ZM10.7942 18.2C11.8442 18.2 12.4535 18.5434 12.8969 19.0422C13.3403 19.5411 13.5942 20.2612 13.5942 21C13.5942 21.7389 13.3403 22.459 12.8969 22.9579C12.4744 23.4331 11.8894 23.7586 10.9281 23.7891C10.8764 23.7835 10.8243 23.7807 10.7723 23.7809C10.7321 23.7819 10.6919 23.7846 10.652 23.7891C9.69597 23.7568 9.1126 23.4317 8.69142 22.9579C8.248 22.459 7.99415 21.7389 7.99415 21C7.99415 20.2612 8.248 19.5411 8.69142 19.0422C9.13484 18.5434 9.74415 18.2 10.7942 18.2ZM61.1942 18.2C62.2442 18.2 62.8535 18.5434 63.2969 19.0422C63.7403 19.5411 63.9942 20.2612 63.9942 21C63.9942 21.7389 63.7403 22.459 63.2969 22.9579C62.8744 23.4331 62.2894 23.7586 61.3281 23.7891C61.2764 23.7835 61.2243 23.7807 61.1723 23.7809C61.1321 23.7819 61.0919 23.7846 61.052 23.7891C60.096 23.7568 59.5126 23.4317 59.0914 22.9579C58.648 22.459 58.3942 21.7389 58.3942 21C58.3942 20.2612 58.648 19.5411 59.0914 19.0422C59.5348 18.5434 60.1442 18.2 61.1942 18.2ZM36.8336 20.8606C33.6563 20.8606 31.219 21.9924 29.9621 23.9805C28.7597 25.8825 28.7552 28.2933 29.4317 30.7399C29.2693 31.1201 28.9942 31.3576 28.9942 31.9211C28.9941 31.9723 28.9968 32.0234 29.0024 32.0743C29.0881 32.8457 29.2665 33.4717 29.6395 33.9938C29.8346 34.267 30.0711 34.327 30.3149 34.4832C30.5197 35.1871 30.7097 35.9349 31.0586 36.4C31.3858 36.8364 31.5665 36.9865 31.7942 37.2149V38.6559C31.6947 38.8581 31.5354 39.053 31.0449 39.3258C30.4969 39.6307 29.6865 39.9456 28.811 40.3786C27.9354 40.8115 26.9738 41.3822 26.1942 42.3172C25.4145 43.2522 24.8802 44.5436 24.7969 46.1262C24.7869 46.3159 24.8156 46.5057 24.8813 46.684C24.947 46.8623 25.0483 47.0253 25.179 47.1632C25.3097 47.3011 25.4671 47.4109 25.6417 47.486C25.8162 47.5611 26.0042 47.5999 26.1942 47.6H45.7942C45.9844 47.5999 46.1726 47.5611 46.3473 47.4858C46.5221 47.4105 46.6796 47.3004 46.8104 47.1623C46.9411 47.0241 47.0423 46.8607 47.1079 46.6821C47.1734 46.5035 47.2018 46.3134 47.1914 46.1235C47.1074 44.569 46.5651 43.2975 45.7832 42.3829C45.0013 41.4683 44.0455 40.9118 43.1774 40.4825C42.3092 40.0532 41.5067 39.7339 40.9653 39.4188C40.4743 39.1331 40.3033 38.9192 40.1942 38.675V37.204C40.4548 36.9488 40.716 36.7706 40.9981 36.3782C41.3598 35.8748 41.5566 35.1147 41.7336 34.3711C41.8864 34.2327 42.1621 34.2283 42.286 34.0594C42.6474 33.5666 42.8641 32.9206 42.9613 32.1426C43.082 31.4776 42.9314 30.8682 42.6387 30.3407C43.03 28.7525 43.1481 27.0509 42.5266 25.4872C41.9278 23.9805 40.3914 22.9381 38.466 22.5696L38.1352 21.7411C38.0312 21.4809 37.8516 21.258 37.6196 21.101C37.3875 20.9441 37.1137 20.8603 36.8336 20.8606ZM35.9477 23.8137L36.0953 24.1801C36.1991 24.4398 36.3783 24.6625 36.6098 24.8194C36.8413 24.9763 37.1145 25.0603 37.3942 25.0606C39.0586 25.0606 39.5583 25.595 39.9262 26.5208C40.2941 27.4465 40.256 28.9337 39.8414 30.2368C39.762 30.4879 39.755 30.7563 39.8213 31.0112C39.8876 31.2661 40.0244 31.4971 40.216 31.6778C40.2106 31.7068 40.206 31.736 40.2024 31.7653C40.1599 32.1479 40.0831 32.2641 40.052 32.3176C39.803 32.427 39.5914 32.6066 39.4428 32.8343C39.2942 33.0621 39.2151 33.3281 39.2153 33.6C39.2153 33.8334 39.0301 34.3197 38.7258 34.743C38.4215 35.1664 37.9289 35.5732 38.0176 35.5141C37.8258 35.642 37.6686 35.8152 37.5598 36.0184C37.4511 36.2216 37.3942 36.4485 37.3942 36.679V39.0606C37.3944 39.218 37.4212 39.3742 37.4735 39.5227C37.8664 40.6455 38.7379 41.362 39.557 41.8387C40.3762 42.3155 41.2116 42.6344 41.936 42.9926C42.6603 43.3508 43.2521 43.729 43.6559 44.2012C43.7723 44.3375 43.7756 44.6393 43.8692 44.8H28.1028C28.2046 44.6103 28.214 44.2662 28.3434 44.111C28.7494 43.6241 29.3354 43.2432 30.0524 42.8887C30.7693 42.5342 31.5941 42.2251 32.4067 41.7731C33.2192 41.3211 34.1001 40.648 34.5067 39.5446C34.5642 39.3897 34.5938 39.2258 34.5942 39.0606V36.679C34.5941 36.3077 34.4466 35.9516 34.184 35.6891C33.9615 35.4666 33.6285 35.1617 33.2981 34.7211C32.9677 34.2806 32.7731 33.7867 32.7731 33.6C32.7726 33.3226 32.6897 33.0515 32.5349 32.8212C32.3801 32.5909 32.1603 32.4118 31.9035 32.3067C31.9033 32.3028 31.8465 32.1646 31.7969 31.8227C31.8398 31.7151 31.926 31.5295 31.8051 31.6504C31.9846 31.4711 32.1119 31.2464 32.1736 31.0003C32.2352 30.7542 32.2288 30.4959 32.1551 30.2532C31.5309 28.1933 31.6619 26.5331 32.3301 25.4762C32.8983 24.5774 34.0834 23.998 35.9477 23.8137ZM10.6574 46.211C10.7502 46.2203 10.8436 46.2203 10.9363 46.211C11.8923 46.2432 12.4757 46.5684 12.8969 47.0422C13.3403 47.5411 13.5942 48.2612 13.5942 49C13.5942 49.7389 13.3403 50.459 12.8969 50.9579C12.4535 51.4567 11.8442 51.8 10.7942 51.8C9.74415 51.8 9.13484 51.4567 8.69142 50.9579C8.248 50.459 7.99415 49.7389 7.99415 49C7.99415 48.2612 8.248 47.5411 8.69142 47.0422C9.11345 46.5675 9.69795 46.2421 10.6574 46.211ZM61.0574 46.211C61.1502 46.2203 61.2436 46.2203 61.3363 46.211C62.2923 46.2432 62.8757 46.5684 63.2969 47.0422C63.7403 47.5411 63.9942 48.2612 63.9942 49C63.9942 49.7389 63.7403 50.459 63.2969 50.9579C62.8535 51.4567 62.2442 51.8 61.1942 51.8C60.1442 51.8 59.5348 51.4567 59.0914 50.9579C58.648 50.459 58.3942 49.7389 58.3942 49C58.3942 48.2612 58.648 47.5411 59.0914 47.0422C59.5135 46.5675 60.098 46.2421 61.0574 46.211ZM35.9942 58.8C37.0442 58.8 37.6535 59.1434 38.0969 59.6422C38.5403 60.1411 38.7942 60.8612 38.7942 61.6C38.7942 62.3389 38.5403 63.059 38.0969 63.5579C37.6535 64.0567 37.0442 64.4 35.9942 64.4C34.9442 64.4 34.3348 64.0567 33.8914 63.5579C33.448 63.059 33.1942 62.3389 33.1942 61.6C33.1942 60.8612 33.448 60.1411 33.8914 59.6422C34.3348 59.1434 34.9442 58.8 35.9942 58.8Z" fill="white"/>
</svg>
