<svg xmlns="http://www.w3.org/2000/svg" fill="none" width="64" height="64" viewBox="0 0 64 64"><path d="M16 5.333a5.332 5.332 0 0 0-5.334 5.333v42.667A5.332 5.332 0 0 0 16 58.666h13.703c.528-2.005 1.677-3.802 3.328-5.333H16V42.666h21.458c-.048-.442-.125-.874-.125-1.333 0-1.416.282-2.747.714-4H16V26.666h32v2.797c.443-.048.874-.13 1.333-.13 1.416 0 2.747.282 4 .714v-19.38A5.332 5.332 0 0 0 48 5.332H16zm0 5.333h32v10.667H16V10.666zm33.333 24a6.667 6.667 0 1 0 0 13.334 6.667 6.667 0 0 0 0-13.334zm0 18.667c-8.01 0-14.666 3.23-14.666 7.885V64H64v-2.782c0-4.656-6.656-7.885-14.667-7.885z" fill="#fff"/></svg>