<svg width="54" height="59" viewBox="0 0 54 59" fill="none" xmlns="http://www.w3.org/2000/svg">
<path d="M5.99984 0.333008C3.05317 0.333008 0.666504 2.71967 0.666504 5.66634V48.333C0.666504 51.2797 3.05317 53.6663 5.99984 53.6663H19.703C20.231 51.661 21.3804 49.8637 23.0311 48.333H5.99984V37.6663H27.4582C27.4102 37.2237 27.3332 36.7917 27.3332 36.333C27.3332 34.917 27.6147 33.5863 28.0467 32.333H5.99984V21.6663H37.9998V24.4632C38.4425 24.4152 38.8745 24.333 39.3332 24.333C40.7492 24.333 42.0798 24.6145 43.3332 25.0466V5.66634C43.3332 2.71967 40.9465 0.333008 37.9998 0.333008H5.99984ZM5.99984 5.66634H37.9998V16.333H5.99984V5.66634ZM39.3332 29.6663C37.5651 29.6663 35.8694 30.3687 34.6191 31.619C33.3689 32.8692 32.6665 34.5649 32.6665 36.333C32.6665 38.1011 33.3689 39.7968 34.6191 41.0471C35.8694 42.2973 37.5651 42.9997 39.3332 42.9997C41.1013 42.9997 42.797 42.2973 44.0472 41.0471C45.2975 39.7968 45.9998 38.1011 45.9998 36.333C45.9998 34.5649 45.2975 32.8692 44.0472 31.619C42.797 30.3687 41.1013 29.6663 39.3332 29.6663ZM39.3332 48.333C31.3225 48.333 24.6665 51.5624 24.6665 56.2184V58.9997H53.9998V56.2184C53.9998 51.5624 47.3438 48.333 39.3332 48.333Z" fill="white"/>
</svg>
