<svg xmlns="http://www.w3.org/2000/svg" fill="none" width="64" height="64" viewBox="0 0 64 64"><path d="M32.474 46.657a.62.62 0 0 0 .191.107c.067.036.139.06.213.071.298 0 .583-.125.794-.347.21-.222.328-.523.328-.837a1.22 1.22 0 0 0-.328-.838 1.093 1.093 0 0 0-.794-.347.648.648 0 0 0-.213.07.62.62 0 0 0-.19.108l-.18.142a1.19 1.19 0 0 0-.246.385 1.241 1.241 0 0 0 .246 1.297l.18.19z" fill="#F3F3F3"/><path d="M59.55 37.962a3.751 3.751 0 0 0-2.326.832 4.112 4.112 0 0 0-1.388 2.141h-2.883v-4.738h7.563c.163-.003.324-.044.47-.119 6.902-8.067 1.123-21.702-8.976-22.27-2.123-2.764-5.013-4.755-8.264-5.692a15.3 15.3 0 0 0-9.858.467C28.637-5.017 10.19-1.64 9.337 12.978a12.993 12.993 0 0 0-5.656 3.634 14.043 14.043 0 0 0-3.25 6.09 14.57 14.57 0 0 0-.012 6.99 14.05 14.05 0 0 0 3.228 6.102c.106.126.235.228.38.297.145.07.303.105.462.106h7.675v4.738H9.247a4.093 4.093 0 0 0-1.64-2.285 3.728 3.728 0 0 0-2.656-.597 3.842 3.842 0 0 0-2.38 1.38c-.61.747-.946 1.7-.946 2.687 0 .986.336 1.94.946 2.687a3.843 3.843 0 0 0 2.38 1.38 3.728 3.728 0 0 0 2.656-.598 4.094 4.094 0 0 0 1.64-2.285h3.972a1.07 1.07 0 0 0 .443-.083 1.12 1.12 0 0 0 .62-.652c.056-.146.084-.303.082-.461v-5.911h6.575v15.4h-6.171a4.094 4.094 0 0 0-1.64-2.285 3.728 3.728 0 0 0-2.656-.597 3.843 3.843 0 0 0-2.38 1.38 4.25 4.25 0 0 0-.947 2.686c0 .987.336 1.94.947 2.687a3.842 3.842 0 0 0 2.38 1.38 3.728 3.728 0 0 0 2.655-.597 4.094 4.094 0 0 0 1.64-2.285h7.305c.298 0 .583-.125.794-.347a1.22 1.22 0 0 0 .329-.838V36.197h8.774v5.923c0 .314.118.615.329.837.21.223.496.347.793.347.298 0 .583-.124.794-.347a1.22 1.22 0 0 0 .329-.837v-5.923h7.675V52.78c0 .315.118.616.328.838.21.222.496.347.794.347h7.26c.27.945.851 1.756 1.64 2.285.788.529 1.73.74 2.655.597a3.842 3.842 0 0 0 2.38-1.38c.61-.747.947-1.7.947-2.687 0-.986-.336-1.94-.947-2.686a3.843 3.843 0 0 0-2.38-1.38 3.728 3.728 0 0 0-2.655.597 4.094 4.094 0 0 0-1.64 2.285h-6.138v-15.4h6.575v5.923a1.24 1.24 0 0 0 .081.46 1.133 1.133 0 0 0 .621.653c.14.059.292.087.443.083h3.972a4.14 4.14 0 0 0 1.148 1.885c.54.504 1.203.84 1.914.97.71.129 1.441.048 2.11-.235a3.928 3.928 0 0 0 1.682-1.369 4.307 4.307 0 0 0 .35-4.296 4.035 4.035 0 0 0-1.436-1.65 3.742 3.742 0 0 0-2.043-.612v-.047zM5.533 43.885a1.64 1.64 0 0 1-1.19-.52 1.828 1.828 0 0 1-.494-1.257c0-.471.178-.923.493-1.257a1.64 1.64 0 0 1 1.19-.52c.446 0 .872.187 1.187.519.314.332.491.782.491 1.252s-.177.92-.491 1.252a1.634 1.634 0 0 1-1.186.519v.012zm5.51 10.662a1.64 1.64 0 0 1-1.191-.52 1.829 1.829 0 0 1-.493-1.257c0-.472.177-.924.493-1.257a1.64 1.64 0 0 1 1.19-.52c.444 0 .869.186 1.182.517.314.33.49.78.49 1.248 0 .468-.176.917-.49 1.248a1.628 1.628 0 0 1-1.182.517v.023zm42.942-3.554c.446 0 .874.187 1.19.52.316.333.493.785.493 1.257 0 .47-.177.923-.493 1.256a1.64 1.64 0 0 1-1.19.52c-.444 0-.869-.185-1.182-.517a1.816 1.816 0 0 1-.49-1.248c0-.468.176-.917.49-1.248a1.628 1.628 0 0 1 1.182-.517v-.023zM2.245 26.198c-.014-2.592.816-5.11 2.35-7.135 1.533-2.025 3.678-3.432 6.077-3.988.291-.06.548-.24.714-.5.166-.26.228-.578.172-.886-.06-2.705.819-5.34 2.47-7.407 1.652-2.069 3.963-3.428 6.498-3.823 2.535-.394 5.12.203 7.267 1.68 2.146 1.477 3.708 3.732 4.39 6.34a1.2 1.2 0 0 0 .23.444 1.129 1.129 0 0 0 .858.411c.163 0 .323-.037.471-.11a12.876 12.876 0 0 1 5.824-1.373c2.139 0 4.248.524 6.162 1.531a14.016 14.016 0 0 1 4.868 4.273c.102.14.233.255.383.335.15.08.314.123.481.127 8.18.107 13.151 10.543 8.472 17.687H4.95c-1.76-2.096-2.724-4.805-2.704-7.606zm57.306 17.64c-.447 0-.875-.188-1.19-.521a1.828 1.828 0 0 1-.494-1.257c0-.47.178-.923.493-1.256a1.64 1.64 0 0 1 1.19-.52c.447 0 .875.187 1.19.52.316.333.494.785.494 1.256 0 .472-.178.924-.493 1.257a1.64 1.64 0 0 1-1.19.52z" fill="#F3F3F3"/><path d="M44.459 55.767a3.76 3.76 0 0 0-2.324.817 4.119 4.119 0 0 0-1.401 2.12h-6.52v-9.476a1.22 1.22 0 0 0-.328-.838 1.093 1.093 0 0 0-.794-.347c-.297 0-.583.125-.793.347a1.22 1.22 0 0 0-.329.838v9.477h-6.16a4.094 4.094 0 0 0-1.64-2.285 3.728 3.728 0 0 0-2.656-.598 3.843 3.843 0 0 0-2.38 1.38c-.61.747-.947 1.7-.947 2.687 0 .987.336 1.94.947 2.687a3.843 3.843 0 0 0 2.38 1.38 3.728 3.728 0 0 0 2.656-.597 4.094 4.094 0 0 0 1.64-2.285h14.935c.21.729.608 1.382 1.149 1.886s1.204.84 1.915.968c.712.13 1.443.048 2.112-.236a3.929 3.929 0 0 0 1.68-1.372 4.307 4.307 0 0 0 .342-4.3 4.034 4.034 0 0 0-1.439-1.648 3.74 3.74 0 0 0-2.045-.605zM22.073 61.63a1.63 1.63 0 0 1-1.085-.56 1.808 1.808 0 0 1-.44-1.188c0-.44.158-.864.44-1.187a1.63 1.63 0 0 1 1.085-.56 1.63 1.63 0 0 1 1.085.56c.283.323.44.747.44 1.187 0 .44-.157.864-.44 1.188a1.63 1.63 0 0 1-1.085.56zm22.386 0a1.63 1.63 0 0 1-1.085-.56 1.808 1.808 0 0 1-.44-1.188c0-.44.157-.864.44-1.187a1.63 1.63 0 0 1 1.085-.56 1.63 1.63 0 0 1 1.085.56c.283.323.44.747.44 1.187 0 .44-.157.864-.44 1.188a1.63 1.63 0 0 1-1.085.56z" fill="#F3F3F3"/></svg>