<svg width="78" height="78" viewBox="0 0 78 78" fill="none" xmlns="http://www.w3.org/2000/svg">
<path d="M5.2 0C4.4824 0 3.9 0.583007 3.9 1.30136V19.5203C3.9 20.2387 4.4824 20.8217 5.2 20.8217H6.5V23.4244H5.2C4.4824 23.4244 3.9 24.0074 3.9 24.7258V42.9447C3.9 43.6631 4.4824 44.2461 5.2 44.2461H6.5V46.8488H5.2C4.4824 46.8488 3.9 47.4318 3.9 48.1502V66.3691C3.9 67.0875 4.4824 67.6705 5.2 67.6705H37.7V75.3973H0V78H78V75.3973H40.3V67.6705H72.8C73.5176 67.6705 74.1 67.0875 74.1 66.3691V48.1502C74.1 47.4318 73.5176 46.8488 72.8 46.8488H71.5V44.2461H72.8C73.5176 44.2461 74.1 43.6631 74.1 42.9447V24.7258C74.1 24.0074 73.5176 23.4244 72.8 23.4244H71.5V20.8217H72.8C73.5176 20.8217 74.1 20.2387 74.1 19.5203V1.30136C74.1 0.583007 73.5176 0 72.8 0H5.2ZM6.5 2.60271H71.5V18.219H6.5V2.60271ZM9.1 5.20542V7.80813H14.3V5.20542H9.1ZM16.9 5.20542V7.80813H22.1V5.20542H16.9ZM24.7 5.20542V7.80813H29.9V5.20542H24.7ZM32.5 5.20542V7.80813H37.7V5.20542H32.5ZM40.3 5.20542V7.80813H45.5V5.20542H40.3ZM49.4 5.20542C48.6824 5.20542 48.1 5.78843 48.1 6.50678V14.3149C48.1 15.0333 48.6824 15.6163 49.4 15.6163H67.6C68.3176 15.6163 68.9 15.0333 68.9 14.3149V6.50678C68.9 5.78843 68.3176 5.20542 67.6 5.20542H49.4ZM50.7 7.80813H66.3V13.0136H50.7V7.80813ZM9.1 10.4108V13.0136H14.3V10.4108H9.1ZM16.9 10.4108V13.0136H22.1V10.4108H16.9ZM24.7 10.4108V13.0136H29.9V10.4108H24.7ZM32.5 10.4108V13.0136H37.7V10.4108H32.5ZM40.3 10.4108V13.0136H45.5V10.4108H40.3ZM9.1 20.8217H68.9V23.4244H9.1V20.8217ZM6.5 26.0271H71.5V41.6434H6.5V26.0271ZM9.1 28.6298V31.2325H14.3V28.6298H9.1ZM16.9 28.6298V31.2325H22.1V28.6298H16.9ZM24.7 28.6298V31.2325H29.9V28.6298H24.7ZM32.5 28.6298V31.2325H37.7V28.6298H32.5ZM40.3 28.6298V31.2325H45.5V28.6298H40.3ZM49.4 28.6298C48.6824 28.6298 48.1 29.2128 48.1 29.9312V37.7393C48.1 38.4577 48.6824 39.0407 49.4 39.0407H67.6C68.3176 39.0407 68.9 38.4577 68.9 37.7393V29.9312C68.9 29.2128 68.3176 28.6298 67.6 28.6298H49.4ZM50.7 31.2325H66.3V36.438H50.7V31.2325ZM9.1 33.8352V36.438H14.3V33.8352H9.1ZM16.9 33.8352V36.438H22.1V33.8352H16.9ZM24.7 33.8352V36.438H29.9V33.8352H24.7ZM32.5 33.8352V36.438H37.7V33.8352H32.5ZM40.3 33.8352V36.438H45.5V33.8352H40.3ZM9.1 44.2461H68.9V46.8488H9.1V44.2461ZM6.5 49.4515H71.5V65.0678H6.5V49.4515ZM9.1 52.0542V54.6569H14.3V52.0542H9.1ZM16.9 52.0542V54.6569H22.1V52.0542H16.9ZM24.7 52.0542V54.6569H29.9V52.0542H24.7ZM32.5 52.0542V54.6569H37.7V52.0542H32.5ZM40.3 52.0542V54.6569H45.5V52.0542H40.3ZM49.4 52.0542C48.6824 52.0542 48.1 52.6372 48.1 53.3556V61.1637C48.1 61.8821 48.6824 62.4651 49.4 62.4651H67.6C68.3176 62.4651 68.9 61.8821 68.9 61.1637V53.3556C68.9 52.6372 68.3176 52.0542 67.6 52.0542H49.4ZM50.7 54.6569H66.3V59.8624H50.7V54.6569ZM9.1 57.2596V59.8624H14.3V57.2596H9.1ZM16.9 57.2596V59.8624H22.1V57.2596H16.9ZM24.7 57.2596V59.8624H29.9V57.2596H24.7ZM32.5 57.2596V59.8624H37.7V57.2596H32.5ZM40.3 57.2596V59.8624H45.5V57.2596H40.3Z" fill="#E4E4E7" fill-opacity="0.8"/>
</svg>
