<svg xmlns="http://www.w3.org/2000/svg" fill="none" width="64" height="64" viewBox="0 0 64 64"><g clip-path="url(#a)"><path d="M37.12 0c-2.105 0-3.84 1.735-3.84 3.84v17.92h2.56V3.84c0-.725.555-1.28 1.28-1.28h23.04c.72 0 1.28.56 1.28 1.28V57.6c0 .72-.56 1.28-1.28 1.28H57.6v2.56h2.56c2.105 0 3.84-1.735 3.84-3.84V3.84C64 1.735 62.265 0 60.16 0H37.12zm11.52 10.24a2.559 2.559 0 0 0-2.56 2.56 2.559 2.559 0 0 0 2.56 2.56 2.559 2.559 0 0 0 2.56-2.56 2.559 2.559 0 0 0-2.56-2.56zm-28.16 12.8c-2.105 0-3.84 1.735-3.84 3.84v3.84H3.84C1.735 30.72 0 32.455 0 34.56v7.28c-.075.25-.075.51 0 .76v17.56C0 62.265 1.735 64 3.84 64h48.64c2.105 0 3.84-1.735 3.84-3.84V42.48a1.3 1.3 0 0 0 0-.52v-7.4c0-2.105-1.735-3.84-3.84-3.84h-12.8v-3.84c0-2.105-1.735-3.84-3.84-3.84H20.48zm0 2.56h15.36c.72 0 1.28.56 1.28 1.28v3.84H19.2v-3.84c0-.72.56-1.28 1.28-1.28zM3.84 33.28h48.64c.72 0 1.28.56 1.28 1.28v6.4h-6.4c0-1.4-1.16-2.56-2.56-2.56h-3.84c-1.4 0-2.56 1.16-2.56 2.56H17.92c0-1.4-1.16-2.56-2.56-2.56h-3.84c-1.4 0-2.56 1.16-2.56 2.56h-6.4v-6.4c0-.72.56-1.28 1.28-1.28zm7.68 7.68h3.84v.88c-.075.25-.075.51 0 .76v3.48h-3.84v-3.6a1.3 1.3 0 0 0 0-.52v-1zm29.44 0h3.84v.88c-.075.25-.075.51 0 .76v3.48h-3.84v-3.6a1.3 1.3 0 0 0 0-.52v-1zm-38.4 2.56h6.4v2.56c0 1.4 1.16 2.56 2.56 2.56h3.84c1.4 0 2.56-1.16 2.56-2.56v-2.56H38.4v2.56c0 1.4 1.16 2.56 2.56 2.56h3.84c1.4 0 2.56-1.16 2.56-2.56v-2.56h6.4v16.64c0 .72-.56 1.28-1.28 1.28H3.84c-.72 0-1.28-.56-1.28-1.28V43.52z" fill="#fff"/></g><defs><clipPath id="a"><path d="M0 0h64v64H0z" fill="#fff"/></clipPath></defs></svg>