<svg width="64" height="64" viewBox="0 0 64 64" fill="none" xmlns="http://www.w3.org/2000/svg">
<path d="M37.12 0C35.015 0 33.28 1.735 33.28 3.84V21.76H35.84V3.84C35.84 3.115 36.395 2.56 37.12 2.56H60.16C60.88 2.56 61.44 3.12 61.44 3.84V57.6C61.44 58.32 60.88 58.88 60.16 58.88H57.6V61.44H60.16C62.265 61.44 64 59.705 64 57.6V3.84C64 1.735 62.265 0 60.16 0H37.12ZM48.64 10.24C47.225 10.24 46.08 11.385 46.08 12.8C46.08 14.215 47.225 15.36 48.64 15.36C50.055 15.36 51.2 14.215 51.2 12.8C51.2 11.385 50.055 10.24 48.64 10.24ZM20.48 23.04C18.375 23.04 16.64 24.775 16.64 26.88V30.72H3.84C1.735 30.72 -1.47894e-06 32.455 -1.47894e-06 34.56V41.84C-0.0750015 42.09 -0.0750015 42.35 -1.47894e-06 42.6V60.16C-1.47894e-06 62.265 1.735 64 3.84 64H52.48C54.585 64 56.32 62.265 56.32 60.16V42.48C56.355 42.31 56.355 42.13 56.32 41.96V34.56C56.32 32.455 54.585 30.72 52.48 30.72H39.68V26.88C39.68 24.775 37.945 23.04 35.84 23.04H20.48ZM20.48 25.6H35.84C36.56 25.6 37.12 26.16 37.12 26.88V30.72H19.2V26.88C19.2 26.16 19.76 25.6 20.48 25.6ZM3.84 33.28H52.48C53.2 33.28 53.76 33.84 53.76 34.56V40.96H47.36C47.36 39.56 46.2 38.4 44.8 38.4H40.96C39.56 38.4 38.4 39.56 38.4 40.96H17.92C17.92 39.56 16.76 38.4 15.36 38.4H11.52C10.12 38.4 8.96 39.56 8.96 40.96H2.56V34.56C2.56 33.84 3.12 33.28 3.84 33.28ZM11.52 40.96H15.36V41.84C15.285 42.09 15.285 42.35 15.36 42.6V46.08H11.52V42.48C11.555 42.31 11.555 42.13 11.52 41.96V40.96ZM40.96 40.96H44.8V41.84C44.725 42.09 44.725 42.35 44.8 42.6V46.08H40.96V42.48C40.995 42.31 40.995 42.13 40.96 41.96V40.96ZM2.56 43.52H8.96V46.08C8.96 47.48 10.12 48.64 11.52 48.64H15.36C16.76 48.64 17.92 47.48 17.92 46.08V43.52H38.4V46.08C38.4 47.48 39.56 48.64 40.96 48.64H44.8C46.2 48.64 47.36 47.48 47.36 46.08V43.52H53.76V60.16C53.76 60.88 53.2 61.44 52.48 61.44H3.84C3.12 61.44 2.56 60.88 2.56 60.16V43.52Z" fill="white"/>
</svg>
