<svg width="20" height="45" viewBox="0 0 20 45" fill="none" xmlns="http://www.w3.org/2000/svg">
<circle cx="9.7616" cy="35.2499" r="9.24988" stroke="#E4E4E7" stroke-opacity="0.6"/>
<path d="M9.98372 39.144C9.33572 39.144 8.75972 38.976 8.25572 38.64C7.75972 38.304 7.37172 37.828 7.09172 37.212C6.81172 36.596 6.67172 35.868 6.67172 35.028C6.67172 34.188 6.81172 33.464 7.09172 32.856C7.37972 32.248 7.77572 31.78 8.27972 31.452C8.78372 31.116 9.37172 30.948 10.0437 30.948C10.5077 30.948 10.9157 31.044 11.2677 31.236C11.6197 31.428 11.8997 31.648 12.1077 31.896L11.7837 32.268C11.5677 32.02 11.3157 31.824 11.0277 31.68C10.7397 31.528 10.4157 31.452 10.0557 31.452C9.47972 31.452 8.97972 31.6 8.55572 31.896C8.13972 32.184 7.81572 32.596 7.58372 33.132C7.35972 33.66 7.24772 34.292 7.24772 35.028C7.24772 35.756 7.35972 36.392 7.58372 36.936C7.80772 37.48 8.12372 37.9 8.53172 38.196C8.94772 38.492 9.43972 38.64 10.0077 38.64C10.4157 38.64 10.7797 38.56 11.0997 38.4C11.4197 38.232 11.7237 37.988 12.0117 37.668L12.3357 38.016C12.0317 38.36 11.6917 38.636 11.3157 38.844C10.9397 39.044 10.4957 39.144 9.98372 39.144Z" fill="#E4E4E7" fill-opacity="0.8"/>
</svg>
