<svg xmlns="http://www.w3.org/2000/svg" fill="none" width="89" height="89" viewBox="0 0 89 89"><path d="M44.498 0c-9.293 0-18.004 3.055-25.19 8.829a1.85 1.85 0 0 0 2.318 2.883c6.522-5.236 14.432-8.004 22.872-8.004 14.878 0 28.224 8.905 34.02 22.41l-5.642-3.26a1.857 1.857 0 0 0-1.854 3.216l9.633 5.563a1.862 1.862 0 0 0 2.535-.68l5.562-9.634a1.857 1.857 0 0 0-.68-2.535 1.854 1.854 0 0 0-2.536.68l-3.36 5.81C75.942 10.078 61.091 0 44.498 0zM12.854 15.239a1.89 1.89 0 0 0-.731.036l-10.75 2.883a1.851 1.851 0 0 0-1.31 2.267c.262.99 1.283 1.56 2.266 1.31l7.28-1.948a40.102 40.102 0 0 0-5.904 21.005c0 17.28 10.932 32.72 27.197 38.423.204.07.412.109.616.109a1.86 1.86 0 0 0 1.753-1.246 1.854 1.854 0 0 0-1.137-2.361C17.349 70.537 7.415 56.5 7.415 40.792a36.49 36.49 0 0 1 4.773-18.107l1.499 5.613a1.85 1.85 0 0 0 2.274 1.304 1.853 1.853 0 0 0 1.304-2.275l-2.876-10.74a1.847 1.847 0 0 0-1.535-1.348zm31.644 7.011c-8.93 0-18.542 2.321-18.542 7.417v22.25c0 5.095 9.612 7.416 18.542 7.416 8.93 0 18.542-2.321 18.542-7.416v-22.25c0-5.096-9.612-7.417-18.542-7.417zm0 3.708c9.735 0 14.834 2.756 14.834 3.709 0 .953-5.1 3.708-14.834 3.708s-14.833-2.755-14.833-3.708c0-.953 5.099-3.709 14.833-3.709zm-14.833 8.38c3.613 1.86 9.343 2.745 14.833 2.745s11.22-.885 14.834-2.745v6.454c0 .953-5.1 3.708-14.834 3.708s-14.833-2.755-14.833-3.708v-6.454zm53.77 4.6c-1.023 0-1.853.83-1.853 1.854 0 19.516-15.164 35.525-34.324 36.945l4.114-4.113a1.856 1.856 0 0 0 0-2.623 1.856 1.856 0 0 0-2.622 0l-7.417 7.417a1.856 1.856 0 0 0 0 2.622l7.417 7.417c.363.36.836.543 1.31.543a1.856 1.856 0 0 0 1.311-3.165l-4.374-4.375C68.323 80.158 85.29 62.44 85.29 40.792c0-1.024-.83-1.855-1.854-1.855zm-53.77 6.525c3.613 1.86 9.343 2.745 14.833 2.745s11.22-.885 14.834-2.745v6.454c0 .953-5.1 3.708-14.834 3.708s-14.833-2.755-14.833-3.708v-6.454z" fill="#FBFBFB" fill-opacity=".8"/></svg>