<svg width="60" height="60" viewBox="0 0 60 60" fill="none" xmlns="http://www.w3.org/2000/svg">
<path d="M30 0C28.4727 0.0016722 27.0036 0.585704 25.892 1.63306C24.7804 2.68041 24.11 4.11224 24.0176 5.63672L9.30469 12.9961C8.32447 12.3475 7.17535 12.0012 6 12C4.4087 12 2.88258 12.6321 1.75736 13.7574C0.632141 14.8826 0 16.4087 0 18C0 19.5913 0.632141 21.1174 1.75736 22.2426C2.88258 23.3679 4.4087 24 6 24C7.17335 23.9977 8.32027 23.6514 9.29883 23.0039L24.0176 30.3633C24.0786 31.3506 24.3829 32.3076 24.9032 33.1489C25.4236 33.9903 26.1439 34.6899 27 35.1855V48.8086C26.8966 48.868 26.795 48.9306 26.6953 48.9961L11.9824 41.6367C11.89 40.1122 11.2196 38.6804 10.108 37.6331C8.99643 36.5857 7.52728 36.0017 6 36C4.4087 36 2.88258 36.6321 1.75736 37.7574C0.632141 38.8826 0 40.4087 0 42C0 43.5913 0.632141 45.1174 1.75736 46.2426C2.88258 47.3679 4.4087 48 6 48C7.17335 47.9977 8.32027 47.6514 9.29883 47.0039L24.0176 54.3633C24.1101 55.8878 24.7804 57.3196 25.892 58.3669C27.0036 59.4143 28.4727 59.9983 30 60C31.5282 59.9982 32.9982 59.4134 34.1099 58.3648C35.2217 57.3162 35.8914 55.8829 35.9824 54.3574L50.6953 47.0039C51.6755 47.6525 52.8247 47.9988 54 48C55.5913 48 57.1174 47.3679 58.2426 46.2426C59.3679 45.1174 60 43.5913 60 42C60 40.4087 59.3679 38.8826 58.2426 37.7574C57.1174 36.6321 55.5913 36 54 36C52.4727 36.0017 51.0036 36.5857 49.892 37.6331C48.7804 38.6804 48.1101 40.1122 48.0176 41.6367L33.3047 48.9961C33.2049 48.9326 33.1033 48.872 33 48.8145V35.1855C33.8561 34.6899 34.5764 33.9903 35.0968 33.1489C35.6171 32.3076 35.9214 31.3506 35.9824 30.3633L50.6953 23.0039C51.6755 23.6525 52.8247 23.9988 54 24C55.5913 24 57.1174 23.3679 58.2426 22.2426C59.3679 21.1174 60 19.5913 60 18C60 16.4087 59.3679 14.8826 58.2426 13.7574C57.1174 12.6321 55.5913 12 54 12C52.4727 12.0017 51.0036 12.5857 49.892 13.6331C48.7804 14.6804 48.1101 16.1122 48.0176 17.6367L33.2988 24.9961C32.3203 24.3486 31.1734 24.0023 30 24C28.8247 24.0012 27.6755 24.3475 26.6953 24.9961L12.709 18L26.6953 11.0039C27.6755 11.6525 28.8247 11.9988 30 12C31.5913 12 33.1174 11.3679 34.2426 10.2426C35.3679 9.11742 36 7.5913 36 6C36 4.4087 35.3679 2.88258 34.2426 1.75736C33.1174 0.632141 31.5913 0 30 0Z" fill="#FBFBFB" fill-opacity="0.8"/>
</svg>
