<svg xmlns="http://www.w3.org/2000/svg" fill="none" width="72" height="72" viewBox="0 0 72 72"><path d="M36 6a6 6 0 0 0-5.982 5.637l-14.713 7.36A6 6 0 0 0 12 18a6 6 0 1 0 0 12 5.999 5.999 0 0 0 3.299-.996l14.719 7.36A6 6 0 0 0 33 41.185v13.623c-.103.06-.205.122-.305.187l-14.713-7.36A6 6 0 0 0 12 42a6 6 0 1 0 0 12 5.999 5.999 0 0 0 3.299-.996l14.719 7.36A6 6 0 0 0 36 66a6 6 0 0 0 5.982-5.643l14.713-7.353A6 6 0 0 0 60 54a6 6 0 1 0 0-12 6 6 0 0 0-5.982 5.637l-14.713 7.36a6.04 6.04 0 0 0-.305-.182v-13.63a6 6 0 0 0 2.982-4.822l14.713-7.36A6 6 0 0 0 60 30a6 6 0 1 0 0-12 6 6 0 0 0-5.982 5.637l-14.72 7.36A5.999 5.999 0 0 0 36 30a6 6 0 0 0-3.305.996L18.71 24l13.986-6.996A6 6 0 0 0 36 18a6 6 0 1 0 0-12z" fill="#FBFBFB" fill-opacity=".8"/></svg>