<svg width="71" height="70" viewBox="0 0 71 70" fill="none" xmlns="http://www.w3.org/2000/svg">
<path d="M35.9941 4.375C33.7459 4.375 31.7827 5.29686 30.5311 6.70492C29.2795 8.11297 28.7025 9.90451 28.7025 11.6667C28.7025 12.1725 28.8614 12.6667 28.9588 13.1677L20.5136 17.9928C19.2656 16.8438 17.574 16.0445 15.5775 16.0445C13.3297 16.0445 11.3658 16.9638 10.1144 18.3716C8.86306 19.7794 8.28865 21.5715 8.28865 23.3333C8.28865 25.0951 8.86306 26.8873 10.1144 28.2951C11.3658 29.7029 13.3297 30.6222 15.5775 30.6222C17.574 30.6222 19.2656 29.8228 20.5136 28.6739L28.9588 33.4989C28.8614 34 28.7025 34.4941 28.7025 35C28.7025 36.7622 29.2795 38.5537 30.5311 39.9618C31.3417 40.8737 32.5148 41.4561 33.8066 41.8416V51.4917C32.7378 51.8107 31.8112 52.2994 31.058 52.9928L22.6128 48.1649C22.7098 47.665 22.8663 47.1713 22.8663 46.6667C22.8663 44.9049 22.2919 43.1127 21.0405 41.7049C19.7892 40.2971 17.8252 39.3778 15.5775 39.3778C13.3297 39.3778 11.3658 40.2971 10.1144 41.7049C8.86306 43.1127 8.28865 44.9049 8.28865 46.6667C8.28865 48.4285 8.86306 50.2206 10.1144 51.6284C11.3658 53.0362 13.3297 53.9555 15.5775 53.9555C17.574 53.9555 19.2656 53.1562 20.5136 52.0072L28.9588 56.8323C28.8614 57.3333 28.7025 57.8275 28.7025 58.3333C28.7025 60.0955 29.2795 61.887 30.5311 63.2951C31.7827 64.7031 33.7459 65.625 35.9941 65.625C38.2424 65.625 40.2056 64.7031 41.4572 63.2951C42.7088 61.887 43.2858 60.0955 43.2858 58.3333C43.2858 57.8275 43.1269 57.3333 43.0295 56.8323L51.4747 52.0072C52.7227 53.1562 54.4143 53.9555 56.4108 53.9555C58.6586 53.9555 60.6225 53.0362 61.8739 51.6284C63.1252 50.2206 63.6996 48.4285 63.6996 46.6667C63.6996 44.9049 63.1252 43.1127 61.8739 41.7049C60.6225 40.2971 58.6586 39.3778 56.4108 39.3778C54.163 39.3778 52.1991 40.2971 50.9477 41.7049C49.6964 43.1127 49.122 44.9049 49.122 46.6667C49.122 47.1713 49.2785 47.665 49.3755 48.1649L40.9303 52.9928C40.1771 52.2994 39.2505 51.8107 38.1816 51.4917V41.8416C39.4734 41.4561 40.6465 40.8737 41.4572 39.9618C42.7088 38.5537 43.2858 36.7622 43.2858 35C43.2858 34.4941 43.1269 34 43.0295 33.4989L51.4747 28.6739C52.7227 29.8228 54.4143 30.6222 56.4108 30.6222C58.6586 30.6222 60.6225 29.7029 61.8739 28.2951C63.1252 26.8873 63.6996 25.0951 63.6996 23.3333C63.6996 21.5715 63.1252 19.7794 61.8739 18.3716C60.6225 16.9638 58.6586 16.0445 56.4108 16.0445C54.163 16.0445 52.1991 16.9638 50.9477 18.3716C49.6964 19.7794 49.122 21.5715 49.122 23.3333C49.122 23.838 49.2785 24.3317 49.3755 24.8315L40.9303 29.6594C39.682 28.5103 37.9911 27.7083 35.9941 27.7083C33.9972 27.7083 32.3063 28.5103 31.058 29.6594L22.6128 24.8315C22.7098 24.3317 22.8663 23.838 22.8663 23.3333C22.8663 22.8287 22.7098 22.335 22.6128 21.8351L31.058 17.0072C32.3063 18.1564 33.9972 18.9583 35.9941 18.9583C38.2424 18.9583 40.2056 18.0365 41.4572 16.6284C42.7088 15.2204 43.2858 13.4288 43.2858 11.6667C43.2858 9.90451 42.7088 8.11297 41.4572 6.70492C40.2056 5.29686 38.2424 4.375 35.9941 4.375ZM35.9941 8.75C37.1486 8.75 37.7375 9.10418 38.1873 9.61019C38.6371 10.1162 38.9108 10.8767 38.9108 11.6667C38.9108 12.4566 38.6371 13.2171 38.1873 13.7231C37.7375 14.2292 37.1486 14.5833 35.9941 14.5833C34.8396 14.5833 34.2507 14.2292 33.8009 13.7231C33.3512 13.2171 33.0775 12.4566 33.0775 11.6667C33.0775 10.8767 33.3512 10.1162 33.8009 9.61019C34.2507 9.10418 34.8396 8.75 35.9941 8.75ZM15.5775 20.4195C16.7315 20.4195 17.3211 20.774 17.7707 21.2797C18.2202 21.7854 18.4913 22.5438 18.4913 23.3333C18.4913 24.1229 18.2202 24.8812 17.7707 25.387C17.3211 25.8927 16.7315 26.2472 15.5775 26.2472C14.4234 26.2472 13.8338 25.8927 13.3843 25.387C12.9347 24.8812 12.6637 24.1229 12.6637 23.3333C12.6637 22.5438 12.9347 21.7854 13.3843 21.2797C13.8338 20.774 14.4234 20.4195 15.5775 20.4195ZM56.4108 20.4195C57.5648 20.4195 58.1545 20.774 58.604 21.2797C59.0535 21.7854 59.3246 22.5438 59.3246 23.3333C59.3246 24.1229 59.0535 24.8812 58.604 25.387C58.1545 25.8927 57.5648 26.2472 56.4108 26.2472C55.2568 26.2472 54.6671 25.8927 54.2176 25.387C53.7681 24.8812 53.497 24.1229 53.497 23.3333C53.497 22.5438 53.7681 21.7854 54.2176 21.2797C54.6671 20.774 55.2568 20.4195 56.4108 20.4195ZM35.9941 32.0833C37.1486 32.0833 37.7375 32.4375 38.1873 32.9435C38.6371 33.4495 38.9108 34.2101 38.9108 35C38.9108 35.7899 38.6371 36.5505 38.1873 37.0565C37.7375 37.5625 37.1486 37.9167 35.9941 37.9167C34.8396 37.9167 34.2507 37.5625 33.8009 37.0565C33.3512 36.5505 33.0775 35.7899 33.0775 35C33.0775 34.2101 33.3512 33.4495 33.8009 32.9435C34.2507 32.4375 34.8396 32.0833 35.9941 32.0833ZM15.5775 43.7528C16.7315 43.7528 17.3211 44.1073 17.7707 44.613C18.2202 45.1188 18.4913 45.8771 18.4913 46.6667C18.4913 47.4562 18.2202 48.2146 17.7707 48.7203C17.3211 49.226 16.7315 49.5805 15.5775 49.5805C14.4234 49.5805 13.8338 49.226 13.3843 48.7203C12.9347 48.2146 12.6637 47.4562 12.6637 46.6667C12.6637 45.8771 12.9347 45.1188 13.3843 44.613C13.8338 44.1073 14.4234 43.7528 15.5775 43.7528ZM56.4108 43.7528C57.5648 43.7528 58.1545 44.1073 58.604 44.613C59.0535 45.1188 59.3246 45.8771 59.3246 46.6667C59.3246 47.4562 59.0535 48.2146 58.604 48.7203C58.1545 49.226 57.5648 49.5805 56.4108 49.5805C55.2568 49.5805 54.6671 49.226 54.2176 48.7203C53.7681 48.2146 53.497 47.4562 53.497 46.6667C53.497 45.8771 53.7681 45.1188 54.2176 44.613C54.6671 44.1073 55.2568 43.7528 56.4108 43.7528ZM35.9941 55.4167C37.1486 55.4167 37.7375 55.7708 38.1873 56.2769C38.6371 56.7829 38.9108 57.5434 38.9108 58.3333C38.9108 59.1233 38.6371 59.8838 38.1873 60.3898C37.7375 60.8958 37.1486 61.25 35.9941 61.25C34.8396 61.25 34.2507 60.8958 33.8009 60.3898C33.3512 59.8838 33.0775 59.1233 33.0775 58.3333C33.0775 57.5434 33.3512 56.7829 33.8009 56.2769C34.2507 55.7708 34.8396 55.4167 35.9941 55.4167Z" fill="white"/>
</svg>
