<svg width="70" height="70" viewBox="0 0 70 70" fill="none" xmlns="http://www.w3.org/2000/svg">
<path d="M2.91667 0C2.14314 7.73408e-05 1.40132 0.307393 0.854357 0.854357C0.307393 1.40132 7.73408e-05 2.14314 0 2.91667V67.0833C7.73408e-05 67.8569 0.307393 68.5987 0.854357 69.1456C1.40132 69.6926 2.14314 69.9999 2.91667 70H32.0833C32.8569 69.9999 33.5987 69.6926 34.1456 69.1456C34.6926 68.5987 34.9999 67.8569 35 67.0833V49.196L46.6667 56.9775V67.0833C46.6667 67.8569 46.9741 68.5987 47.521 69.1456C48.068 69.6926 48.8098 69.9999 49.5833 70H67.0833C67.8569 69.9999 68.5987 69.6926 69.1456 69.1456C69.6926 68.5987 69.9999 67.8569 70 67.0833V49.5833C69.9999 48.8098 69.6926 48.068 69.1456 47.521C68.5987 46.9741 67.8569 46.6667 67.0833 46.6667H49.5833C48.8098 46.6667 48.068 46.9741 47.521 47.521C46.9741 48.068 46.6667 48.8098 46.6667 49.5833V49.9707L35 42.1891V33.291L46.849 21.4421C47.0579 21.9983 47.4317 22.4774 47.9203 22.8154C48.409 23.1534 48.9892 23.3341 49.5833 23.3333H67.0833C67.8569 23.3333 68.5987 23.0259 69.1456 22.479C69.6926 21.932 69.9999 21.1902 70 20.4167V2.91667C69.9999 2.14314 69.6926 1.40132 69.1456 0.854357C68.5987 0.307393 67.8569 7.73408e-05 67.0833 0H49.5833C48.8098 7.73408e-05 48.068 0.307393 47.521 0.854357C46.9741 1.40132 46.6667 2.14314 46.6667 2.91667V13.3757L35 25.0423V23.3333V2.91667C34.9999 2.14314 34.6926 1.40132 34.1456 0.854357C33.5987 0.307393 32.8569 7.73408e-05 32.0833 0H2.91667ZM5.83333 5.83333H29.1667V11.6667H5.83333V5.83333ZM52.5 5.83333H64.1667V17.5H52.5V5.83333ZM5.83333 17.5H29.1667V23.3333H5.83333V17.5ZM5.83333 29.1667H29.1667V64.1667H5.83333V29.1667ZM17.5 46.6667C15.7986 46.6667 14.1571 47.4097 13.1364 48.5579C12.1157 49.7062 11.6667 51.1227 11.6667 52.5C11.6667 53.8773 12.1157 55.2938 13.1364 56.4421C14.1571 57.5903 15.7986 58.3333 17.5 58.3333C19.2014 58.3333 20.843 57.5903 21.8636 56.4421C22.8843 55.2938 23.3333 53.8773 23.3333 52.5C23.3333 51.1227 22.8843 49.7062 21.8636 48.5579C20.843 47.4097 19.2014 46.6667 17.5 46.6667ZM52.5 52.5H64.1667V64.1667H52.5V52.5Z" fill="#FBFBFB" fill-opacity="0.8"/>
</svg>
