<svg xmlns="http://www.w3.org/2000/svg" fill="none" width="76" height="78" viewBox="0 0 76 78"><path d="M6.333 0C2.841 0 0 2.822 0 6.29c0 3.469 2.841 6.29 6.333 6.29 1.586 0 3.02-.602 4.132-1.562l11.724 8.892c-.23.467-.42.953-.527 1.475h-9.124c-.589-2.866-3.147-5.03-6.205-5.03-3.492 0-6.333 2.822-6.333 6.29 0 3.469 2.841 6.29 6.333 6.29 1.586 0 3.02-.602 4.132-1.562l4.547 3.45-4.547 3.45c-1.112-.96-2.546-1.563-4.132-1.563C2.841 32.71 0 35.532 0 39s2.841 6.29 6.333 6.29c1.586 0 3.02-.602 4.132-1.562l4.547 3.45-4.547 3.45c-1.112-.96-2.546-1.563-4.132-1.563-3.492 0-6.333 2.821-6.333 6.29 0 3.468 2.841 6.29 6.333 6.29a6.334 6.334 0 0 0 6.205-5.032h9.124c.108.522.298 1.01.527 1.477l-11.724 8.89c-1.112-.959-2.546-1.56-4.132-1.56C2.841 65.42 0 68.24 0 71.71 0 75.178 2.841 78 6.333 78c3.493 0 6.334-2.822 6.334-6.29 0-.984-.248-1.905-.656-2.735l11.724-8.89c1.112.959 2.546 1.56 4.132 1.56a6.334 6.334 0 0 0 6.204-5.032h6.462v2.516c0 2.08 1.705 3.774 3.8 3.774 2.095 0 3.8-1.693 3.8-3.774h2.01L64.97 73.857c.237.237.56.369.896.369h2.766a3.794 3.794 0 0 0 3.567 2.516c2.095 0 3.8-1.693 3.8-3.774s-1.705-3.774-3.8-3.774a3.794 3.794 0 0 0-3.567 2.516H66.39L51.562 56.982a1.268 1.268 0 0 0-.895-.37h-2.534V52.84h5.81l9.761 9.696c.237.236.56.368.896.368h4.033A3.794 3.794 0 0 0 72.2 65.42c2.095 0 3.8-1.693 3.8-3.774 0-2.08-1.705-3.774-3.8-3.774a3.794 3.794 0 0 0-3.567 2.516h-3.508l-9.763-9.696a1.267 1.267 0 0 0-.895-.368h-6.334v-3.775H59.01l4.695 4.664c.237.237.56.369.896.369h4.033a3.794 3.794 0 0 0 3.567 2.516c2.095 0 3.8-1.694 3.8-3.774 0-2.081-1.705-3.775-3.8-3.775a3.794 3.794 0 0 0-3.567 2.517h-3.508L60.428 44.4a1.268 1.268 0 0 0-.896-.369h-11.4v-3.774h20.5a3.794 3.794 0 0 0 3.567 2.516c2.095 0 3.8-1.693 3.8-3.774 0-2.08-1.705-3.774-3.8-3.774a3.794 3.794 0 0 0-3.567 2.516h-20.5v-3.774h11.4c.336 0 .659-.132.896-.369l4.695-4.663h3.509a3.794 3.794 0 0 0 3.567 2.516c2.095 0 3.8-1.694 3.8-3.775 0-2.08-1.705-3.774-3.8-3.774a3.794 3.794 0 0 0-3.567 2.516H64.6c-.336 0-.659.132-.896.369l-4.695 4.664H48.133v-3.775h6.334c.335 0 .658-.132.895-.368l9.762-9.696h3.509a3.794 3.794 0 0 0 3.567 2.516c2.095 0 3.8-1.693 3.8-3.774s-1.705-3.774-3.8-3.774a3.794 3.794 0 0 0-3.567 2.516H64.6a1.27 1.27 0 0 0-.896.368l-9.762 9.696h-5.809v-3.774h2.534c.335 0 .658-.132.895-.369L66.392 6.29h2.24A3.794 3.794 0 0 0 72.2 8.806c2.095 0 3.8-1.693 3.8-3.774 0-2.08-1.705-3.774-3.8-3.774a3.794 3.794 0 0 0-3.567 2.516h-2.766c-.336 0-.659.132-.896.369L50.142 18.87h-2.009v-1.258c0-2.08-1.705-3.774-3.8-3.774-2.095 0-3.8 1.693-3.8 3.774v3.774h-6.462a6.333 6.333 0 0 0-6.204-5.032c-1.586 0-3.02.603-4.132 1.563L12.011 9.025a6.182 6.182 0 0 0 .656-2.735C12.667 2.822 9.826 0 6.333 0zm0 2.516c2.095 0 3.8 1.693 3.8 3.774s-1.705 3.775-3.8 3.775c-2.095 0-3.8-1.694-3.8-3.775 0-2.08 1.705-3.774 3.8-3.774zM72.2 3.774c.698 0 1.267.564 1.267 1.258 0 .695-.57 1.258-1.267 1.258a1.264 1.264 0 0 1-1.267-1.258c0-.694.57-1.258 1.267-1.258zm0 11.323c.698 0 1.267.563 1.267 1.258 0 .694-.57 1.258-1.267 1.258a1.264 1.264 0 0 1-1.267-1.258c0-.695.57-1.258 1.267-1.258zm-27.867 1.258c.698 0 1.267.564 1.267 1.258v41.516c0 .695-.569 1.258-1.267 1.258a1.264 1.264 0 0 1-1.266-1.258V17.613c0-.694.568-1.258 1.266-1.258zm-38 2.516c2.095 0 3.8 1.693 3.8 3.774s-1.705 3.774-3.8 3.774c-2.095 0-3.8-1.693-3.8-3.774 0-2.08 1.705-3.774 3.8-3.774zm21.534 0c2.095 0 3.8 1.693 3.8 3.774s-1.705 3.774-3.8 3.774c-2.095 0-3.8-1.693-3.8-3.774 0-2.08 1.705-3.774 3.8-3.774zm-15.329 5.032h9.124c.108.522.298 1.01.527 1.477L17.1 29.24l-5.089-3.86c.23-.467.42-.955.527-1.477zm21.533 0h6.462v13.839h-6.462a6.333 6.333 0 0 0-6.204-5.032c-1.586 0-3.02.602-4.132 1.562l-4.547-3.45 4.547-3.45c1.112.96 2.546 1.564 4.132 1.564a6.334 6.334 0 0 0 6.204-5.033zM72.2 26.42c.698 0 1.267.564 1.267 1.258 0 .695-.57 1.259-1.267 1.259a1.264 1.264 0 0 1-1.267-1.259c0-.694.57-1.258 1.267-1.258zm-36.733 1.258v2.517H38v-2.517h-2.533zM17.1 32.407l5.089 3.858a6.18 6.18 0 0 0-.527 1.477h-9.124a6.18 6.18 0 0 0-.527-1.477l5.089-3.858zm18.367.303v2.516H38V32.71h-2.533zM6.333 35.226c2.095 0 3.8 1.693 3.8 3.774 0 2.08-1.705 3.774-3.8 3.774-2.095 0-3.8-1.693-3.8-3.774 0-2.08 1.705-3.774 3.8-3.774zm21.534 0c2.095 0 3.8 1.693 3.8 3.774 0 2.08-1.705 3.774-3.8 3.774-2.095 0-3.8-1.693-3.8-3.774 0-2.08 1.705-3.774 3.8-3.774zM72.2 37.742c.698 0 1.267.564 1.267 1.258 0 .694-.57 1.258-1.267 1.258A1.264 1.264 0 0 1 70.933 39c0-.694.57-1.258 1.267-1.258zm-59.662 2.516h9.124a6.18 6.18 0 0 0 .527 1.477l-5.089 3.86-5.089-3.86c.23-.467.42-.955.527-1.477zm21.533 0h6.462v13.839h-6.462a6.333 6.333 0 0 0-6.204-5.032c-1.586 0-3.02.602-4.132 1.562l-4.547-3.45 4.547-3.45c1.112.96 2.546 1.563 4.132 1.563a6.334 6.334 0 0 0 6.204-5.032zm1.396 2.516v2.516H38v-2.516h-2.533zm0 5.032v2.517H38v-2.517h-2.533zm-18.367.956 5.089 3.858c-.23.467-.42.955-.527 1.477h-9.124a6.181 6.181 0 0 0-.527-1.477l5.089-3.858zm55.1.303c.698 0 1.267.563 1.267 1.258 0 .694-.57 1.258-1.267 1.258a1.264 1.264 0 0 1-1.267-1.258c0-.695.57-1.258 1.267-1.258zM6.333 51.58c2.095 0 3.8 1.693 3.8 3.774 0 2.08-1.705 3.774-3.8 3.774-2.095 0-3.8-1.693-3.8-3.774s1.705-3.774 3.8-3.774zm21.534 0c2.095 0 3.8 1.693 3.8 3.774 0 2.08-1.705 3.774-3.8 3.774-2.095 0-3.8-1.693-3.8-3.774s1.705-3.774 3.8-3.774zM72.2 60.387c.698 0 1.267.564 1.267 1.258 0 .695-.57 1.258-1.267 1.258a1.264 1.264 0 0 1-1.267-1.258c0-.694.57-1.258 1.267-1.258zM6.333 67.936c2.095 0 3.8 1.693 3.8 3.774 0 2.08-1.705 3.774-3.8 3.774-2.095 0-3.8-1.694-3.8-3.774 0-2.081 1.705-3.774 3.8-3.774zM72.2 71.71c.698 0 1.267.563 1.267 1.258 0 .694-.57 1.258-1.267 1.258a1.264 1.264 0 0 1-1.267-1.258c0-.695.57-1.258 1.267-1.258z" fill="#FBFBFB" fill-opacity=".8"/></svg>