<svg xmlns="http://www.w3.org/2000/svg" fill="none" width="87" height="75" viewBox="0 0 87 75"><path d="M70.688 0c-2.999 0-5.438 2.462-5.438 5.488 0 3.026 2.44 5.488 5.438 5.488 2.998 0 5.437-2.462 5.437-5.488 0-3.026-2.44-5.488-5.438-5.488zM5.438 3.659a1.82 1.82 0 0 0-1.813 1.829V25.61H1.812A1.82 1.82 0 0 0 0 27.439c0 4.035 3.252 7.317 7.25 7.317h29c3.998 0 7.25-3.282 7.25-7.317a1.82 1.82 0 0 0-1.813-1.83h-1.812V5.489a1.82 1.82 0 0 0-1.813-1.83H5.438zm65.25 0c.999 0 1.812.82 1.812 1.829 0 1.008-.813 1.83-1.813 1.83a1.824 1.824 0 0 1-1.812-1.83c0-1.009.813-1.83 1.813-1.83zM7.25 7.317h29V25.61h-29V7.317zm16.322 3.659a1.793 1.793 0 0 0-1.015.307L17.12 14.94a1.84 1.84 0 0 0-.503 2.537 1.802 1.802 0 0 0 2.513.507l5.438-3.658a1.84 1.84 0 0 0 .503-2.537 1.806 1.806 0 0 0-1.499-.814zm21.74 0a1.82 1.82 0 0 0-1.803 1.65c-.1 1.002.73 2.008 1.803 2.008h.209c1 0 1.812-.819 1.812-1.83a1.82 1.82 0 0 0-1.812-1.828h-.209zm6.042 0c-1 0-1.813.821-1.813 1.829s.814 1.83 1.813 1.83h.208c1 0 1.812-.822 1.812-1.83s-.812-1.83-1.812-1.83h-.208zm6.042 0c-1 0-1.812.821-1.812 1.829s.812 1.83 1.812 1.83h.207c1 0 1.813-.822 1.813-1.83s-.812-1.83-1.813-1.83h-.207zm6.041 0a1.82 1.82 0 0 0-1.803 1.65c-.013.133-.008.214-.009.356a1.82 1.82 0 0 0 1.813 1.829c1 0 1.812-.82 1.812-1.83-.001-.14.004-.222-.01-.356a1.82 1.82 0 0 0-1.802-1.65zm0 5.122c-.998 0-1.812.82-1.812 1.829v.176c0 1.01.814 1.829 1.813 1.829.998 0 1.812-.82 1.812-1.83v-.175c0-1.008-.814-1.83-1.813-1.83zm-42.584 2.195a1.792 1.792 0 0 0-1.015.307l-2.718 1.83a1.84 1.84 0 0 0-.503 2.536 1.802 1.802 0 0 0 2.513.507l2.72-1.829a1.84 1.84 0 0 0 .502-2.537 1.805 1.805 0 0 0-1.499-.814zm57.99 1.829c-3.497 0-6.343 2.872-6.343 6.402 0 3.53 2.846 6.403 6.344 6.403s6.344-2.872 6.344-6.403c0-3.53-2.846-6.402-6.344-6.402zM63.438 21.22c-.998 0-1.812.82-1.812 1.829v.176c0 1.01.814 1.829 1.813 1.829.998 0 1.812-.82 1.812-1.83v-.175c0-1.008-.814-1.83-1.813-1.83zm15.407 2.56c1.499 0 2.719 1.231 2.719 2.744 0 1.513-1.22 2.744-2.72 2.744-1.498 0-2.718-1.23-2.718-2.744 0-1.513 1.22-2.744 2.719-2.744zm-15.406 2.561c-1 0-1.813.822-1.813 1.83v.177c0 1.008.814 1.828 1.813 1.828.998 0 1.812-.82 1.812-1.828v-.177c0-1.008-.814-1.83-1.813-1.83zM4.11 29.268h35.28a3.621 3.621 0 0 1-3.139 1.83h-29c-1.34 0-2.51-.737-3.139-1.83zm59.327 2.195c-1 0-1.813.822-1.813 1.83v.177c0 1.008.814 1.83 1.813 1.83.998 0 1.812-.822 1.812-1.83v-.177c0-1.008-.814-1.83-1.813-1.83zm0 5.122a1.82 1.82 0 0 0-1.282.536 1.843 1.843 0 0 0 0 2.587c.337.34.805.536 1.282.536.998 0 1.812-.821 1.812-1.83a1.824 1.824 0 0 0-1.813-1.829zm-43.5 3.66c-.464 0-.929.178-1.282.535-.337.34-.531.812-.531 1.293 0 1.008.813 1.83 1.813 1.83.476 0 .944-.196 1.281-.537.703-.71.71-1.869 0-2.586a1.798 1.798 0 0 0-1.282-.535zm29 3.657c-1.001 0-1.813.82-1.813 1.83v20.122h-1.813c-1 0-1.812.819-1.812 1.829 0 4.035 3.252 7.317 7.25 7.317h29c3.998 0 7.25-3.282 7.25-7.317 0-1.01-.812-1.83-1.813-1.83h-1.812v-20.12c0-1.01-.812-1.83-1.813-1.83H48.938zm-29 1.286c-1 0-1.813.821-1.813 1.83v.177c0 1.008.814 1.83 1.813 1.83.998 0 1.812-.822 1.812-1.83v-.177c0-1.008-.814-1.83-1.813-1.83zm30.812 2.373h29v18.293h-29V47.56zm-30.813 2.751c-.998 0-1.812.82-1.812 1.828v.177c0 1.008.814 1.83 1.813 1.83.998 0 1.812-.822 1.812-1.83v-.178a1.822 1.822 0 0 0-1.813-1.827zm47.135.907a1.793 1.793 0 0 0-1.015.308l-5.437 3.658a1.84 1.84 0 0 0-.503 2.537 1.802 1.802 0 0 0 2.513.507l5.438-3.658a1.84 1.84 0 0 0 .503-2.537 1.806 1.806 0 0 0-1.499-.815zm-47.135 4.213c-.998 0-1.812.821-1.812 1.83v.177c0 1.008.814 1.83 1.813 1.83.998 0 1.812-.822 1.812-1.83v-.178a1.824 1.824 0 0 0-1.813-1.829zm44.416 3.105a1.793 1.793 0 0 0-1.015.307l-2.718 1.83a1.84 1.84 0 0 0-.503 2.536 1.802 1.802 0 0 0 2.513.507l2.72-1.83a1.84 1.84 0 0 0 .502-2.536 1.805 1.805 0 0 0-1.499-.814zm-44.415 2.017c-1 0-1.813.821-1.813 1.83v.177c0 1.008.814 1.83 1.813 1.83.998 0 1.812-.822 1.812-1.83v-.178a1.824 1.824 0 0 0-1.813-1.829zm-10.875 3.47c-2.999 0-5.438 2.462-5.438 5.488 0 3.026 2.44 5.488 5.438 5.488 2.998 0 5.437-2.462 5.437-5.488 0-3.026-2.44-5.488-5.438-5.488zm10.874 1.653c-1 0-1.812.819-1.812 1.83.002.14-.004.222.01.356.09.93.866 1.65 1.802 1.65a1.82 1.82 0 0 0 1.804-1.65c.013-.134.008-.215.009-.357 0-1.01-.811-1.83-1.813-1.83zm5.833.177c-.999 0-1.812.821-1.812 1.829s.813 1.83 1.812 1.83h.209c1 0 1.812-.822 1.812-1.83s-.812-1.83-1.812-1.83h-.209zm6.043 0c-1 0-1.813.821-1.813 1.829s.812 1.83 1.813 1.83h.208c1 0 1.813-.822 1.813-1.83s-.814-1.83-1.813-1.83h-.208zm6.041 0c-1.001 0-1.813.819-1.813 1.829s.812 1.83 1.813 1.83h.209a1.821 1.821 0 0 0 1.812-1.83c0-.06-.712-1.73-1.634-1.82-.135-.014-.215-.008-.387-.01zm-28.79 1.829c.999 0 1.812.82 1.812 1.83a1.822 1.822 0 0 1-1.813 1.828c-.999 0-1.812-.82-1.812-1.829 0-1.008.813-1.83 1.813-1.83zm38.548 1.83H82.89a3.622 3.622 0 0 1-3.139 1.828h-29c-1.34 0-2.51-.736-3.139-1.829z" fill="#FBFBFB" fill-opacity=".8"/></svg>