<svg xmlns="http://www.w3.org/2000/svg" fill="none" width="64" height="64" viewBox="0 0 64 64"><path d="M32 2.56c-3.08 0-5.68 2.21-6.28 5.12H15.36c-4.225 0-7.68 3.455-7.68 7.68v11.52H3.6a1.28 1.28 0 0 0-1.04 1.28v7.68c0 .705.575 1.28 1.28 1.28h3.84v11.52c0 4.225 3.455 7.68 7.68 7.68h10.36c.6 2.91 3.2 5.12 6.28 5.12s5.68-2.21 6.28-5.12h10.36c4.225 0 7.68-3.455 7.68-7.68V37.12h3.84c.705 0 1.28-.575 1.28-1.28v-7.68c0-.705-.575-1.28-1.28-1.28h-3.84V15.36c0-4.225-3.455-7.68-7.68-7.68H38.28c-.6-2.91-3.2-5.12-6.28-5.12zm0 2.56a3.822 3.822 0 0 1 3.84 3.84A3.822 3.822 0 0 1 32 12.8a3.822 3.822 0 0 1-3.84-3.84A3.822 3.822 0 0 1 32 5.12zm-16.64 5.12h10.36a6.477 6.477 0 0 0 5 5v11.64h-4.08a1.28 1.28 0 0 0-1.04 1.28v7.68c0 .705.575 1.28 1.28 1.28h3.84v11.64a6.477 6.477 0 0 0-5 5H15.36c-2.84 0-5.12-2.28-5.12-5.12V37.12h3.84c.705 0 1.28-.575 1.28-1.28v-7.68c0-.705-.575-1.28-1.28-1.28h-3.84V15.36c0-2.84 2.28-5.12 5.12-5.12zm22.92 0h10.36c2.84 0 5.12 2.28 5.12 5.12v11.52h-4.08a1.28 1.28 0 0 0-1.04 1.28v7.68c0 .705.575 1.28 1.28 1.28h3.84v11.52c0 2.84-2.28 5.12-5.12 5.12H38.28a6.477 6.477 0 0 0-5-5V37.12h3.84c.705 0 1.28-.575 1.28-1.28v-7.68c0-.705-.575-1.28-1.28-1.28h-3.84V15.24a6.477 6.477 0 0 0 5-5zM5.12 29.44h7.68v5.12H5.12v-5.12zm23.04 0h7.68v5.12h-7.68v-5.12zm23.04 0h7.68v5.12H51.2v-5.12zM32 51.2a3.822 3.822 0 0 1 3.84 3.84A3.822 3.822 0 0 1 32 58.88a3.822 3.822 0 0 1-3.84-3.84A3.822 3.822 0 0 1 32 51.2z" fill="#fff"/></svg>