<svg width="60" height="60" viewBox="0 0 60 60" fill="none" xmlns="http://www.w3.org/2000/svg">
<path d="M30 0.55957C26.92 0.55957 24.32 2.76957 23.72 5.67957H13.36C9.135 5.67957 5.68 9.13457 5.68 13.3596V24.8796H1.84C1.8 24.8796 1.76 24.8796 1.72 24.8796C1.68 24.8796 1.64 24.8796 1.6 24.8796C0.989997 24.9946 0.549997 25.5346 0.559997 26.1596V33.8396C0.559997 34.5446 1.135 35.1196 1.84 35.1196H5.68V46.6396C5.68 50.8646 9.135 54.3196 13.36 54.3196H23.72C24.32 57.2296 26.92 59.4396 30 59.4396C33.08 59.4396 35.68 57.2296 36.28 54.3196H46.64C50.865 54.3196 54.32 50.8646 54.32 46.6396V35.1196H58.16C58.865 35.1196 59.44 34.5446 59.44 33.8396V26.1596C59.44 25.4546 58.865 24.8796 58.16 24.8796H54.32V13.3596C54.32 9.13457 50.865 5.67957 46.64 5.67957H36.28C35.68 2.76957 33.08 0.55957 30 0.55957ZM30 3.11957C32.135 3.11957 33.84 4.82457 33.84 6.95957C33.84 9.09457 32.135 10.7996 30 10.7996C27.865 10.7996 26.16 9.09457 26.16 6.95957C26.16 4.82457 27.865 3.11957 30 3.11957ZM13.36 8.23957H23.72C24.235 10.7346 26.225 12.7246 28.72 13.2396V24.8796H24.88C24.84 24.8796 24.8 24.8796 24.76 24.8796C24.72 24.8796 24.68 24.8796 24.64 24.8796C24.03 24.9946 23.59 25.5346 23.6 26.1596V33.8396C23.6 34.5446 24.175 35.1196 24.88 35.1196H28.72V46.7596C26.225 47.2746 24.235 49.2646 23.72 51.7596H13.36C10.52 51.7596 8.24 49.4796 8.24 46.6396V35.1196H12.08C12.785 35.1196 13.36 34.5446 13.36 33.8396V26.1596C13.36 25.4546 12.785 24.8796 12.08 24.8796H8.24V13.3596C8.24 10.5196 10.52 8.23957 13.36 8.23957ZM36.28 8.23957H46.64C49.48 8.23957 51.76 10.5196 51.76 13.3596V24.8796H47.92C47.88 24.8796 47.84 24.8796 47.8 24.8796C47.76 24.8796 47.72 24.8796 47.68 24.8796C47.07 24.9946 46.63 25.5346 46.64 26.1596V33.8396C46.64 34.5446 47.215 35.1196 47.92 35.1196H51.76V46.6396C51.76 49.4796 49.48 51.7596 46.64 51.7596H36.28C35.765 49.2646 33.775 47.2746 31.28 46.7596V35.1196H35.12C35.825 35.1196 36.4 34.5446 36.4 33.8396V26.1596C36.4 25.4546 35.825 24.8796 35.12 24.8796H31.28V13.2396C33.775 12.7246 35.765 10.7346 36.28 8.23957ZM3.12 27.4396H10.8V32.5596H3.12V27.4396ZM26.16 27.4396H33.84V32.5596H26.16V27.4396ZM49.2 27.4396H56.88V32.5596H49.2V27.4396ZM30 49.1996C32.135 49.1996 33.84 50.9046 33.84 53.0396C33.84 55.1746 32.135 56.8796 30 56.8796C27.865 56.8796 26.16 55.1746 26.16 53.0396C26.16 50.9046 27.865 49.1996 30 49.1996Z" fill="white"/>
</svg>
