<svg xmlns="http://www.w3.org/2000/svg" fill="none" width="81" height="56" viewBox="0 0 81 56"><path d="M80.546 5.961A5.967 5.967 0 0 0 74.586 0H5.96A5.967 5.967 0 0 0 0 5.961v11.372a5.94 5.94 0 0 0 1.697 4.158A5.94 5.94 0 0 0 0 25.648v11.375a5.976 5.976 0 0 0 4.157 5.681v5.224a1.803 1.803 0 0 0 1.803 1.804h4.16v4.38a1.803 1.803 0 0 0 1.804 1.802h6.183a1.802 1.802 0 0 0 1.803-1.803V49.73h40.726v4.379a1.803 1.803 0 0 0 1.803 1.803h6.183a1.802 1.802 0 0 0 1.803-1.803v-4.38h4.162a1.803 1.803 0 0 0 1.803-1.803v-5.224a5.976 5.976 0 0 0 4.157-5.68V25.647a5.94 5.94 0 0 0-1.697-4.157 5.94 5.94 0 0 0 1.697-4.158L80.546 5.96zm-76.938 0A2.357 2.357 0 0 1 5.96 3.607h68.627A2.357 2.357 0 0 1 76.94 5.96v11.372a2.357 2.357 0 0 1-2.353 2.355H5.96a2.357 2.357 0 0 1-2.353-2.355V5.96zm12.697 46.344h-2.576v-2.576h2.576v2.576zm50.513 0h-2.576v-2.576h2.576v2.576zM7.764 46.122v-3.14h65.02v3.14H7.765zm69.175-9.099a2.356 2.356 0 0 1-2.352 2.352H5.96a2.356 2.356 0 0 1-2.352-2.352V25.648a2.357 2.357 0 0 1 2.352-2.354h68.627a2.357 2.357 0 0 1 2.353 2.354v11.375z" fill="#fff"/><path d="M17.733 16.348a4.702 4.702 0 1 0 0-9.403 4.702 4.702 0 0 0 0 9.403zm0-5.796a1.095 1.095 0 1 1 0 2.19 1.095 1.095 0 0 1 0-2.19zm10.883 2.898H65.71a1.803 1.803 0 1 0 0-3.606H28.616a1.803 1.803 0 1 0 0 3.606zM17.734 26.634a4.702 4.702 0 1 0-.002 9.403 4.702 4.702 0 0 0 .002-9.403zm0 5.796a1.096 1.096 0 1 1-.002-2.192 1.096 1.096 0 0 1 .002 2.192zm47.977-2.899H28.616a1.803 1.803 0 0 0 0 3.607H65.71a1.803 1.803 0 1 0 0-3.607z" fill="#fff"/></svg>