<svg width="16" height="16" viewBox="0 0 16 16" fill="none" xmlns="http://www.w3.org/2000/svg">
<path d="M4.91617 8.18778H3.71013C2.66856 8.19036 1.82484 9.03408 1.82227 10.0756V10.6802C1.82227 10.7944 1.91483 10.887 2.02899 10.887H6.59652C6.5973 10.887 6.59808 10.887 6.59886 10.887C6.71303 10.8861 6.80489 10.7928 6.80403 10.6787V10.0756C6.80146 9.03408 5.95773 8.19036 4.91617 8.18778ZM6.39057 10.4719H2.23572V10.0756C2.23997 9.26312 2.8976 8.60549 3.71013 8.60124H4.91617C5.72869 8.60549 6.38632 9.26312 6.39057 10.0756V10.4719Z" fill="#2E3034" fill-opacity="0.8"/>
<path d="M13.975 10.0393H8.43621C8.33202 10.0457 8.24898 10.1288 8.24259 10.2329C8.23556 10.3469 8.32227 10.445 8.43621 10.452H13.975C14.0792 10.4456 14.1622 10.3625 14.1686 10.2584C14.1756 10.1444 14.089 10.0463 13.975 10.0393Z" fill="#2E3034" fill-opacity="0.8"/>
<path d="M5.28336 7.50423L5.29585 7.49252C5.296 7.49237 5.29616 7.49221 5.29635 7.49202C5.84001 6.94809 5.83981 6.06641 5.29585 5.52276C5.03514 5.26095 4.68085 5.11383 4.31135 5.11398C3.94759 5.11383 3.5983 5.25639 3.33856 5.51106L3.32608 5.52276C3.32592 5.52291 3.32577 5.52307 3.32557 5.52327C2.78192 6.06719 2.78211 6.94887 3.32608 7.49252C3.86494 8.03247 4.73811 8.0377 5.28336 7.50423ZM3.62018 5.81608L3.63032 5.80594C4.01484 5.43523 4.62511 5.43972 5.00409 5.81608L5.00643 5.8153C5.38903 6.19817 5.38903 6.81867 5.00643 7.20154L4.99629 7.21169C4.61169 7.58415 3.99966 7.57997 3.62018 7.20232C3.23758 6.81945 3.23758 6.19895 3.62018 5.81608Z" fill="#2E3034" fill-opacity="0.8"/>
<path d="M14.6231 2.23824H1.37689C0.617338 2.24039 0.00214529 2.85558 0 3.61513V12.3851C0.00214529 13.1446 0.617338 13.7598 1.37689 13.762H14.6231C15.3827 13.7598 15.9979 13.1446 16 12.3851V3.61513C15.9979 2.85558 15.3827 2.24039 14.6231 2.23824ZM15.5873 12.3851C15.5856 12.9169 15.1549 13.3476 14.6231 13.3493H1.37689C0.84509 13.3476 0.414393 12.9169 0.412677 12.3851V3.61513C0.414393 3.08333 0.84509 2.65264 1.37689 2.65092H14.6231C15.1549 2.65264 15.5856 3.08333 15.5873 3.61513V12.3851Z" fill="#2E3034" fill-opacity="0.8"/>
<path d="M13.9731 5.54912H8.43429C8.33011 5.55552 8.24707 5.6386 8.24063 5.74278C8.23361 5.85676 8.32032 5.95482 8.43429 5.9618H13.9731C14.0772 5.9554 14.1603 5.87232 14.1667 5.76814C14.1737 5.6542 14.087 5.55614 13.9731 5.54912Z" fill="#2E3034" fill-opacity="0.8"/>
<path d="M13.9731 7.79375H8.43429C8.33011 7.80015 8.24707 7.88324 8.24063 7.98742C8.23361 8.1014 8.32032 8.19946 8.43429 8.20645H13.9731C14.0772 8.20005 14.1603 8.11696 14.1667 8.01278C14.1737 7.89884 14.087 7.80078 13.9731 7.79375Z" fill="#2E3034" fill-opacity="0.8"/>
<path d="M13.9731 6.67143H8.43429C8.33011 6.67783 8.24707 6.76091 8.24063 6.86509C8.23361 6.97907 8.32032 7.07713 8.43429 7.08411H13.9731C14.0772 7.07771 14.1603 6.99463 14.1667 6.89045C14.1737 6.77651 14.087 6.67845 13.9731 6.67143Z" fill="#2E3034" fill-opacity="0.8"/>
<path d="M13.975 8.91701H8.43621C8.33202 8.9234 8.24898 9.00649 8.24259 9.11063C8.23556 9.2246 8.32227 9.32266 8.43621 9.32968H13.975C14.0792 9.32329 14.1622 9.24021 14.1686 9.13606C14.1756 9.02209 14.089 8.92403 13.975 8.91701Z" fill="#2E3034" fill-opacity="0.8"/>
</svg>
