<svg xmlns="http://www.w3.org/2000/svg" fill="none" width="64" height="64" viewBox="0 0 64 64"><path d="M49.644 29.419a.999.999 0 0 0-.897-.56h-27.31a1 1 0 0 0-.889.541 13.05 13.05 0 0 0-1.488 5.75l-5.88 9.317a1 1 0 0 0 .847 1.534h5.09l.045 5.83a4.419 4.419 0 0 0 4.565 4.382l4.398-.137V60.5a1 1 0 0 0 1 1h19.371a1 1 0 0 0 1-.99l.134-12.583c.111-.995.278-2.154.454-3.38.73-5.076 1.555-10.826.057-13.974-.145-.394-.311-.78-.497-1.155zm-1.54 14.844c-.181 1.263-.352 2.456-.467 3.494a.96.96 0 0 0-.006.099L47.506 59.5H30.125v-3.487l4.575-.143a1.002 1.002 0 0 0 .885-1.412 1.002 1.002 0 0 0-.947-.587l-10.973.343a2.417 2.417 0 0 1-2.502-2.4l-.054-6.822a1 1 0 0 0-1-.992h-4.27l5.063-8.024a.997.997 0 0 0 .155-.533c0-1.583.343-3.146 1.005-4.584h26.042c.063.149.12.297.174.443a.998.998 0 0 0 .042.099c1.26 2.585.407 8.525-.216 12.862zM27.775 16.961a3.596 3.596 0 1 0 3.258 2.079l1.042-.863a4.638 4.638 0 0 0 3.884 1.029l.815 1.99a3.59 3.59 0 1 0 1.883-.679l-.86-2.1a4.67 4.67 0 0 0 1.816-2.675l3.213-.088a3.593 3.593 0 1 0-.093-1.998l-3.072.084a4.657 4.657 0 0 0-1.527-2.63l.678-1.467a3.6 3.6 0 1 0-1.822-.825l-.618 1.336a4.644 4.644 0 0 0-3.897.624L31.48 9.42a3.592 3.592 0 1 0-1.545 1.277l1.147 1.565a4.644 4.644 0 0 0-.22 4.323l-1.146.949a3.571 3.571 0 0 0-1.941-.572zm12.702 7.14a1.594 1.594 0 1 1-3.186 0 1.594 1.594 0 0 1 3.185 0h.001zm5.749-11.2a1.593 1.593 0 1 1 0 3.185 1.593 1.593 0 0 1 0-3.185zM39.32 4.494a1.593 1.593 0 1 1 0 3.186 1.593 1.593 0 0 1 0-3.186zM27.775 22.146a1.594 1.594 0 1 1 0-3.187 1.594 1.594 0 0 1 0 3.188zm7.315-10.173a2.658 2.658 0 1 1 0 5.316 2.658 2.658 0 0 1 0-5.316zm-8.172-4.576a1.593 1.593 0 1 1 3.186 0 1.593 1.593 0 0 1-3.186 0z" fill="#fff"/></svg>