<svg width="38" height="60" viewBox="0 0 38 60" fill="none" xmlns="http://www.w3.org/2000/svg">
<path d="M36.6444 27.4181C36.562 27.2504 36.4342 27.1092 36.2756 27.0105C36.117 26.9117 35.9339 26.8594 35.747 26.8594H8.4364C8.25305 26.8594 8.07323 26.9098 7.9166 27.0051C7.75996 27.1004 7.63254 27.2369 7.54827 27.3997C6.61695 29.1763 6.10768 31.1436 6.06002 33.1489L0.180898 42.4669C0.0855519 42.6181 0.0325047 42.7922 0.0272822 42.9709C0.0220597 43.1496 0.0648532 43.3265 0.151205 43.4831C0.237556 43.6396 0.364306 43.7702 0.518256 43.8611C0.672205 43.9521 0.847721 44 1.02652 44.0001H6.11627L6.16215 49.8312C6.16668 50.4209 6.2892 51.0036 6.52249 51.5451C6.75577 52.0867 7.09511 52.576 7.52049 52.9844C7.94587 53.3927 8.44869 53.7117 8.99931 53.9227C9.54993 54.1336 10.1372 54.2322 10.7265 54.2126L15.125 54.0751V58.5001C15.125 58.7653 15.2304 59.0197 15.4179 59.2072C15.6055 59.3948 15.8598 59.5001 16.125 59.5001H35.496C35.7594 59.5001 36.0122 59.3962 36.1994 59.211C36.3866 59.0257 36.4932 58.7741 36.496 58.5107L36.6303 45.9272C36.7414 44.9321 36.9079 43.7734 37.0839 42.5475C37.8131 37.4715 38.6391 31.7216 37.1409 28.5736C36.9957 28.18 36.83 27.7943 36.6444 27.4181ZM35.1043 42.2626C34.9229 43.5251 34.7515 44.718 34.637 45.7566C34.6333 45.7894 34.6313 45.8224 34.631 45.8555L34.506 57.4996H17.125V54.0126L21.7 53.8695C21.8317 53.866 21.9614 53.8365 22.0817 53.7828C22.2019 53.729 22.3104 53.652 22.4008 53.5563C22.4912 53.4605 22.5618 53.3477 22.6085 53.2246C22.6553 53.1014 22.6772 52.9702 22.6731 52.8386C22.669 52.7069 22.6389 52.5774 22.5846 52.4574C22.5302 52.3374 22.4527 52.2293 22.3565 52.1393C22.2603 52.0494 22.1472 51.9793 22.0238 51.9332C21.9004 51.887 21.7692 51.8657 21.6375 51.8705L10.6646 52.2136C10.3415 52.2249 10.0194 52.1712 9.71742 52.0558C9.4154 51.9404 9.13959 51.7656 8.90631 51.5418C8.67303 51.3179 8.487 51.0495 8.35925 50.7525C8.23149 50.4555 8.1646 50.1359 8.16252 49.8126L8.10877 42.9917C8.10669 42.7279 8.00042 42.4756 7.81311 42.2897C7.6258 42.1039 7.37263 41.9996 7.10877 41.9996H2.8399L7.9024 33.9759C8.00318 33.8161 8.05666 33.6311 8.05665 33.4422C8.05751 31.8598 8.40033 30.2962 9.06165 28.8585H35.1044C35.167 29.0074 35.2249 29.1552 35.278 29.302C35.2901 29.3355 35.304 29.3684 35.3196 29.4004C36.5808 31.9855 35.7274 37.9251 35.1043 42.2626ZM14.775 14.9601C13.9968 14.9594 13.2394 15.2112 12.6165 15.6776C11.9936 16.1441 11.5388 16.8 11.3203 17.5469C11.1019 18.2938 11.1317 19.0914 11.4051 19.82C11.6786 20.5485 12.181 21.1687 12.837 21.5874C13.4929 22.0061 14.267 22.2008 15.043 22.1421C15.819 22.0835 16.555 21.7747 17.1405 21.2621C17.7261 20.7495 18.1296 20.0609 18.2904 19.2995C18.4512 18.5381 18.3607 17.7451 18.0325 17.0395L19.0755 16.1762C19.6043 16.628 20.2279 16.955 20.9002 17.133C21.5725 17.3111 22.2762 17.3357 22.9593 17.205L23.7738 19.196C23.0826 19.699 22.5937 20.4322 22.3948 21.2636C22.196 22.0949 22.3003 22.97 22.689 23.7313C23.0777 24.4927 23.7253 25.0903 24.5153 25.4168C25.3053 25.7433 26.1859 25.7772 26.9987 25.5124C27.8115 25.2476 28.5031 24.7015 28.9492 23.9723C29.3953 23.2431 29.5666 22.3786 29.4322 21.5344C29.2978 20.6902 28.8667 19.9217 28.2163 19.367C27.5658 18.8123 26.7388 18.5079 25.884 18.5085C25.8075 18.5085 25.7319 18.5117 25.6566 18.5165L24.7975 16.4165C25.7017 15.7693 26.3453 14.8208 26.6125 13.7415L29.8264 13.6531C30.1058 14.4721 30.6715 15.1627 31.4193 15.5979C32.1672 16.0332 33.047 16.184 33.8971 16.0225C34.7472 15.8609 35.5105 15.398 36.0466 14.7188C36.5827 14.0396 36.8557 13.1896 36.8153 12.3253C36.7749 11.4609 36.4239 10.6401 35.8267 10.0139C35.2296 9.38758 34.4265 8.99786 33.5651 8.91633C32.7036 8.8348 31.8416 9.06694 31.1376 9.57007C30.4336 10.0732 29.9349 10.8135 29.733 11.655L26.6611 11.7394C26.4608 10.7164 25.923 9.79024 25.1339 9.10911L25.8116 7.64286C26.67 7.76709 27.5443 7.57727 28.2739 7.1083C29.0035 6.63933 29.5392 5.92275 29.7826 5.09031C30.026 4.25787 29.9607 3.36555 29.5987 2.57741C29.2367 1.78927 28.6024 1.15831 27.8123 0.800547C27.0223 0.442782 26.1296 0.382265 25.2985 0.630124C24.4674 0.877982 23.7536 1.41755 23.2886 2.14962C22.8235 2.88169 22.6384 3.75704 22.7672 4.61471C22.8961 5.47238 23.3302 6.25472 23.9898 6.81786L23.3723 8.15349C22.7167 7.96488 22.0276 7.92304 21.354 8.03093C20.6804 8.13882 20.0389 8.3938 19.475 8.77774L18.4795 7.41899C18.9663 6.7038 19.1787 5.83696 19.0776 4.97774C18.9765 4.11852 18.5688 3.32464 17.9293 2.74197C17.2898 2.15929 16.4615 1.82696 15.5966 1.80605C14.7317 1.78513 13.8883 2.07703 13.2214 2.62811C12.5545 3.1792 12.1088 3.95244 11.9663 4.80577C11.8238 5.6591 11.994 6.53519 12.4457 7.27307C12.8974 8.01095 13.6002 8.56105 14.4249 8.8223C15.2497 9.08354 16.141 9.03838 16.9351 8.69511L18.082 10.2605C17.6972 10.9091 17.4761 11.6416 17.4379 12.3948C17.3997 13.148 17.5455 13.8992 17.8628 14.5834L16.7161 15.5324C16.1378 15.1584 15.4637 14.9597 14.775 14.9601ZM27.477 22.1014C27.477 22.4164 27.3836 22.7244 27.2086 22.9864C27.0335 23.2484 26.7847 23.4525 26.4936 23.5731C26.2026 23.6937 25.8823 23.7252 25.5732 23.6638C25.2642 23.6023 24.9804 23.4506 24.7576 23.2278C24.5348 23.005 24.3831 22.7212 24.3216 22.4121C24.2602 22.1031 24.2917 21.7828 24.4123 21.4917C24.5329 21.2007 24.737 20.9519 24.999 20.7768C25.261 20.6018 25.569 20.5084 25.884 20.5084C26.3063 20.509 26.711 20.6771 27.0095 20.9757C27.308 21.2743 27.4759 21.6791 27.4764 22.1014H27.477ZM33.2256 10.9001C33.5407 10.9001 33.8487 10.9935 34.1107 11.1686C34.3726 11.3436 34.5768 11.5924 34.6974 11.8835C34.818 12.1746 34.8495 12.4949 34.788 12.8039C34.7266 13.1129 34.5749 13.3967 34.3521 13.6195C34.1293 13.8423 33.8454 13.994 33.5364 14.0555C33.2274 14.117 32.9071 14.0854 32.616 13.9649C32.3249 13.8443 32.0762 13.6401 31.9011 13.3781C31.7261 13.1162 31.6326 12.8082 31.6326 12.4931C31.6331 12.0708 31.8011 11.6659 32.0998 11.3672C32.3984 11.0686 32.8033 10.9006 33.2256 10.9001ZM26.3201 2.49386C26.6352 2.49389 26.9432 2.58733 27.2051 2.76239C27.4671 2.93745 27.6712 3.18625 27.7918 3.47733C27.9123 3.76842 27.9439 4.08871 27.8824 4.39772C27.8209 4.70672 27.6692 4.99055 27.4464 5.21333C27.2236 5.4361 26.9398 5.5878 26.6308 5.64926C26.3217 5.71072 26.0015 5.67916 25.7104 5.55859C25.4193 5.43802 25.1705 5.23384 24.9955 4.97187C24.8204 4.70991 24.727 4.40192 24.727 4.08686C24.7275 3.6645 24.8955 3.25959 25.1942 2.96094C25.4929 2.6623 25.8978 2.49432 26.3201 2.49386ZM14.775 20.146C14.46 20.146 14.152 20.0526 13.89 19.8775C13.628 19.7025 13.4238 19.4537 13.3033 19.1626C13.1827 18.8715 13.1512 18.5512 13.2126 18.2422C13.2741 17.9331 13.4258 17.6493 13.6486 17.4265C13.8714 17.2037 14.1553 17.052 14.4643 16.9906C14.7733 16.9291 15.0936 16.9607 15.3847 17.0813C15.6758 17.2019 15.9246 17.4061 16.0996 17.6681C16.2746 17.93 16.368 18.238 16.368 18.5531C16.3675 18.9754 16.1995 19.3803 15.9009 19.6789C15.6022 19.9776 15.1973 20.1455 14.775 20.146ZM22.09 9.97261C22.6156 9.97261 23.1294 10.1285 23.5665 10.4205C24.0035 10.7125 24.3441 11.1275 24.5452 11.6131C24.7464 12.0987 24.799 12.6331 24.6965 13.1486C24.5939 13.6641 24.3408 14.1376 23.9692 14.5092C23.5975 14.8809 23.124 15.134 22.6085 15.2365C22.093 15.3391 21.5586 15.2865 21.073 15.0853C20.5874 14.8842 20.1724 14.5436 19.8804 14.1065C19.5884 13.6695 19.4325 13.1557 19.4325 12.6301C19.4333 11.9257 19.7135 11.2503 20.2115 10.7521C20.7096 10.2539 21.3849 9.97357 22.0894 9.97261H22.09ZM13.9184 5.39699C13.9184 5.08192 14.0118 4.77393 14.1869 4.51196C14.3619 4.25 14.6107 4.04582 14.9018 3.92525C15.1929 3.80468 15.5132 3.77313 15.8222 3.8346C16.1312 3.89606 16.415 4.04778 16.6378 4.27057C16.8606 4.49335 17.0123 4.7772 17.0738 5.08621C17.1353 5.39522 17.1037 5.71552 16.9831 6.0066C16.8626 6.29768 16.6584 6.54648 16.3964 6.72152C16.1345 6.89656 15.8265 6.98999 15.5114 6.98999C15.0891 6.98952 14.6841 6.82154 14.3855 6.5229C14.0868 6.22425 13.9189 5.81933 13.9184 5.39699Z" fill="white"/>
</svg>
