<svg width="60" height="60" viewBox="0 0 60 60" fill="none" xmlns="http://www.w3.org/2000/svg">
<path d="M53.75 10H6.25C3.48858 10 1.25 12.2386 1.25 15V45C1.25 47.7614 3.48858 50 6.25 50H53.75C56.5114 50 58.75 47.7614 58.75 45V15C58.75 12.2386 56.5114 10 53.75 10Z" stroke="white" stroke-opacity="0.8" stroke-linecap="round" stroke-linejoin="round"/>
<path d="M1.25 20H58.75" stroke="white" stroke-opacity="0.8" stroke-linecap="round" stroke-linejoin="round"/>
<path d="M53.75 30H33.75" stroke="white" stroke-opacity="0.8" stroke-linecap="round" stroke-linejoin="round"/>
<path d="M41.25 37.5H33.75" stroke="white" stroke-opacity="0.8" stroke-linecap="round" stroke-linejoin="round"/>
<path d="M23.75 33.125C23.75 32.9592 23.6842 32.8003 23.5669 32.6831C23.4497 32.5658 23.2908 32.5 23.125 32.5H18.75V28.125C18.75 27.9592 18.6842 27.8003 18.5669 27.6831C18.4497 27.5658 18.2908 27.5 18.125 27.5H14.375C14.2092 27.5 14.0503 27.5658 13.9331 27.6831C13.8158 27.8003 13.75 27.9592 13.75 28.125V32.5H9.375C9.20924 32.5 9.05027 32.5658 8.93306 32.6831C8.81585 32.8003 8.75 32.9592 8.75 33.125V36.875C8.75 37.0408 8.81585 37.1997 8.93306 37.3169C9.05027 37.4342 9.20924 37.5 9.375 37.5H13.75V41.875C13.75 42.0408 13.8158 42.1997 13.9331 42.3169C14.0503 42.4342 14.2092 42.5 14.375 42.5H18.125C18.2908 42.5 18.4497 42.4342 18.5669 42.3169C18.6842 42.1997 18.75 42.0408 18.75 41.875V37.5H23.125C23.2908 37.5 23.4497 37.4342 23.5669 37.3169C23.6842 37.1997 23.75 37.0408 23.75 36.875V33.125Z" stroke="white" stroke-opacity="0.8" stroke-linecap="round" stroke-linejoin="round"/>
</svg>
