<svg xmlns="http://www.w3.org/2000/svg" fill="none" width="64" height="64" viewBox="0 0 64 64"><path d="M31.988 5a26.061 26.061 0 0 0-10.389 2.164l.801 1.832a24.06 24.06 0 0 1 21.12.943l.96-1.753A26.055 26.055 0 0 0 31.988 5zM16.882 7.002A4 4 0 0 0 17 15a4.004 4.004 0 0 0 3.684-5.558 4 4 0 0 0-3.802-2.44zm30.84 1.67a3 3 0 1 0 0 6 3 3 0 0 0 0-6zm-30.806.33A2 2 0 1 1 17 13a2 2 0 0 1-.084-3.998zm30.765 1.67a.998.998 0 0 1 1.041 1 1 1 0 0 1-1 1 1 1 0 0 1-.04-2zm-15.972 1.33a19.004 19.004 0 0 0-18.266 14.894l1.953.432a17.004 17.004 0 0 1 30.771-5.726l1.665-1.11a19.004 19.004 0 0 0-16.123-8.49zM12.02 14.359a26.001 26.001 0 0 0 .914 34.32l1.467-1.359a24 24 0 0 1-.844-31.68l-1.537-1.28zm39.957 0-1.537 1.282a24 24 0 0 1-1.162 32.013l1.441 1.389a26 26 0 0 0 1.258-34.684zm-2.848 8.047a4 4 0 0 0 .118 7.998 4.004 4.004 0 0 0 3.684-5.557 4.001 4.001 0 0 0-3.802-2.44zM32.017 24a13.97 13.97 0 0 0-7.6 2.242l1.092 1.676a12.124 12.124 0 0 1 13.057-.02l1.092-1.675A13.832 13.832 0 0 0 32.072 24h-.055zm17.147.406a1.999 1.999 0 1 1-1.313 3.426 2 2 0 0 1 1.313-3.426zM32.027 28a9.485 9.485 0 0 0-5.416 1.68l1.144 1.64A7.508 7.508 0 0 1 32.037 30a7.307 7.307 0 0 1 4.302 1.297l1.125-1.654A9.54 9.54 0 0 0 32.08 28h-.053zm-18.115.45A3 3 0 0 0 14 34.446a3.003 3.003 0 0 0 2.762-4.168 3 3 0 0 0-2.85-1.83zm.047 2a1 1 0 1 1 .04 1.997 1 1 0 0 1-.04-1.998zm35.015 1.495c-.14 2.66-.91 5.25-2.248 7.553l1.73 1.004a19.018 19.018 0 0 0 2.514-8.447l-1.996-.11zm-16.783.073a6.496 6.496 0 0 0-3.414.884l1.031 1.715a4.469 4.469 0 0 1 4.467-.014l1.014-1.724a6.496 6.496 0 0 0-3.098-.861zm-16.535 3.677-1.922.551a18.896 18.896 0 0 0 1.809 4.256l1.73-1.004a16.985 16.985 0 0 1-1.617-3.803zm16.38.305c-.553 0-1 .446-1 1s.447 1 1 1c.555 0 1-.446 1-1s-.445-1-1-1zM20 43a2.003 2.003 0 0 0-2 2v16a2.003 2.003 0 0 0 2 2h24a2.003 2.003 0 0 0 2-2V45a2.003 2.003 0 0 0-2-2H20zm0 2h24l.002 16H20V45zm3 2a.998.998 0 0 0-1 1v10a1 1 0 0 0 1 1h10v-2h-9v-8h16v7h2v-8a1 1 0 0 0-1-1H23zm11 10v2h2v-2h-2zm3 0v2h2v-2h-2zm3 0v2h2v-2h-2z" fill="#fff"/></svg>