<svg width="52" height="58" viewBox="0 0 52 58" fill="none" xmlns="http://www.w3.org/2000/svg">
<path d="M25.9883 1.2112e-06C22.4136 0.00109153 18.8774 0.73772 15.5996 2.16406L16.4004 3.99609C19.7601 2.53501 23.4091 1.86048 27.0691 2.02397C30.7291 2.18746 34.3035 3.18464 37.5195 4.93945L38.4805 3.18555C34.649 1.09405 30.3535 -0.00132961 25.9883 1.2112e-06ZM10.8828 2.00195C9.83393 2.03468 8.8399 2.4783 8.11506 3.23715C7.39022 3.99601 6.99263 5.00932 7.008 6.05861C7.02338 7.1079 7.45049 8.10913 8.19725 8.84642C8.94401 9.58372 9.9506 9.99802 11 10C12.0605 9.99894 13.0773 9.57717 13.8273 8.82726C14.5772 8.07734 14.9989 7.06054 15 6C15 5.46487 14.8926 4.93518 14.6841 4.44231C14.4757 3.94944 14.1705 3.50339 13.7866 3.13059C13.4027 2.7578 12.9479 2.46582 12.4491 2.27195C11.9503 2.07809 11.4177 1.98628 10.8828 2.00195ZM41.7227 3.67188C41.1293 3.67188 40.5493 3.84782 40.056 4.17747C39.5626 4.50711 39.1781 4.97565 38.951 5.52383C38.724 6.072 38.6646 6.6752 38.7803 7.25715C38.8961 7.83909 39.1818 8.37364 39.6013 8.7932C40.0209 9.21275 40.5555 9.49848 41.1374 9.61423C41.7193 9.72999 42.3225 9.67058 42.8707 9.44351C43.4189 9.21645 43.8874 8.83193 44.2171 8.33859C44.5467 7.84524 44.7227 7.26522 44.7227 6.67188C44.7218 5.87649 44.4054 5.11394 43.843 4.55152C43.2806 3.98909 42.518 3.67274 41.7227 3.67188ZM10.916 4.00195C11.1855 3.99063 11.4545 4.03392 11.7067 4.12922C11.959 4.22453 12.1895 4.36987 12.3841 4.55652C12.5788 4.74317 12.7337 4.96727 12.8396 5.21533C12.9454 5.4634 13 5.7303 13 6C12.9993 6.53022 12.7884 7.03853 12.4135 7.41346C12.0385 7.78838 11.5302 7.99931 11 8C10.4776 7.99888 9.97635 7.7934 9.60347 7.4275C9.2306 7.06159 9.0157 6.56431 9.00473 6.04201C8.99376 5.51971 9.18758 5.01384 9.54476 4.6326C9.90194 4.25136 10.3941 4.02501 10.916 4.00195ZM41.6816 5.67188C41.8164 5.66635 41.9508 5.68812 42.0769 5.73589C42.203 5.78367 42.3182 5.85645 42.4154 5.94986C42.5127 6.04328 42.59 6.1554 42.6428 6.27948C42.6956 6.40356 42.7228 6.53703 42.7227 6.67188C42.7225 6.93704 42.6171 7.19129 42.4296 7.37879C42.2421 7.56629 41.9878 7.6717 41.7227 7.67188C41.4574 7.67732 41.2009 7.57718 41.0096 7.39348C40.8182 7.20979 40.7076 6.9576 40.7022 6.69238C40.6967 6.42717 40.7969 6.17065 40.9805 5.97927C41.1642 5.78789 41.4164 5.67732 41.6816 5.67188ZM25.709 7.00195C21.4325 7.06717 17.3031 8.57298 13.9885 11.2759C10.6739 13.9787 8.36785 17.7207 7.44337 21.8965L9.39649 22.3281C10.1176 19.0703 11.7813 16.0966 14.1803 13.7775C16.5793 11.4583 19.6075 9.89626 22.8879 9.28579C26.1683 8.67531 29.5558 9.04343 32.6284 10.3443C35.7011 11.6451 38.3231 13.8213 40.168 16.6016L41.832 15.4922C40.0709 12.8397 37.6716 10.6722 34.8544 9.18873C32.0372 7.70524 28.8925 6.9533 25.709 7.00195ZM6.02149 9.35938C1.97787 14.2144 -0.159545 20.3757 0.00867519 26.6918C0.176895 33.008 2.63924 39.0468 6.93555 43.6797L8.40235 42.3203C4.43643 38.044 2.16342 32.4698 2.00814 26.6395C1.85286 20.8093 3.82593 15.122 7.5586 10.6406L6.02149 9.35938ZM45.9785 9.35938L44.4414 10.6406C48.2243 15.1832 50.1977 20.9621 49.9832 26.8697C49.7688 32.7773 47.3816 38.3979 43.2793 42.6543L44.7207 44.043C49.1655 39.4317 51.7518 33.3422 51.9839 26.9418C52.216 20.5414 50.0776 14.2805 45.9785 9.35938ZM43.1309 17.4063C42.082 17.439 41.0879 17.8826 40.3631 18.6414C39.6383 19.4003 39.2407 20.4136 39.256 21.4629C39.2714 22.5122 39.6985 23.5134 40.4453 24.2507C41.1921 24.988 42.1987 25.4023 43.2481 25.4043C44.3086 25.4032 45.3254 24.9815 46.0753 24.2316C46.8252 23.4816 47.247 22.4648 47.2481 21.4043C47.248 20.8692 47.1406 20.3395 46.9322 19.8466C46.7238 19.3537 46.4186 18.9077 46.0347 18.5349C45.6507 18.1621 45.1959 17.8701 44.6972 17.6763C44.1984 17.4824 43.6658 17.3906 43.1309 17.4063ZM26.0176 19C23.3211 18.9983 20.6817 19.777 18.418 21.2422L19.5098 22.918C21.4574 21.6692 23.7217 21.0038 26.0352 21.0003C28.3488 20.9968 30.6151 21.6555 32.5664 22.8984L33.6582 21.2227C31.3996 19.7596 28.7633 18.9872 26.0723 19H26.0176ZM43.1641 19.4063C43.4335 19.3949 43.7025 19.4382 43.9548 19.5335C44.2071 19.6288 44.4375 19.7742 44.6322 19.9608C44.8269 20.1475 44.9818 20.3716 45.0876 20.6196C45.1935 20.8677 45.248 21.1346 45.2481 21.4043C45.2474 21.9345 45.0364 22.4428 44.6615 22.8178C44.2866 23.1927 43.7783 23.4036 43.2481 23.4043C42.7256 23.4032 42.2244 23.1977 41.8515 22.8318C41.4786 22.4659 41.2637 21.9686 41.2528 21.4463C41.2418 20.924 41.4356 20.4181 41.7928 20.0369C42.15 19.6557 42.6422 19.4293 43.1641 19.4063ZM26.0274 23C24.093 22.9945 22.2032 23.5806 20.6113 24.6797L21.7559 26.3203C23.0153 25.4547 24.5089 24.9941 26.0371 25C27.572 24.9696 29.0774 25.4233 30.3399 26.2969L31.4649 24.6426C29.876 23.5659 27.9994 22.9934 26.0801 23H26.0274ZM7.91212 23.4492C7.12782 23.4771 6.38567 23.8112 5.84483 24.3799C5.304 24.9486 5.00754 25.7066 5.01904 26.4913C5.03054 27.276 5.34908 28.025 5.90634 28.5776C6.46361 29.1301 7.21523 29.4424 8.00001 29.4473C8.79539 29.4464 9.55795 29.1301 10.1204 28.5676C10.6828 28.0052 10.9991 27.2427 11 26.4473C10.9999 26.046 10.9193 25.6488 10.763 25.2792C10.6066 24.9096 10.3777 24.5751 10.0898 24.2955C9.80186 24.016 9.46077 23.797 9.08672 23.6517C8.71267 23.5063 8.31325 23.4375 7.91212 23.4492ZM7.95899 25.4492C8.09356 25.4437 8.22786 25.4654 8.35383 25.5131C8.4798 25.5607 8.59484 25.6333 8.69206 25.7265C8.78928 25.8197 8.86667 25.9316 8.91959 26.0555C8.9725 26.1793 8.99986 26.3126 9.00001 26.4473C8.99983 26.7124 8.89442 26.9667 8.70692 27.1542C8.51942 27.3417 8.26517 27.4471 8.00001 27.4473C7.74161 27.4425 7.49511 27.3378 7.31219 27.1552C7.12927 26.9727 7.02414 26.7264 7.01884 26.468C7.01353 26.2096 7.10847 25.9592 7.28374 25.7692C7.45901 25.5793 7.70101 25.4646 7.95899 25.4492ZM42.9746 26.9453C42.8351 29.6056 42.0646 32.1945 40.7266 34.498L42.457 35.502C43.9448 32.9219 44.8058 30.0284 44.9707 27.0547L42.9746 26.9453ZM26.1914 27.0176C24.9936 26.992 23.812 27.2982 22.7774 27.9023L23.8086 29.6172C24.4865 29.2233 25.2561 29.0147 26.0402 29.0123C26.8242 29.0099 27.5951 29.2138 28.2754 29.6035L29.2891 27.8789C28.345 27.3368 27.2798 27.0406 26.1914 27.0176ZM9.65626 30.6953L7.73438 31.2461C8.1607 32.7334 8.76811 34.1627 9.54298 35.502L11.2734 34.498C10.5816 33.301 10.0385 32.024 9.65626 30.6953ZM26.0371 31C25.4831 31 25.0371 31.446 25.0371 32C25.0371 32.554 25.4831 33 26.0371 33C26.5911 33 27.0371 32.554 27.0371 32C27.0371 31.446 26.5911 31 26.0371 31ZM14 38C13.4698 38.0007 12.9615 38.2116 12.5866 38.5865C12.2116 38.9615 12.0007 39.4698 12 40V56C12.0007 56.5302 12.2116 57.0385 12.5866 57.4135C12.9615 57.7884 13.4698 57.9993 14 58H38C38.5302 57.9993 39.0385 57.7884 39.4135 57.4135C39.7884 57.0385 39.9993 56.5302 40 56V40C39.9993 39.4698 39.7884 38.9615 39.4135 38.5865C39.0385 38.2116 38.5302 38.0007 38 38H14ZM14 40H38L38.002 56H14V40ZM17 42C16.8687 41.9999 16.7386 42.0257 16.6172 42.076C16.4959 42.1262 16.3856 42.1999 16.2927 42.2927C16.1999 42.3856 16.1262 42.4959 16.076 42.6172C16.0257 42.7386 15.9999 42.8687 16 43V53C15.9999 53.1313 16.0257 53.2614 16.076 53.3828C16.1262 53.5041 16.1999 53.6144 16.2927 53.7073C16.3856 53.8001 16.4959 53.8738 16.6172 53.924C16.7386 53.9743 16.8687 54.0001 17 54H27V52H18V44H34V51H36V43C36.0001 42.8687 35.9743 42.7386 35.924 42.6172C35.8738 42.4959 35.8002 42.3856 35.7073 42.2927C35.6144 42.1999 35.5041 42.1262 35.3828 42.076C35.2614 42.0257 35.1314 41.9999 35 42H17ZM28 52V54H30V52H28ZM31 52V54H33V52H31ZM34 52V54H36V52H34Z" fill="white"/>
</svg>
