<svg xmlns="http://www.w3.org/2000/svg" fill="none" width="85" height="85" viewBox="0 0 85 85"><path d="M62.422 8.633a9.948 9.948 0 0 0-9.961 9.96c0 2.126.664 4.119 1.926 5.845l6.44 8.765a1.98 1.98 0 0 0 1.595.796c.664 0 1.195-.331 1.594-.796l6.44-8.765c1.263-1.726 1.927-3.72 1.927-5.844a9.948 9.948 0 0 0-9.961-9.961zm0 3.984a5.952 5.952 0 0 1 5.976 5.977 5.807 5.807 0 0 1-1.128 3.452l-4.848 6.575-4.848-6.575a5.807 5.807 0 0 1-1.129-3.452 5.952 5.952 0 0 1 5.977-5.977zM22.578 35.195c-9.164 0-16.601 7.438-16.601 16.602 0 3.52 1.062 6.906 3.12 9.695.067.133.2.2.266.332l11.621 15.739c.399.465.93.796 1.594.796s1.196-.331 1.594-.796l11.621-15.739.199-.266.067-.066c2.059-2.855 3.12-6.176 3.12-9.695 0-9.164-7.437-16.602-16.6-16.602zm36.3.47a2.045 2.045 0 0 0-1.703.792l-1.194 1.594c-.664.864-.532 2.125.398 2.789.332.265.796.398 1.195.398a1.98 1.98 0 0 0 1.594-.796l1.196-1.594c.664-.864.465-2.125-.399-2.789a1.912 1.912 0 0 0-1.087-.394zm-36.3 3.515c6.973 0 12.617 5.644 12.617 12.617 0 2.656-.796 5.246-2.39 7.37v.067L22.578 73.047 12.551 59.434c-.066-.067-.133-.133-.2-.266-1.593-2.125-2.39-4.715-2.39-7.371 0-6.973 5.644-12.617 12.617-12.617zm30.324 4.454a2.045 2.045 0 0 0-1.703.792l-1.195 1.594c-.664.863-.465 2.124.399 2.789.332.265.796.398 1.194.398a1.98 1.98 0 0 0 1.594-.797l1.196-1.594c.664-.863.465-2.124-.398-2.788a1.91 1.91 0 0 0-1.087-.394zm-30.324 1.522a6.64 6.64 0 1 0 0 13.282 6.64 6.64 0 0 0 0-13.282zm28.115 6.334a1.953 1.953 0 0 0-1.42.507c-.863.664-.93 1.925-.132 2.788l1.328 1.46c.398.399.929.665 1.46.665.465 0 .996-.199 1.328-.53.797-.731.864-1.994.134-2.79l-1.328-1.461a1.987 1.987 0 0 0-1.37-.64zm6.707 7.304a1.95 1.95 0 0 0-1.419.507c-.797.73-.864 1.992-.134 2.789l1.328 1.46c.399.399.931.664 1.462.664.465 0 .996-.198 1.328-.53.797-.73.863-1.993.133-2.79l-1.328-1.46a1.987 1.987 0 0 0-1.37-.64zm6.773 7.305a1.95 1.95 0 0 0-1.42.507c-.796.73-.862 1.992-.131 2.788l1.328 1.46c.398.4.929.665 1.46.665.465 0 .996-.198 1.328-.53.797-.73.863-1.993.133-2.79l-1.329-1.46a1.986 1.986 0 0 0-1.37-.64zm6.774 7.304a1.953 1.953 0 0 0-1.42.508c-.664.597-.797 1.593-.398 2.39v.066c0 1.13.863 1.992 1.992 1.992h.664c.797 0 1.528-.465 1.794-1.195.332-.73.199-1.594-.332-2.125l-.93-.996a1.987 1.987 0 0 0-1.37-.64zm-39.736.972c-1.129 0-1.992.863-1.992 1.992 0 1.13.863 1.992 1.992 1.992h1.992c1.129 0 1.992-.863 1.992-1.992s-.863-1.992-1.992-1.992h-1.992zm9.96 0c-1.128 0-1.991.863-1.991 1.992 0 1.13.863 1.992 1.992 1.992h1.992c1.129 0 1.992-.863 1.992-1.992s-.863-1.992-1.992-1.992h-1.992zm9.962 0c-1.13 0-1.992.863-1.992 1.992 0 1.13.863 1.992 1.992 1.992h1.992c1.129 0 1.992-.863 1.992-1.992s-.863-1.992-1.992-1.992h-1.992zm9.96 0c-1.128 0-1.991.863-1.991 1.992 0 1.13.863 1.992 1.992 1.992h1.992c1.129 0 1.992-.863 1.992-1.992s-.863-1.992-1.992-1.992h-1.992z" fill="#fff"/></svg>