<svg width="73" height="74" viewBox="0 0 73 74" fill="none" xmlns="http://www.w3.org/2000/svg">
<path d="M60.0938 0.140625C54.2578 0.140625 49.5469 4.85156 49.5469 10.6875C49.5469 12.9375 50.2503 15.0474 51.5862 16.8755L58.406 26.1562C58.8279 26.7188 59.4609 26.9995 60.0938 26.9995C60.7969 26.9995 61.3596 26.6484 61.7815 26.1562L68.6013 16.8755C69.9372 15.0474 70.6406 12.9375 70.6406 10.6875C70.6406 4.85156 65.9297 0.140625 60.0938 0.140625ZM60.0938 4.35938C63.6094 4.35938 66.4219 7.17188 66.4219 10.6875C66.4219 12.0234 66.0005 13.2885 65.2271 14.3432L60.0938 21.3044L54.9604 14.3432C54.187 13.2885 53.7656 12.0234 53.7656 10.6875C53.7656 7.17188 56.5781 4.35938 60.0938 4.35938ZM17.9062 28.2656C8.20312 28.2656 0.328125 36.1406 0.328125 45.8438C0.328125 49.5703 1.45258 53.156 3.63226 56.1091C3.70258 56.2497 3.84348 56.32 3.91379 56.4607L16.2185 73.1255C16.6404 73.6177 17.2031 73.9688 17.9062 73.9688C18.6094 73.9688 19.1721 73.6177 19.594 73.1255L31.8987 56.4607L32.1088 56.1791L32.1802 56.1091C34.3599 53.0857 35.4844 49.5703 35.4844 45.8438C35.4844 36.1406 27.6094 28.2656 17.9062 28.2656ZM56.3419 28.7628C55.6656 28.7332 54.9782 29.0305 54.5388 29.6018L53.274 31.2896C52.5709 32.2037 52.7112 33.5391 53.6956 34.2422C54.0471 34.5234 54.5385 34.6638 54.9604 34.6638C55.5932 34.6638 56.2263 34.3831 56.6482 33.8206L57.9143 32.1328C58.6175 31.2188 58.4068 29.8834 57.4927 29.1802C57.15 28.9166 56.7477 28.7805 56.3419 28.7628ZM17.9062 32.4844C25.2891 32.4844 31.2656 38.4609 31.2656 45.8438C31.2656 48.6562 30.4221 51.3982 28.7346 53.6482V53.7182L17.9062 68.3438L7.28934 53.9297C7.21902 53.8594 7.14816 53.7888 7.07785 53.6482C5.39035 51.3982 4.54688 48.6562 4.54688 45.8438C4.54688 38.4609 10.5234 32.4844 17.9062 32.4844ZM50.0138 37.2003C49.3374 37.1707 48.6501 37.468 48.2107 38.0393L46.9459 39.7271C46.2427 40.6412 46.4534 41.9766 47.3675 42.6797C47.719 42.9609 48.2104 43.1013 48.6323 43.1013C49.2651 43.1013 49.8982 42.8206 50.32 42.2581L51.5862 40.5703C52.2893 39.6562 52.0787 38.3209 51.1646 37.6177C50.8218 37.3541 50.4196 37.218 50.0138 37.2003ZM17.9062 38.8125C16.0414 38.8125 14.253 39.5533 12.9344 40.8719C11.6158 42.1905 10.875 43.9789 10.875 45.8438C10.875 47.7086 11.6158 49.497 12.9344 50.8156C14.253 52.1342 16.0414 52.875 17.9062 52.875C19.7711 52.875 21.5595 52.1342 22.8781 50.8156C24.1967 49.497 24.9375 47.7086 24.9375 45.8438C24.9375 43.9789 24.1967 42.1905 22.8781 40.8719C21.5595 39.5533 19.7711 38.8125 17.9062 38.8125ZM47.6751 45.5183C47.1389 45.4919 46.5932 45.6685 46.1713 46.0552C45.2573 46.7584 45.1875 48.0938 46.0312 49.0078L47.4375 50.5541C47.8594 50.976 48.4213 51.2573 48.9838 51.2573C49.476 51.2573 50.0385 51.0471 50.3901 50.6956C51.2338 49.9221 51.305 48.5854 50.5315 47.7416L49.1253 46.1953C48.7386 45.7734 48.2112 45.5446 47.6751 45.5183ZM54.7764 53.2527C54.2402 53.2263 53.6959 53.4029 53.274 53.7896C52.4302 54.563 52.3591 55.8984 53.1325 56.7422L54.5388 58.2885C54.9607 58.7104 55.524 58.9916 56.0865 58.9916C56.5787 58.9916 57.1412 58.7815 57.4927 58.43C58.3365 57.6565 58.4062 56.3198 57.6328 55.476L56.2266 53.9297C55.8398 53.5078 55.3125 53.279 54.7764 53.2527ZM61.9477 60.987C61.4116 60.9607 60.8672 61.1373 60.4453 61.524C59.6016 62.2974 59.5318 63.6328 60.3052 64.4766L61.7115 66.0229C62.1334 66.4448 62.6953 66.726 63.2578 66.726C63.75 66.726 64.3125 66.5159 64.6641 66.1643C65.5078 65.3909 65.5776 64.0541 64.8041 63.2104L63.3979 61.6641C63.0112 61.2422 62.4838 61.0134 61.9477 60.987ZM69.1204 68.7214C68.5843 68.695 68.0385 68.8716 67.6166 69.2584C66.9135 69.8912 66.7732 70.9456 67.195 71.7893V71.8594C67.195 73.0547 68.1091 73.9688 69.3044 73.9688H70.0075C70.8513 73.9688 71.6255 73.476 71.9068 72.7026C72.2584 71.9291 72.1177 71.0156 71.5552 70.4531L70.5706 69.3984C70.1839 68.9766 69.6565 68.7478 69.1204 68.7214ZM27.0469 69.75C25.8516 69.75 24.9375 70.6641 24.9375 71.8594C24.9375 73.0547 25.8516 73.9688 27.0469 73.9688H29.1562C30.3516 73.9688 31.2656 73.0547 31.2656 71.8594C31.2656 70.6641 30.3516 69.75 29.1562 69.75H27.0469ZM37.5938 69.75C36.3984 69.75 35.4844 70.6641 35.4844 71.8594C35.4844 73.0547 36.3984 73.9688 37.5938 73.9688H39.7031C40.8984 73.9688 41.8125 73.0547 41.8125 71.8594C41.8125 70.6641 40.8984 69.75 39.7031 69.75H37.5938ZM48.1406 69.75C46.9453 69.75 46.0312 70.6641 46.0312 71.8594C46.0312 73.0547 46.9453 73.9688 48.1406 73.9688H50.25C51.4453 73.9688 52.3594 73.0547 52.3594 71.8594C52.3594 70.6641 51.4453 69.75 50.25 69.75H48.1406ZM58.6875 69.75C57.4922 69.75 56.5781 70.6641 56.5781 71.8594C56.5781 73.0547 57.4922 73.9688 58.6875 73.9688H60.7969C61.9922 73.9688 62.9062 73.0547 62.9062 71.8594C62.9062 70.6641 61.9922 69.75 60.7969 69.75H58.6875Z" fill="#FBFBFB"/>
</svg>
