<svg xmlns="http://www.w3.org/2000/svg" fill="none" width="64" height="64" viewBox="0 0 64 64"><path d="M32 1.28c-8.495 0-15.36 6.865-15.36 15.36v6.4h-5.12c-2.105 0-3.84 1.735-3.84 3.84V57.6c0 2.105 1.735 3.84 3.84 3.84h40.96c2.105 0 3.84-1.735 3.84-3.84V26.88c0-2.105-1.735-3.84-3.84-3.84h-5.12v-6.4c0-8.495-6.865-15.36-15.36-15.36zm0 2.56c7.125 0 12.8 5.675 12.8 12.8v6.4H19.2v-6.4c0-7.125 5.675-12.8 12.8-12.8zM11.52 25.6h40.96c.71 0 1.28.57 1.28 1.28V57.6c0 .71-.57 1.28-1.28 1.28H11.52c-.71 0-1.28-.57-1.28-1.28V26.88c0-.71.57-1.28 1.28-1.28zM32 32c-5.64 0-10.24 4.6-10.24 10.24 0 5.64 4.6 10.24 10.24 10.24 5.64 0 10.24-4.6 10.24-10.24C42.24 36.6 37.64 32 32 32zm0 2.56a7.663 7.663 0 0 1 7.68 7.68A7.663 7.663 0 0 1 32 49.92a7.663 7.663 0 0 1-7.68-7.68A7.663 7.663 0 0 1 32 34.56zm0 2.56c-2.815 0-5.12 2.305-5.12 5.12s2.305 5.12 5.12 5.12 5.12-2.305 5.12-5.12c0-.51-.11-1.01-.24-1.52a2.538 2.538 0 0 1-2.32 1.52c-1.41 0-2.56-1.15-2.56-2.56 0-1.025.625-1.935 1.52-2.32-.51-.13-1.01-.24-1.52-.24z" fill="#fff"/></svg>