<svg width="50" height="61" viewBox="0 0 50 61" fill="none" xmlns="http://www.w3.org/2000/svg">
<path d="M25.0002 0.280273C16.5052 0.280273 9.64018 7.14527 9.64018 15.6403V22.0403H4.52018C2.41518 22.0403 0.680176 23.7753 0.680176 25.8803V56.6003C0.680176 58.7053 2.41518 60.4403 4.52018 60.4403H45.4802C47.5852 60.4403 49.3202 58.7053 49.3202 56.6003V25.8803C49.3202 23.7753 47.5852 22.0403 45.4802 22.0403H40.3602V15.6403C40.3602 7.14527 33.4952 0.280273 25.0002 0.280273ZM25.0002 2.84027C32.1252 2.84027 37.8002 8.51527 37.8002 15.6403V22.0403H12.2002V15.6403C12.2002 8.51527 17.8752 2.84027 25.0002 2.84027ZM4.52018 24.6003H45.4802C46.1902 24.6003 46.7602 25.1703 46.7602 25.8803V56.6003C46.7602 57.3103 46.1902 57.8803 45.4802 57.8803H4.52018C3.81018 57.8803 3.24018 57.3103 3.24018 56.6003V25.8803C3.24018 25.1703 3.81018 24.6003 4.52018 24.6003ZM25.0002 31.0003C19.3602 31.0003 14.7602 35.6003 14.7602 41.2403C14.7602 46.8803 19.3602 51.4803 25.0002 51.4803C30.6402 51.4803 35.2402 46.8803 35.2402 41.2403C35.2402 35.6003 30.6402 31.0003 25.0002 31.0003ZM25.0002 33.5603C29.2552 33.5603 32.6802 36.9853 32.6802 41.2403C32.6802 45.4953 29.2552 48.9203 25.0002 48.9203C20.7452 48.9203 17.3202 45.4953 17.3202 41.2403C17.3202 36.9853 20.7452 33.5603 25.0002 33.5603ZM25.0002 36.1203C22.1852 36.1203 19.8802 38.4253 19.8802 41.2403C19.8802 44.0553 22.1852 46.3603 25.0002 46.3603C27.8152 46.3603 30.1202 44.0553 30.1202 41.2403C30.1202 40.7303 30.0102 40.2303 29.8802 39.7203C29.4952 40.6153 28.5852 41.2403 27.5602 41.2403C26.1502 41.2403 25.0002 40.0903 25.0002 38.6803C25.0002 37.6553 25.6252 36.7453 26.5202 36.3603C26.0102 36.2303 25.5102 36.1203 25.0002 36.1203Z" fill="white"/>
</svg>
