<svg width="19" height="18" viewBox="0 0 19 18" fill="none" xmlns="http://www.w3.org/2000/svg">
<path fill-rule="evenodd" clip-rule="evenodd" d="M16.2593 12.26L13.7193 11.97C13.1093 11.9 12.5093 12.11 12.0793 12.54L10.2393 14.38C7.40928 12.94 5.08928 10.63 3.64928 7.79001L5.49928 5.94001C5.92928 5.51001 6.13928 4.91001 6.06928 4.30001L5.77928 1.78001C5.65928 0.77001 4.80928 0.0100098 3.78928 0.0100098H2.05928C0.929277 0.0100098 -0.0107235 0.95001 0.0592765 2.08001C0.589276 10.62 7.41928 17.44 15.9493 17.97C17.0793 18.04 18.0193 17.1 18.0193 15.97V14.24C18.0293 13.23 17.2693 12.38 16.2593 12.26Z" fill="#E4E4E7" fill-opacity="0.8"/>
</svg>
