<svg width="84" height="78" viewBox="0 0 84 78" fill="none" xmlns="http://www.w3.org/2000/svg">
<path d="M5.77187 0.399999C5.53268 0.403707 5.29663 0.45505 5.07752 0.551028C4.8584 0.647005 4.66061 0.785692 4.4957 0.958983L0.895698 4.74883C0.577353 5.08357 0.399878 5.52789 0.399995 5.98984V63.4C0.39154 66.994 1.24628 70.2975 3.06132 72.8781C3.16522 73.0369 3.26141 73.2032 3.3707 73.3563C5.25108 75.9888 8.03376 77.8 11.2 77.8C11.4623 77.8 11.7167 77.768 11.9734 77.7438C12.3101 77.7685 12.6454 77.7989 12.993 77.8C12.9953 77.8 12.9977 77.8 13 77.8H72.4C72.4906 77.7998 72.5811 77.7927 72.6707 77.7789C75.7228 77.6775 78.4034 75.9093 80.2293 73.3527C82.1097 70.7198 83.2 67.2246 83.2 63.4C83.2 59.5754 82.1097 56.0802 80.2293 53.4473C78.4118 50.9026 75.7474 49.1375 72.7129 49.0211C72.7105 49.021 72.7082 49.0212 72.7059 49.0211C72.6047 49.0054 72.5024 48.9983 72.4 49H65.2V2.2C65.1999 1.84407 65.0942 1.49617 64.8964 1.20027C64.6986 0.904366 64.4175 0.673742 64.0887 0.537541C63.7598 0.40134 63.398 0.365677 63.0489 0.435058C62.6998 0.504439 62.3791 0.675751 62.1273 0.927343L56.2105 6.85469L50.2727 0.927343C49.9351 0.589905 49.4773 0.400346 49 0.400346C48.5227 0.400346 48.0649 0.589905 47.7273 0.927343L41.8 6.85469L35.8727 0.927343C35.5351 0.589905 35.0773 0.400346 34.6 0.400346C34.1227 0.400346 33.6649 0.589905 33.3273 0.927343L27.4 6.85469L21.4727 0.927343C21.1351 0.589905 20.6773 0.400346 20.2 0.400346C19.7227 0.400346 19.2649 0.589905 18.9273 0.927343L13 6.85469L7.07265 0.927343C6.9022 0.75681 6.69922 0.622258 6.47577 0.531671C6.25233 0.441083 6.01296 0.396307 5.77187 0.399999ZM20.2 4.74531L26.1273 10.6727C26.4649 11.0101 26.9227 11.1997 27.4 11.1997C27.8773 11.1997 28.3351 11.0101 28.6727 10.6727L34.6 4.74531L40.5273 10.6727C40.8649 11.0101 41.3227 11.1997 41.8 11.1997C42.2773 11.1997 42.7351 11.0101 43.0727 10.6727L49 4.74531L54.9414 10.6727C55.279 11.0101 55.7368 11.1997 56.2141 11.1997C56.6914 11.1997 57.1491 11.0101 57.4867 10.6727L61.6 6.55234V49H11.2C8.36782 49 5.84713 50.4558 4 52.6457V6.70703L5.83164 4.77695L11.7273 10.6727C12.0649 11.0101 12.5227 11.1997 13 11.1997C13.4773 11.1997 13.9351 11.0101 14.2727 10.6727L20.2 4.74531ZM11.2 16.6V20.2H36.4V16.6H11.2ZM41.8 16.6V20.2H54.4V16.6H41.8ZM11.2 23.8V27.4H23.8V23.8H11.2ZM29.2 23.8V27.4H54.4V23.8H29.2ZM11.2 31V34.6H20.2V31H11.2ZM25.6 31V34.6H38.2V31H25.6ZM43.6 31V34.6H54.4V31H43.6ZM11.2 38.2V41.8H31V38.2H11.2ZM36.4 38.2V41.8H54.4V38.2H36.4ZM11.2 52.6C13.0043 52.6 14.7238 53.6078 16.1008 55.5355C17.4778 57.4633 18.4 60.268 18.4 63.4C18.4 66.532 17.4778 69.3367 16.1008 71.2645C14.907 72.9358 13.4544 73.9126 11.9137 74.1438C9.38933 73.9065 7.61831 72.8673 6.31679 71.2469C6.26275 71.1796 6.21795 71.102 6.16562 71.0324C4.87094 69.1146 4.00068 66.4212 4 63.4035C4 63.4023 4 63.4012 4 63.4C4 60.268 4.92223 57.4633 6.29921 55.5355C7.67619 53.6078 9.39567 52.6 11.2 52.6ZM18.3648 52.6H63.4H72.4C74.202 52.6 75.9197 53.6103 77.2973 55.5391C78.6748 57.4678 79.6 60.2712 79.6 63.4C79.6 66.5288 78.6748 69.3322 77.2973 71.2609C75.9197 73.1897 74.202 74.2 72.4 74.2H18.3648C18.5962 73.9283 18.8196 73.6498 19.0293 73.3563C20.9097 70.7237 22 67.2268 22 63.4C22 59.5732 20.9097 56.0763 19.0293 53.4437C18.8196 53.1502 18.5962 52.8717 18.3648 52.6ZM11.2 58C10.2452 58 9.32954 58.5689 8.65441 59.5816C7.97928 60.5943 7.6 61.9678 7.6 63.4C7.6 64.8322 7.97928 66.2057 8.65441 67.2184C9.32954 68.2311 10.2452 68.8 11.2 68.8C12.1548 68.8 13.0704 68.2311 13.7456 67.2184C14.4207 66.2057 14.8 64.8322 14.8 63.4C14.8 61.9678 14.4207 60.5943 13.7456 59.5816C13.0704 58.5689 12.1548 58 11.2 58Z" fill="#FBFBFB"/>
</svg>
