<svg xmlns="http://www.w3.org/2000/svg" fill="none" width="78" height="81" viewBox="0 0 78 81"><path d="M9.336 4.86a1.531 1.531 0 0 0-1.106.503l-3.12 3.41c-.276.302-.43.702-.43 1.117v51.67c-.007 3.234.734 6.207 2.307 8.53.09.143.173.292.268.43 1.63 2.37 4.041 4 6.785 4 .228 0 .448-.03.67-.051.292.022.583.05.884.05H67.08c.079 0 .157-.006.235-.018 2.645-.092 4.968-1.683 6.55-3.984 1.63-2.37 2.575-5.515 2.575-8.957 0-3.443-.945-6.588-2.574-8.958-1.576-2.29-3.885-3.879-6.515-3.983h-.006a1.51 1.51 0 0 0-.265-.02h-6.24V6.48c0-.32-.092-.633-.263-.9a1.574 1.574 0 0 0-.7-.596 1.507 1.507 0 0 0-.901-.092c-.303.063-.58.217-.799.443L53.05 10.67l-5.146-5.335A1.531 1.531 0 0 0 46.8 4.86c-.413 0-.81.17-1.103.474L40.56 10.67l-5.137-5.335a1.531 1.531 0 0 0-1.103-.474c-.413 0-.81.17-1.103.474L28.08 10.67l-5.137-5.335a1.531 1.531 0 0 0-1.103-.474c-.413 0-.81.17-1.103.474L15.6 10.67l-5.137-5.335a1.557 1.557 0 0 0-.517-.356 1.51 1.51 0 0 0-.61-.118zM21.84 8.77l5.137 5.335c.293.304.69.474 1.103.474.414 0 .81-.17 1.103-.474L34.32 8.77l5.137 5.335c.293.304.69.474 1.103.474.414 0 .81-.17 1.103-.474L46.8 8.77l5.15 5.335c.292.304.689.474 1.102.474.414 0 .81-.17 1.103-.474l3.565-3.708V48.6H14.04c-2.454 0-4.639 1.31-6.24 3.28V10.537L9.388 8.8l5.11 5.306c.292.304.689.474 1.102.474.414 0 .81-.17 1.103-.474L21.84 8.77zm-7.8 10.67v3.24h21.84v-3.24H14.04zm26.52 0v3.24h10.92v-3.24H40.56zm-26.52 6.48v3.24h10.92v-3.24H14.04zm15.6 0v3.24h21.84v-3.24H29.64zm-15.6 6.48v3.24h7.8V32.4h-7.8zm12.48 0v3.24h10.92V32.4H26.52zm15.6 0v3.24h9.36V32.4h-9.36zm-28.08 6.48v3.24H31.2v-3.24H14.04zm21.84 0v3.24h15.6v-3.24h-15.6zM14.04 51.84c1.564 0 3.054.907 4.248 2.642 1.193 1.735 1.992 4.259 1.992 7.078 0 2.818-.799 5.343-1.992 7.078-1.035 1.504-2.294 2.383-3.63 2.59-2.187-.213-3.722-1.148-4.85-2.606-.047-.06-.086-.13-.13-.193-1.123-1.726-1.877-4.15-1.878-6.866v-.003c0-2.82.8-5.343 1.993-7.078 1.193-1.735 2.684-2.642 4.247-2.642zm6.21 0h46.83c1.562 0 3.05.909 4.245 2.645 1.193 1.736 1.995 4.259 1.995 7.075s-.802 5.338-1.995 7.074c-1.194 1.736-2.683 2.646-4.245 2.646H20.25c.2-.245.394-.496.576-.76 1.63-2.37 2.574-5.516 2.574-8.96 0-3.445-.945-6.592-2.574-8.961a11.29 11.29 0 0 0-.576-.76zm-6.21 4.86c-.827 0-1.62.512-2.206 1.423-.585.912-.914 2.148-.914 3.437 0 1.288.329 2.525.914 3.436.585.912 1.379 1.424 2.206 1.424.828 0 1.621-.513 2.206-1.424.585-.911.914-2.147.914-3.436 0-1.29-.329-2.526-.914-3.437S14.868 56.7 14.04 56.7z" fill="#fff"/></svg>