<svg width="70" height="70" viewBox="0 0 70 70" fill="none" xmlns="http://www.w3.org/2000/svg">
<path d="M43.75 37.1875H26.25C23.8437 37.1875 21.875 35.2188 21.875 32.8125V24.0625C21.875 21.6562 23.8437 19.6875 26.25 19.6875H43.75C46.1563 19.6875 48.125 21.6562 48.125 24.0625V32.8125C48.125 35.2188 46.1563 37.1875 43.75 37.1875Z" stroke="#FBFBFB" stroke-opacity="0.8" stroke-width="2" stroke-miterlimit="10" stroke-linecap="round" stroke-linejoin="round"/>
<path d="M43.75 19.6875H26.25V10.9375C26.25 6.125 30.1875 2.1875 35 2.1875C39.8125 2.1875 43.75 6.125 43.75 10.9375V19.6875Z" stroke="#FBFBFB" stroke-opacity="0.8" stroke-width="2" stroke-miterlimit="10" stroke-linecap="round" stroke-linejoin="round"/>
<path d="M35 26.25V30.625" stroke="#FBFBFB" stroke-opacity="0.8" stroke-width="2" stroke-miterlimit="10" stroke-linecap="round" stroke-linejoin="round"/>
<path d="M35 48.125V54.6875" stroke="#FBFBFB" stroke-opacity="0.8" stroke-width="2" stroke-miterlimit="10" stroke-linecap="round" stroke-linejoin="round"/>
<path d="M28.6562 52.7188L35 54.6875" stroke="#FBFBFB" stroke-opacity="0.8" stroke-width="2" stroke-miterlimit="10" stroke-linecap="round" stroke-linejoin="round"/>
<path d="M31.0625 59.9375L35 54.6875" stroke="#FBFBFB" stroke-opacity="0.8" stroke-width="2" stroke-miterlimit="10" stroke-linecap="round" stroke-linejoin="round"/>
<path d="M38.9375 59.9375L35 54.6875" stroke="#FBFBFB" stroke-opacity="0.8" stroke-width="2" stroke-miterlimit="10" stroke-linecap="round" stroke-linejoin="round"/>
<path d="M41.3437 52.7188L35 54.6875" stroke="#FBFBFB" stroke-opacity="0.8" stroke-width="2" stroke-miterlimit="10" stroke-linecap="round" stroke-linejoin="round"/>
<path d="M56.875 48.125V54.6875" stroke="#FBFBFB" stroke-opacity="0.8" stroke-width="2" stroke-miterlimit="10" stroke-linecap="round" stroke-linejoin="round"/>
<path d="M50.5312 52.7188L56.875 54.6875" stroke="#FBFBFB" stroke-opacity="0.8" stroke-width="2" stroke-miterlimit="10" stroke-linecap="round" stroke-linejoin="round"/>
<path d="M52.9375 59.9375L56.875 54.6875" stroke="#FBFBFB" stroke-opacity="0.8" stroke-width="2" stroke-miterlimit="10" stroke-linecap="round" stroke-linejoin="round"/>
<path d="M60.8125 59.9375L56.875 54.6875" stroke="#FBFBFB" stroke-opacity="0.8" stroke-width="2" stroke-miterlimit="10" stroke-linecap="round" stroke-linejoin="round"/>
<path d="M63.2187 52.7188L56.875 54.6875" stroke="#FBFBFB" stroke-opacity="0.8" stroke-width="2" stroke-miterlimit="10" stroke-linecap="round" stroke-linejoin="round"/>
<path d="M13.125 48.125V54.6875" stroke="#FBFBFB" stroke-opacity="0.8" stroke-width="2" stroke-miterlimit="10" stroke-linecap="round" stroke-linejoin="round"/>
<path d="M6.78125 52.7188L13.125 54.6875" stroke="#FBFBFB" stroke-opacity="0.8" stroke-width="2" stroke-miterlimit="10" stroke-linecap="round" stroke-linejoin="round"/>
<path d="M9.1875 59.9375L13.125 54.6875" stroke="#FBFBFB" stroke-opacity="0.8" stroke-width="2" stroke-miterlimit="10" stroke-linecap="round" stroke-linejoin="round"/>
<path d="M17.0625 59.9375L13.125 54.6875" stroke="#FBFBFB" stroke-opacity="0.8" stroke-width="2" stroke-miterlimit="10" stroke-linecap="round" stroke-linejoin="round"/>
<path d="M19.4687 52.7188L13.125 54.6875" stroke="#FBFBFB" stroke-opacity="0.8" stroke-width="2" stroke-miterlimit="10" stroke-linecap="round" stroke-linejoin="round"/>
</svg>
