<svg xmlns="http://www.w3.org/2000/svg" fill="none" width="64" height="64" viewBox="0 0 64 64"><path d="M32 5a27 27 0 1 0 0 54 27 27 0 0 0 0-54zm0 52a25 25 0 1 1 0-49.999A25 25 0 0 1 32 57z" fill="#FBFBFB"/><path d="M50.05 19.25a4.52 4.52 0 0 0-3.47-1.75 4.37 4.37 0 0 0-3.52 1.59L29.91 34.56a1.51 1.51 0 0 1-2.1.18l-7.44-6.2a4.549 4.549 0 0 0-3.41-1 4.5 4.5 0 0 0-3.08 1.78 4.6 4.6 0 0 0 .88 6.27l11.85 9.88a4.5 4.5 0 0 0 6.31-.55L49.86 25a4.57 4.57 0 0 0 .19-5.75zm-1.72 4.44L31.39 43.62a2.56 2.56 0 0 1-3.5.3L16 34.05a2.64 2.64 0 0 1-.56-3.54 2.49 2.49 0 0 1 1.72-1h.3a2.47 2.47 0 0 1 1.59.58l7.43 6.2a3.51 3.51 0 0 0 4.91-.43l13.19-15.48a2.511 2.511 0 0 1 3.9.1 2.54 2.54 0 0 1-.15 3.21z" fill="#FBFBFB"/></svg>