<svg width="54" height="64" viewBox="0 0 54 64" fill="none" xmlns="http://www.w3.org/2000/svg">
<path d="M27 0.5C20.0981 0.5 10.2831 2.84039 5.08008 4.16504C2.09932 4.92366 0 7.63437 0 10.7041V25.25C0 36.3859 6.60551 45.8211 12.999 52.4785C19.3925 59.1359 25.8047 63.1572 25.8047 63.1572L27.0176 63.9131L28.2129 63.1396C28.2129 63.1396 34.6136 59.0289 41.001 52.3291C47.3884 45.6293 54 36.214 54 25.25V10.7041C54 7.63338 51.9017 4.9301 48.9287 4.16504H48.9199C43.7171 2.84039 33.9019 0.5 27 0.5ZM27 5C32.8217 5 42.7178 7.22982 47.8037 8.52441C48.8177 8.78535 49.5 9.66183 49.5 10.7041V25.25C49.5 34.365 43.7366 42.9461 37.749 49.2266C32.364 54.8749 28.0187 57.6568 26.9912 58.3408C25.9651 57.6729 21.6304 54.9686 16.251 49.3672C10.2695 43.1388 4.5 34.5711 4.5 25.25V10.7041C4.5 9.65184 5.17226 8.7828 6.1875 8.52441C11.2715 7.23006 21.1759 5 27 5ZM27 14C22.0561 14 18 18.0561 18 23C18 25.4116 18.9775 27.6013 20.54 29.2227C16.3702 31.5257 13.5 35.9199 13.5 41H18C18 36.0009 22.0009 32 27 32C31.9991 32 36 36.0009 36 41H40.5C40.5 35.9199 37.6298 31.5257 33.46 29.2227C35.0225 27.6013 36 25.4116 36 23C36 18.0561 31.9439 14 27 14ZM27 18.5C29.5119 18.5 31.5 20.4881 31.5 23C31.5 25.5119 29.5119 27.5 27 27.5C24.4881 27.5 22.5 25.5119 22.5 23C22.5 20.4881 24.4881 18.5 27 18.5Z" fill="#FBFBFB"/>
</svg>
