<svg xmlns="http://www.w3.org/2000/svg" fill="none" width="72" height="72" viewBox="0 0 72 72"><path d="M36 4.5c-6.902 0-16.717 2.34-21.92 3.665A6.767 6.767 0 0 0 9 14.705V29.25c0 11.136 6.605 20.571 12.999 27.228 6.393 6.658 12.806 10.68 12.806 10.68l1.213.755 1.195-.773s6.4-4.111 12.788-10.81C56.388 49.63 63 40.213 63 29.25V14.704a6.772 6.772 0 0 0-5.071-6.539h-.01C52.718 6.84 42.903 4.5 36 4.5zM36 9c5.822 0 15.718 2.23 20.804 3.524a2.226 2.226 0 0 1 1.696 2.18V29.25c0 9.115-5.763 17.696-11.751 23.977-5.385 5.648-9.73 8.43-10.758 9.114-1.026-.668-5.36-3.372-10.74-8.974C19.269 47.14 13.5 38.571 13.5 29.25V14.704c0-1.052.672-1.921 1.688-2.18C20.27 11.23 30.175 9 36 9zm0 9c-4.944 0-9 4.056-9 9 0 2.412.977 4.601 2.54 6.223C25.37 35.526 22.5 39.92 22.5 45H27c0-5 4-9 9-9s9 4 9 9h4.5c0-5.08-2.87-9.474-7.04-11.777C44.023 31.6 45 29.412 45 27c0-4.944-4.056-9-9-9zm0 4.5c2.512 0 4.5 1.988 4.5 4.5s-1.988 4.5-4.5 4.5a4.466 4.466 0 0 1-4.5-4.5c0-2.512 1.988-4.5 4.5-4.5z" fill="#FBFBFB"/></svg>