<svg xmlns="http://www.w3.org/2000/svg" fill="none" width="64" height="64" viewBox="0 0 64 64"><path d="M13.946 4.013a2 2 0 0 0-1.394 3.432l17.271 17.273a2 2 0 1 0 2.828-2.828l-6.325-6.328c1.791-.576 3.7-.896 5.674-.896 10.294 0 18.667 8.374 18.667 18.667C50.667 43.626 42.294 52 32 52c-10.293 0-18.666-8.374-18.666-18.667A18.585 18.585 0 0 1 19.2 19.76l-2.815-2.812a22.707 22.707 0 0 0-2.154 2.39l-2.818-2.818a2.672 2.672 0 0 1 .428-4.12l-2.123-2.12a5.25 5.25 0 0 1-.651-.788c-.16.12-.322.267-.482.427a6.642 6.642 0 0 0-1.958 4.708c0 1.787.705 3.466 1.958 4.719l3.404 3.404a22.434 22.434 0 0 0-2.656 10.583c0 3.826.96 7.431 2.643 10.596l-3.39 3.388v.003c-2.588 2.587-2.588 6.84 0 9.427 2.586 2.587 6.84 2.587 9.426 0l3.391-3.39A22.509 22.509 0 0 0 32 56c3.826 0 7.431-.96 10.597-2.644l3.388 3.391h.002c2.587 2.587 6.84 2.587 9.427 0 2.587-2.587 2.587-6.84 0-9.427l-3.39-3.39a22.509 22.509 0 0 0 2.643-10.597c0-3.826-.96-7.431-2.643-10.596l3.39-3.388v-.003c2.587-2.587 2.587-6.84 0-9.427a6.645 6.645 0 0 0-4.713-1.94 6.65 6.65 0 0 0-4.714 1.94l-3.39 3.39A22.509 22.509 0 0 0 32 10.667c-3.104 0-6.073.643-8.778 1.795L15.38 4.617a2 2 0 0 0-1.434-.604zm36.755 7.94c.678 0 1.356.265 1.885.794a2.636 2.636 0 0 1 0 3.77l-2.807 2.806a22.83 22.83 0 0 0-3.768-3.771l2.804-2.805a2.658 2.658 0 0 1 1.886-.794zM23.334 30.666a2.001 2.001 0 1 0 0 4h17.333a2 2 0 1 0 0-4H23.334zm0 8a2.001 2.001 0 1 0 0 4h9.333a2 2 0 1 0 0-4h-9.333zm-9.112 8.677a22.83 22.83 0 0 0 3.768 3.771l-2.805 2.805a2.636 2.636 0 0 1-3.77 0 2.636 2.636 0 0 1 0-3.77l2.807-2.806zm35.56 0 2.804 2.805a2.636 2.636 0 0 1 0 3.77 2.636 2.636 0 0 1-3.77 0l-2.805-2.806a22.835 22.835 0 0 0 3.77-3.769z" fill="#fff"/></svg>