<svg xmlns="http://www.w3.org/2000/svg" fill="none" width="64" height="64" viewBox="0 0 64 64"><path d="m5.3 55.906 8.117 5.9a1 1 0 0 0 1.176 0l8.117-5.9a8.02 8.02 0 0 0 3.29-6.47V38.002a1 1 0 0 0-1-1c-4.547 0-10.3-4.723-10.362-4.771a1.007 1.007 0 0 0-1.276 0C13.305 32.278 7.547 37 3 37a1 1 0 0 0-1 1v11.437a8.02 8.02 0 0 0 3.3 6.469zM4 38.944c4.076-.45 8.4-3.456 10-4.672 1.6 1.216 5.924 4.222 10 4.672v10.493a6.017 6.017 0 0 1-2.471 4.852L14 59.765l-7.529-5.476A6.018 6.018 0 0 1 4 49.437V38.944z" fill="#FBFBFB"/><path d="M10.706 47.292a1 1 0 0 0-1.414 1.414l3 3a1 1 0 0 0 1.414 0l9-9a1 1 0 0 0-1.414-1.414L13 49.585l-2.293-2.293z" fill="#FBFBFB"/><path d="M14 56a9.01 9.01 0 0 0 9-9 1 1 0 1 0-2 0 7 7 0 1 1-3.5-6.064 1 1 0 0 0 1-1.731A9 9 0 1 0 14 56zM3 18h5.72l-.5 2H6a1 1 0 0 0-1 1v4a1 1 0 0 0 1 1h14a1 1 0 0 0 1-1v-4a1 1 0 0 0-1-1h-2.22l-.5-2H23a1 1 0 0 0 1-1V3a1 1 0 0 0-1-1H3a1 1 0 0 0-1 1v14a1 1 0 0 0 1 1zm16 6H7v-2h12v2zm-3.28-4h-5.44l.5-2h4.44l.5 2zM4 4h18v12H4V4z" fill="#FBFBFB"/><path d="M16.383 6.076a1 1 0 0 0-1.09.217L13 8.586l-2.293-2.293A1 1 0 0 0 9 7v6a1 1 0 1 0 2 0V9.414l1.293 1.293a1 1 0 0 0 1.414 0L15 9.414V13a1 1 0 0 0 2 0V7a1 1 0 0 0-.617-.924zM43 6H27a1 1 0 1 0 0 2h15v2.586l-1.293-1.293a1 1 0 0 0-1.414 1.414l3 3a1 1 0 0 0 1.414 0l3-3a1 1 0 0 0-1.414-1.414L44 10.586V7a1 1 0 0 0-1-1zm0 46v-6a1 1 0 0 0-2 0v5h-9.586l1.293-1.293a1 1 0 0 0-1.414-1.414l-3 3a1 1 0 0 0 0 1.414l3 3a1 1 0 0 0 1.414-1.414L31.414 53H42a1 1 0 0 0 1-1zm14-19h-2v-1a5 5 0 0 0 4.984-4.841v-.047c0-.038.011-.074.011-.112v-5a6.006 6.006 0 0 0-6-6H45a2 2 0 0 0-2 2 6.006 6.006 0 0 0 6 6h6.5l2.47 3.293A2.993 2.993 0 0 1 55 30h-6a3 3 0 0 1-3-3v-2a1 1 0 0 0-2 0v2a5.006 5.006 0 0 0 5 5v1h-2a5.006 5.006 0 0 0-5 5v4a1 1 0 0 0 1 1h18a1 1 0 0 0 1-1v-4a5.006 5.006 0 0 0-5-5zm-1-11h-7a4 4 0 0 1-4-4h9a4 4 0 0 1 4 4v2l-1.2-1.6a.999.999 0 0 0-.8-.4zm-8 13h1.586l.635.635-2.221.888V35zm6.414 0H56v1.523l-2.221-.888.635-.635zM53 32v1.586l-1 1-1-1V32h2zm-9 6a3 3 0 0 1 2-2.816V38a.998.998 0 0 0 1.371.929L51 37.477V41h-7v-3zm16 3h-7v-3.523l3.629 1.452A1 1 0 0 0 58 38v-2.816A3 3 0 0 1 60 38v3z" fill="#FBFBFB"/><path d="M35 21a8 8 0 1 0 8 8 8.009 8.009 0 0 0-8-8zm0 14a6 6 0 1 1 0-12 6 6 0 0 1 0 12z" fill="#FBFBFB"/><path d="M35 24a5.019 5.019 0 0 0-4.33 2.5 1 1 0 0 0 1.73 1A3 3 0 0 1 38 29a1 1 0 1 0 2 0 5.006 5.006 0 0 0-5-5zm2.25 6.983a2.973 2.973 0 0 1-1.5.921 1 1 0 1 0 .5 1.938 4.975 4.975 0 0 0 2.5-1.536 1 1 0 0 0-1.5-1.323z" fill="#FBFBFB"/></svg>