<svg width="357" height="160" viewBox="0 0 357 160" fill="none" xmlns="http://www.w3.org/2000/svg">
<path d="M46 160C51.4 160 61.6 159.4 69.8 155.4C83.8 148.8 92.8 132.6 92.2 115.2C91.6 99.2 83.4 86.6 70 81.4C63.8 78.8 56.8 77.2 50 75.8C32.2 71.8 15.4 68 11.6 47.8C9 34.2 14.2 24.8 18.6 19.2C25.8 10.8 36.8 5.79999 48.2 5.79999C70 5.79999 79.6 21.4 84 35.2L66.8 43.2C65 37.2 62 31 55.4 28.2C47.4 25 38.6 28.4 34.8 36.4C30.6 44.8 33.2 54.4 41.6 60.2C42.8 61.2 44.8 60.8 45.8 59.6C46.6 58.4 46.2 56.6 45 55.6C39 51.4 37.2 44.8 40.2 39C42.6 33.8 48 31.4 53 33.6C58.6 35.8 61 42.4 62.2 48C62.4 48.8 63 49.6 63.8 50C64.6 50.4 65.4 50.4 66.2 50L88.6 39.4C89.8 38.8 90.6 37.4 90.2 36C83.8 12.8 69 -2.38419e-06 48.2 -2.38419e-06C35 -2.38419e-06 22.4 5.79999 14.2 15.6C9 22 3 33 5.8 48.8C10.2 72.8 29.8 77.2 48.8 81.4C55.4 82.8 61.8 84.4 67.8 86.8C78.8 91.2 85.8 102 86.4 115.4C86.8 130.4 79.2 144.4 67.4 150.2C61.8 152.8 54.2 154.4 46 154.4C18 154.4 11.2 133.4 7.4 119.6L25.6 112.2C27.4 119.6 30.6 129.4 40.6 132.2C46.2 133.8 51.6 133 56 129.6C60.4 126.4 63.2 120.8 63.2 114.4C63.2 103 56.2 98 49.8 95C48.4 94.4 46.6 94.8 46 96.2C45.4 97.6 45.8 99.4 47.4 100C52.6 102.6 57.4 106.2 57.4 114.4C57.4 118.8 55.8 122.6 52.6 125C49.8 127.2 46 127.8 42.2 126.6C34.6 124.4 32.4 116.4 30.6 107.6C30.4 106.8 29.8 106 29 105.6C28.2 105.4 27.4 105.2 26.6 105.6L2.6 115.2C1.4 115.6 0.6 117 1 118.4V119.2C5 133.4 12.2 160 46 160ZM140.692 160C142.292 160 143.492 158.8 143.492 157.2V45C143.492 30.4 135.492 28.6 128.492 28.6H91.0922V5.79999H161.492V29.2H156.892C155.292 29.2 154.092 30.4 154.092 32C154.092 33.6 155.292 35 156.892 35H164.492C166.092 35 167.292 33.6 167.292 32V2.99999C167.292 1.39999 166.092 -2.38419e-06 164.492 -2.38419e-06H88.2922C86.6922 -2.38419e-06 85.4922 1.39999 85.4922 2.99999V31.4C85.4922 33 86.6922 34.4 88.2922 34.4H128.492C134.092 34.4 137.692 35.2 137.692 45V154.4H114.292V50.4C114.292 48.8 113.092 47.6 111.492 47.6C109.892 47.6 108.692 48.8 108.692 50.4V157.2C108.692 158.8 109.892 160 111.492 160H140.692ZM267.689 156.6L253.889 98.4L230.689 2.39999C230.289 0.999997 229.289 -2.38419e-06 227.889 -2.38419e-06H197.089C195.689 -2.38419e-06 194.489 0.999997 194.089 2.39999L171.089 98.4L157.289 156.6C157.089 157.4 157.289 158.4 157.889 159C158.289 159.6 159.289 160 160.089 160H189.289H190.089C190.489 160 190.889 159.8 191.289 159.4C191.689 159.2 191.889 158.8 192.089 158.4C192.089 158.4 192.289 157.8 192.289 157.6L200.689 111.4C202.089 104 203.889 101.8 211.889 101.8L212.289 101.6L212.489 101.8H224.889H225.289C225.489 101.8 225.889 101.6 226.089 101.6C226.489 101.4 226.889 101 227.089 100.8C227.289 100.4 227.689 100 227.689 99.6V98.6V98.4L215.289 31.2C215.089 30 214.089 29 212.489 29C211.089 29 209.889 30 209.689 31.2L200.489 80.6C200.289 82.2 201.289 83.4 202.889 83.8C204.489 84 206.089 83.2 206.289 81.6L212.489 47.6L221.489 96H212.489H212.289H211.889C200.289 96 196.689 101.6 195.089 110.4L187.089 154.4H163.689L176.889 99.8L199.289 5.79999H225.689L248.289 99.6L261.289 154.4H238.089L234.489 134.4L232.489 123.4C232.489 122 230.889 120.8 229.289 121H214.689C213.089 121 211.689 122.4 211.689 124C211.689 125.6 213.089 126.8 214.689 126.8H227.289L228.889 135.6L233.089 157.6C233.089 157.8 233.289 158.4 233.289 158.4C233.489 158.8 233.689 159.2 234.089 159.4C234.289 159.6 234.889 160 235.089 160H235.889H265.089C265.889 160 266.889 159.6 267.289 159C267.689 158.4 267.689 156.6 267.689 156.6ZM325.056 160C326.656 160 327.856 158.8 327.856 157.2V92.4C327.856 90.8 326.656 89.6 325.056 89.6C323.456 89.6 322.056 90.8 322.056 92.4V154.4H298.056V91C298.056 90.6 298.056 90.4 298.056 90L270.256 5.79999H292.656C296.056 15.2 310.256 56.8 314.456 69C316.056 73.6 319.656 76.4 324.456 76.4C329.256 76.4 333.656 73.4 335.056 69.2C338.456 59.2 356.456 4.19999 356.456 3.8C356.856 2.99999 356.656 2 356.256 1.19999C355.656 0.399992 354.856 -2.38419e-06 353.856 -2.38419e-06H325.456C324.256 -2.38419e-06 322.856 0.999997 322.656 2.39999L315.656 30.6C315.256 32.2 316.056 33.8 317.656 34.2C319.256 34.4 320.856 33.6 321.256 32L327.656 5.79999H349.856C345.656 18.4 332.456 58.8 329.656 67.2C329.056 69.2 326.856 70.4 324.456 70.4C322.856 70.4 320.856 70 319.856 67.2C315.056 53.2 297.456 2 297.456 2C297.256 0.799987 296.056 -2.38419e-06 294.856 -2.38419e-06H266.456C265.456 -2.38419e-06 264.456 0.399992 264.056 1.19999C263.656 2 263.456 2.99999 263.656 3.8L292.456 91.4V157.2C292.456 158.8 293.656 160 295.256 160H325.056Z" fill="#FBFBFB" fill-opacity="0.8"/>
</svg>
