<svg xmlns="http://www.w3.org/2000/svg" fill="none" width="65" height="65" viewBox="0 0 65 65"><path d="M32.5 44.688c6.731 0 12.188-5.457 12.188-12.188 0-6.731-5.457-12.188-12.188-12.188-6.731 0-12.188 5.457-12.188 12.188 0 6.731 5.457 12.188 12.188 12.188zm19.297-20.313a5.078 5.078 0 1 0 0-10.156 5.078 5.078 0 0 0 0 10.156zM11.172 16.25a5.078 5.078 0 1 0 0-10.156 5.078 5.078 0 0 0 0 10.156zm4.062 42.656a5.078 5.078 0 1 0 0-10.156 5.078 5.078 0 0 0 0 10.156zm38.594-6.093a5.078 5.078 0 1 0 0-10.157 5.078 5.078 0 0 0 0 10.157zM24.984 42.047l-6.5 7.922m-3.656-35.14 9.14 9.14m23.766-1.625-5.078 3.453m7.11 18.89-7.313-5.28" stroke="#FBFBFB" stroke-linejoin="round" stroke-miterlimit="10" stroke-width="2"/></svg>