<svg width="65" height="65" viewBox="0 0 65 65" fill="none" xmlns="http://www.w3.org/2000/svg">
<path d="M32.5 44.6875C39.231 44.6875 44.6875 39.231 44.6875 32.5C44.6875 25.769 39.231 20.3125 32.5 20.3125C25.769 20.3125 20.3125 25.769 20.3125 32.5C20.3125 39.231 25.769 44.6875 32.5 44.6875Z" stroke="#FBFBFB" stroke-width="2" stroke-miterlimit="10" stroke-linejoin="round"/>
<path d="M51.7969 24.375C54.6014 24.375 56.875 22.1014 56.875 19.2969C56.875 16.4923 54.6014 14.2188 51.7969 14.2188C48.9923 14.2188 46.7188 16.4923 46.7188 19.2969C46.7188 22.1014 48.9923 24.375 51.7969 24.375Z" stroke="#FBFBFB" stroke-width="2" stroke-miterlimit="10" stroke-linejoin="round"/>
<path d="M11.1719 16.25C13.9764 16.25 16.25 13.9764 16.25 11.1719C16.25 8.3673 13.9764 6.09375 11.1719 6.09375C8.3673 6.09375 6.09375 8.3673 6.09375 11.1719C6.09375 13.9764 8.3673 16.25 11.1719 16.25Z" stroke="#FBFBFB" stroke-width="2" stroke-miterlimit="10" stroke-linejoin="round"/>
<path d="M15.2344 58.9062C18.0389 58.9062 20.3125 56.6327 20.3125 53.8281C20.3125 51.0236 18.0389 48.75 15.2344 48.75C12.4298 48.75 10.1562 51.0236 10.1562 53.8281C10.1562 56.6327 12.4298 58.9062 15.2344 58.9062Z" stroke="#FBFBFB" stroke-width="2" stroke-miterlimit="10" stroke-linejoin="round"/>
<path d="M53.8281 52.8125C56.6327 52.8125 58.9062 50.5389 58.9062 47.7344C58.9062 44.9298 56.6327 42.6562 53.8281 42.6562C51.0236 42.6562 48.75 44.9298 48.75 47.7344C48.75 50.5389 51.0236 52.8125 53.8281 52.8125Z" stroke="#FBFBFB" stroke-width="2" stroke-miterlimit="10" stroke-linejoin="round"/>
<path d="M24.9844 42.0469L18.4844 49.9688" stroke="#FBFBFB" stroke-width="2" stroke-miterlimit="10" stroke-linejoin="round"/>
<path d="M14.8281 14.8281L23.9688 23.9688" stroke="#FBFBFB" stroke-width="2" stroke-miterlimit="10" stroke-linejoin="round"/>
<path d="M47.7344 22.3438L42.6562 25.7969" stroke="#FBFBFB" stroke-width="2" stroke-miterlimit="10" stroke-linejoin="round"/>
<path d="M49.7656 44.6875L42.4531 39.4062" stroke="#FBFBFB" stroke-width="2" stroke-miterlimit="10" stroke-linejoin="round"/>
</svg>
