<svg xmlns="http://www.w3.org/2000/svg" fill="none" width="72" height="72" viewBox="0 0 72 72"><g clip-path="url(#a)"><path d="M61.171 72h-.69a70.386 70.386 0 0 1-39.86-18.028l-2.506-2.506A70.387 70.387 0 0 1 0 11.52a5.99 5.99 0 0 1 3.83-6.25L16.762.26a3.715 3.715 0 0 1 4.608 1.699l9.072 16.675a3.744 3.744 0 0 1-.634 4.406l-8.294 8.15a.835.835 0 0 0 0 1.095 85.413 85.413 0 0 0 8.323 10.368 78.208 78.208 0 0 0 10.022 7.978.835.835 0 0 0 1.066 0l8.035-8.439a3.743 3.743 0 0 1 4.435-.662l16.675 9.072a3.744 3.744 0 0 1 1.7 4.608l-5.011 12.931a5.99 5.99 0 0 1-5.588 3.86zM22.608 51.84a67.478 67.478 0 0 0 38.189 17.28 3.11 3.11 0 0 0 3.254-1.987l5.07-12.931a.835.835 0 0 0-.375-1.037l-16.762-9.1a.835.835 0 0 0-1.008.143l-8.15 8.295a3.687 3.687 0 0 1-4.724.49 80.98 80.98 0 0 1-10.425-8.324 88.26 88.26 0 0 1-8.64-10.8 3.715 3.715 0 0 1 .46-4.752l8.295-8.121a.835.835 0 0 0 .144-1.008l-9.1-16.676a.835.835 0 0 0-1.037-.432L4.867 7.95a3.11 3.11 0 0 0-1.987 3.254A67.507 67.507 0 0 0 20.16 49.42l2.448 2.42z" fill="#fff"/></g><defs><clipPath id="a"><path d="M0 0h72v72H0z" fill="#fff"/></clipPath></defs></svg>