<svg xmlns="http://www.w3.org/2000/svg" fill="none" width="51" height="72" viewBox="0 0 51 72"><path d="M25.272 0C11.337 0 0 10.767 0 24a23.09 23.09 0 0 0 3.034 11.405L23.89 71.227c.277.477.806.773 1.382.773.575 0 1.104-.296 1.382-.773l20.863-35.834A23.089 23.089 0 0 0 50.543 24c0-13.233-11.337-24-25.271-24zm19.473 33.954L25.272 67.4 5.806 33.967A20.192 20.192 0 0 1 3.159 24c0-11.58 9.92-21 22.113-21s22.112 9.42 22.112 21c0 3.476-.915 6.923-2.639 9.954z" fill="#fff"/><path d="M25.272 11.999c-6.967 0-12.635 5.383-12.635 12s5.668 12 12.635 12c6.968 0 12.636-5.383 12.636-12 0-6.616-5.668-12-12.636-12zm0 21c-5.225 0-9.476-4.037-9.476-9s4.25-9 9.476-9c5.226 0 9.477 4.037 9.477 9s-4.25 9-9.477 9z" fill="#fff"/></svg>