<svg xmlns="http://www.w3.org/2000/svg" fill="none" width="452" height="347" viewBox="0 0 452 347"><g clip-path="url(#a)"><path d="M145.441 53.996h-.922v49.381h.922v-49.38zm0 64.078h-.922v43.45h.922v-43.45zm69.149 50.373h-71.454v.923h71.454v-.923zm-100.958 12.461h-.922v39.228h.922v-39.228zm115.709 46.151H121.008v.923h108.333v-.923zm90.354-204.446h-.922v46.612h.922V22.613zm-7.836 53.996h-67.782v.923h67.782v-.923zm-74.681 7.383h-.922v62.303h.922V83.992z" fill="#3F3D56"/><path d="M144.979 118.605c-1.55 0-3.065-.46-4.353-1.322a7.845 7.845 0 0 1-3.333-8.054 7.836 7.836 0 0 1 10.685-5.718 7.85 7.85 0 0 1 4.838 7.249 7.854 7.854 0 0 1-2.298 5.545 7.842 7.842 0 0 1-5.539 2.3zm0-14.768a6.92 6.92 0 0 0-6.782 8.273 6.911 6.911 0 0 0 12.532 2.495 6.922 6.922 0 0 0-5.75-10.768zm-31.347 131.528a7.832 7.832 0 0 1-7.241-4.843 7.85 7.85 0 0 1 5.712-10.697 7.825 7.825 0 0 1 8.045 3.336 7.852 7.852 0 0 1 1.321 4.358 7.861 7.861 0 0 1-2.298 5.545 7.839 7.839 0 0 1-5.539 2.301zm0-14.768a6.914 6.914 0 0 0-6.389 4.273 6.932 6.932 0 0 0 1.499 7.544 6.912 6.912 0 0 0 11.805-4.895 6.933 6.933 0 0 0-2.028-4.892 6.917 6.917 0 0 0-4.887-2.03z" fill="#3F3D56"/><path d="M145.44 176.293c4.074 0 7.376-3.306 7.376-7.384s-3.302-7.384-7.376-7.384c-4.073 0-7.376 3.306-7.376 7.384s3.303 7.384 7.376 7.384z" fill="#018F6A"/><path d="M412.355 110.299H335.83v.923h76.525v-.923zm-83.44 7.775h-.922v43.45h.922v-43.45zm-8.297 50.373h-61.312v.923h61.312v-.923zm110.177 4.155h-63.617v.923h63.617v-.923zm-70.071 8.306h-.922v39.228h.922v-39.228zm-8.298 46.151H244.093v.923h108.333v-.923zm-115.248-35.536h-.922v28.613h.922v-28.613z" fill="#3F3D56"/><path d="M328.454 118.145c4.074 0 7.376-3.306 7.376-7.384s-3.302-7.384-7.376-7.384-7.376 3.306-7.376 7.384 3.302 7.384 7.376 7.384z" fill="#018F6A"/><path d="M319.234 84.455a7.831 7.831 0 0 1-7.24-4.843 7.858 7.858 0 0 1 1.699-8.55 7.833 7.833 0 0 1 13.378 5.547 7.858 7.858 0 0 1-2.298 5.545 7.84 7.84 0 0 1-5.539 2.3zm0-14.768a6.909 6.909 0 0 0-6.388 4.273 6.923 6.923 0 0 0 5.039 9.439 6.91 6.91 0 0 0 7.099-2.944 6.926 6.926 0 0 0-5.75-10.768zm-82.517 14.768a7.831 7.831 0 0 1-7.241-4.843 7.858 7.858 0 0 1 1.699-8.55 7.836 7.836 0 0 1 8.541-1.701 7.853 7.853 0 0 1 4.838 7.248 7.862 7.862 0 0 1-2.298 5.545 7.84 7.84 0 0 1-5.539 2.3zm0-14.768a6.91 6.91 0 0 0-6.389 4.273 6.93 6.93 0 0 0 1.499 7.544 6.91 6.91 0 0 0 10.639-1.049 6.927 6.927 0 0 0 1.166-3.846 6.936 6.936 0 0 0-2.028-4.892 6.918 6.918 0 0 0-4.887-2.03zm123.085 111.682a7.832 7.832 0 0 1-7.241-4.843 7.859 7.859 0 0 1 1.699-8.55 7.834 7.834 0 0 1 8.541-1.701 7.852 7.852 0 0 1 4.838 7.248 7.863 7.863 0 0 1-2.298 5.545 7.847 7.847 0 0 1-5.539 2.301zm0-14.768a6.914 6.914 0 0 0-6.389 4.273 6.932 6.932 0 0 0 1.499 7.544 6.912 6.912 0 0 0 11.805-4.895 6.933 6.933 0 0 0-2.028-4.892 6.917 6.917 0 0 0-4.887-2.03z" fill="#3F3D56"/><path d="M359.802 234.903c4.073 0 7.376-3.306 7.376-7.384s-3.303-7.384-7.376-7.384c-4.074 0-7.376 3.306-7.376 7.384s3.302 7.384 7.376 7.384z" fill="#018F6A"/><path d="M236.717 235.365a7.832 7.832 0 0 1-7.241-4.843 7.859 7.859 0 0 1 1.699-8.55 7.832 7.832 0 0 1 12.058 1.189 7.852 7.852 0 0 1 1.321 4.358 7.861 7.861 0 0 1-2.298 5.545 7.839 7.839 0 0 1-5.539 2.301zm0-14.768a6.914 6.914 0 0 0-6.389 4.273 6.932 6.932 0 0 0 1.499 7.544 6.912 6.912 0 0 0 11.805-4.895 6.933 6.933 0 0 0-2.028-4.892 6.917 6.917 0 0 0-4.887-2.03zm91.276-43.842a7.832 7.832 0 0 1-7.24-4.843 7.85 7.85 0 0 1 5.711-10.697 7.833 7.833 0 0 1 8.045 3.336 7.853 7.853 0 0 1 1.321 4.359 7.859 7.859 0 0 1-2.298 5.545 7.838 7.838 0 0 1-5.539 2.3zm0-14.768a6.91 6.91 0 0 0-6.388 4.274 6.922 6.922 0 0 0 9.034 9.045 6.92 6.92 0 0 0 2.241-11.289 6.917 6.917 0 0 0-4.887-2.03zm-214.361-4.153a9.22 9.22 0 0 0-8.518 5.698 9.235 9.235 0 0 0 6.719 12.585 9.215 9.215 0 0 0 9.465-3.925 9.238 9.238 0 0 0 1.554-5.128 9.262 9.262 0 0 0-2.709-6.519 9.24 9.24 0 0 0-6.511-2.711zm0 2.769a2.76 2.76 0 0 1 2.555 1.709 2.773 2.773 0 0 1-.599 3.018 2.762 2.762 0 0 1-4.256-.42 2.768 2.768 0 0 1 .347-3.493 2.77 2.77 0 0 1 1.953-.814zm0 13.33a6.712 6.712 0 0 1-5.532-2.955c.044-1.846 3.688-2.862 5.532-2.862 1.844 0 5.488 1.016 5.532 2.862a6.73 6.73 0 0 1-5.532 2.955zm31.809-142.09a9.213 9.213 0 0 0-8.518 5.699 9.236 9.236 0 0 0 1.998 10.058 9.218 9.218 0 0 0 10.048 2.001 9.226 9.226 0 0 0 5.691-8.527 9.26 9.26 0 0 0-2.708-6.519 9.24 9.24 0 0 0-6.511-2.711zm0 2.77a2.762 2.762 0 0 1 2.555 1.71 2.772 2.772 0 0 1-2.016 3.775 2.763 2.763 0 0 1-3.305-2.716 2.778 2.778 0 0 1 2.766-2.77zm0 13.33a6.712 6.712 0 0 1-5.532-2.955c.044-1.846 3.688-2.863 5.532-2.863 1.844 0 5.487 1.017 5.531 2.863a6.727 6.727 0 0 1-5.531 2.955zM319.235 0a9.213 9.213 0 0 0-8.519 5.698 9.244 9.244 0 0 0 1.999 10.059 9.219 9.219 0 0 0 10.048 2 9.231 9.231 0 0 0 5.691-8.527 9.26 9.26 0 0 0-2.708-6.519A9.24 9.24 0 0 0 319.235 0zm0 2.769a2.762 2.762 0 0 1 2.555 1.71 2.772 2.772 0 0 1-2.016 3.775 2.763 2.763 0 0 1-2.839-1.178 2.77 2.77 0 0 1-.466-1.538 2.778 2.778 0 0 1 2.766-2.769zm0 13.33a6.712 6.712 0 0 1-5.532-2.955c.044-1.846 3.688-2.862 5.532-2.862 1.843 0 5.487 1.016 5.531 2.862a6.728 6.728 0 0 1-5.531 2.955zm106.028 84.969a9.225 9.225 0 0 0-8.518 5.698 9.237 9.237 0 0 0 1.998 10.059 9.22 9.22 0 0 0 10.048 2.001 9.238 9.238 0 0 0 5.692-8.528 9.26 9.26 0 0 0-2.709-6.518 9.242 9.242 0 0 0-6.511-2.712zm0 2.769a2.768 2.768 0 0 1 1.956 4.727 2.762 2.762 0 0 1-4.256-.419 2.773 2.773 0 0 1-.466-1.539 2.78 2.78 0 0 1 2.766-2.769zm0 13.331a6.712 6.712 0 0 1-5.532-2.956c.044-1.846 3.688-2.862 5.532-2.862 1.844 0 5.487 1.016 5.532 2.862a6.733 6.733 0 0 1-5.532 2.956zm17.517 46.203a9.227 9.227 0 0 0-9.042 11.031 9.233 9.233 0 0 0 2.523 4.726 9.212 9.212 0 0 0 14.185-1.399 9.23 9.23 0 0 0 1.554-5.128 9.265 9.265 0 0 0-2.708-6.519 9.245 9.245 0 0 0-6.512-2.711zm0 2.769a2.769 2.769 0 1 1-1.058 5.327 2.769 2.769 0 0 1-1.708-2.558 2.776 2.776 0 0 1 2.766-2.769zm0 13.33a6.71 6.71 0 0 1-5.531-2.955c.044-1.846 3.687-2.862 5.531-2.862 1.844 0 5.488 1.016 5.532 2.862a6.73 6.73 0 0 1-5.532 2.955z" fill="#3F3D56"/><path d="m237.306 163.217-.945 3.791c1.071.267 4.372 1.357 4.907-.788.557-2.237-2.891-2.736-3.962-3.003zm-1.421 5.705-1.042 4.18c1.285.32 5.251 1.595 5.838-.764.612-2.459-3.511-3.095-4.796-3.416z" fill="#018F6A"/><path d="M241.576 151.932a17.26 17.26 0 0 0-10.022.504 17.286 17.286 0 0 0-8.053 5.992 17.311 17.311 0 0 0-.922 19.204 17.282 17.282 0 0 0 17.369 8.202 17.28 17.28 0 0 0 9.067-4.305 17.308 17.308 0 0 0 5.474-15.365 17.307 17.307 0 0 0-6.813-11.353 17.28 17.28 0 0 0-6.1-2.879zm3.44 14.324c-.25 1.685-1.183 2.502-2.422 2.787 1.701.887 2.567 2.248 1.742 4.606-1.023 2.928-3.456 3.175-6.69 2.563l-.785 3.149-1.897-.473.775-3.108a71.336 71.336 0 0 1-1.512-.392l-.777 3.122-1.895-.474.785-3.155c-.443-.113-.893-.234-1.352-.349l-2.468-.616.941-2.174s1.398.373 1.379.345a.7.7 0 0 0 .528-.044.682.682 0 0 0 .341-.407l1.241-4.978.2.049a1.734 1.734 0 0 0-.197-.063l.884-3.554a1.01 1.01 0 0 0-.883-1.104c.03-.02-1.378-.343-1.378-.343l.505-2.028 2.616.654-.002.01c.393.098.798.19 1.211.284l.778-3.118 1.895.473-.761 3.058c.509.116 1.021.233 1.52.357l.756-3.037 1.897.473-.777 3.12c2.394.825 4.146 2.063 3.802 4.367z" fill="#018F6A"/><path d="M70.07 338.415C68.76 350.357-.103 349.354 0 338.414c1.312-11.941 70.175-10.939 70.07.001z" fill="#E6E6E6"/><path d="m47.83 308.354 2.792 6.054 5.117-.465 3.257-10.713-5.118-2.794-6.048 7.918zm-17.57 13.945-.11 4.22 7.91.465v-5.123l-7.8.438z" fill="#FFB8B8"/><path d="m32.942 245.476 1.86 37.261-4.652 40.522 13.958 1.863 8.84-51.234 2.791-34.933-22.797 6.521z" fill="#2F2E41"/><path d="M11.075 231.968s-5.583 36.795 6.048 48.905 27.45 33.535 27.45 33.535l11.166-13.973-28.38-30.275 5.583-20.493 22.797-10.713-3.722-25.617-33.498-.466-7.444 19.097z" fill="#2F2E41"/><path d="M38.525 146.734c5.653 0 10.235-4.588 10.235-10.247s-4.582-10.247-10.235-10.247-10.236 4.588-10.236 10.247 4.583 10.247 10.236 10.247z" fill="#FFB8B8"/><path d="M29.685 138.814s-.465 14.439-2.792 16.302c-2.326 1.863 8.375 9.781 8.375 9.781l6.979-11.178v-10.247l-12.562-4.658z" fill="#FFB8B8"/><path d="m34.337 158.377-5.649-8.539-3.19 4.347-4.653 13.041 3.722 50.769 21.867.465 2.791-58.22-6.979-8.384-7.909 6.521z" fill="#D0CDE1"/><path d="m58.066 161.638 3.722-.466s.93.466 1.395 3.726c.466 3.26 6.049 32.138 6.049 32.138l-7.444 35.398-8.375-11.178 5.118-19.562-5.118-19.563 4.653-20.493zm-47.456-.466H7.818L.84 198.899l6.513 29.344 6.514-10.713-1.862-11.644.931-10.247 3.257-6.055-5.583-28.412zm41.407 151.374s-2.791-.931-2.791.932 1.86 7.452 1.86 7.452-2.79 17.234 1.396 16.302c4.188-.931 7.444-8.85 7.91-11.178.465-2.329 2.791-14.439 2.791-14.439s3.722-8.85 1.396-9.315c-2.326-.466-8.84-2.329-8.84-2.329s3.722 11.644-3.722 12.575zm-13.492 14.44s-7.444-4.658-8.84-.932a39.18 39.18 0 0 0-1.861 8.384s-1.861 6.055 5.583 5.123c7.444-.931 6.514-.931 6.979-3.726.465-2.794-1.861-8.849-1.861-8.849zm-6.048-190.5 1.86-.466s1.396-7.918 4.653-6.986c3.257.931 11.631 1.863 11.631-1.863s-7.909-6.987-12.561-6.521c-4.653.466-12.562 1.863-12.097 8.85.465 6.986 3.467 13.782 3.467 13.782l.243-4.142 2.804-2.654z" fill="#2F2E41"/><path d="m42.247 163.967-7.91-5.589 7.91-6.521 2.746 3.299-2.746 8.811zm-14.889-.466 6.98-5.123-5.584-8.384-3.257 4.192 1.861 9.315z" fill="#D0CDE1"/><path d="m61.322 161.172-14.888-6.055-3.49-2.561-10.467 46.343-6.98-20.959 2.095-26.782-19.309 10.014 6.514 31.672.93 12.11-2.791 9.781s-9.77 6.987-6.514 14.439c3.257 7.452 6.98 7.918 6.98 7.918s15.818-14.904 16.748-18.63c.93-3.727 2.327-10.247 2.327-10.247s7.909 29.809 17.214 29.343c9.305-.466 9.305-10.247 9.305-10.247l-2.326-10.247-3.722-10.712 1.86-17.7 6.514-27.48z" fill="#2F2E41"/></g><defs><clipPath id="a"><path d="M0 0h452v347H0z" fill="#fff"/></clipPath></defs></svg>