<svg xmlns="http://www.w3.org/2000/svg" fill="none" width="531" height="347" viewBox="0 0 531 347"><g clip-path="url(#a)"><path d="m352.966 317.506-.66-.982c.977-.659 1.947-1.328 2.91-2.006l.68.968a169.01 169.01 0 0 1-2.93 2.02zm-95.399 29.495-.008-1.185c2.391-.017 4.808-.084 7.183-.199l.057 1.183c-2.391.116-4.825.183-7.232.201zm-7.234-.097a175.597 175.597 0 0 1-7.223-.395l.088-1.181c2.377.179 4.791.312 7.175.392l-.04 1.184zm21.682-.603-.106-1.179c2.373-.214 4.775-.48 7.14-.793l.155 1.174c-2.381.315-4.8.584-7.189.798zm-36.107-.486c-2.39-.281-4.801-.615-7.166-.994l.186-1.17c2.35.377 4.744.709 7.118.988l-.138 1.176zm50.445-1.411-.203-1.166c2.346-.411 4.718-.878 7.049-1.388l.252 1.157c-2.347.514-4.735.984-7.098 1.397zm-64.73-.877a172.085 172.085 0 0 1-7.058-1.592l.284-1.149c2.314.573 4.673 1.105 7.01 1.58l-.236 1.161zm78.861-2.214-.3-1.146c2.306-.607 4.63-1.272 6.908-1.976l.349 1.132a172.892 172.892 0 0 1-6.957 1.99zm-92.921-1.27a174.724 174.724 0 0 1-6.914-2.186l.38-1.122c2.265.769 4.575 1.499 6.866 2.171l-.332 1.137zm106.744-3.001-.396-1.116c2.247-.8 4.508-1.658 6.719-2.551l.442 1.098c-2.227.9-4.503 1.764-6.765 2.569zm-120.472-1.661c-2.245-.87-4.5-1.798-6.702-2.76l.473-1.085c2.187.955 4.426 1.877 6.656 2.741l-.427 1.104zm133.888-3.759-.488-1.078a172.886 172.886 0 0 0 6.482-3.107l.533 1.057a172.168 172.168 0 0 1-6.527 3.128zm-147.169-2.04a173.163 173.163 0 0 1-6.444-3.313l.561-1.042a173.147 173.147 0 0 0 6.401 3.29l-.518 1.065zm160.085-4.488-.576-1.034a170.553 170.553 0 0 0 6.199-3.639l.619 1.009a173.533 173.533 0 0 1-6.242 3.664zM167.81 322.69a174.848 174.848 0 0 1-6.143-3.84l.647-.991c2 1.308 4.053 2.592 6.101 3.813l-.605 1.018zm-12.12-7.932a176.25 176.25 0 0 1-5.8-4.337l.727-.934a176.38 176.38 0 0 0 5.761 4.308l-.688.963zm-11.415-8.912a175.447 175.447 0 0 1-5.419-4.804l.802-.87a173.053 173.053 0 0 0 5.382 4.771l-.765.903zm-10.633-9.828a175.196 175.196 0 0 1-5.002-5.235l.871-.801a172.842 172.842 0 0 0 4.968 5.2l-.837.836zm-9.781-10.673a175.05 175.05 0 0 1-4.549-5.632l.934-.725a175.116 175.116 0 0 0 4.518 5.593l-.903.764zm-8.86-11.447a175.426 175.426 0 0 1-4.065-5.989l.992-.646a173.068 173.068 0 0 0 4.037 5.949l-.964.686zm-7.876-12.142a172.641 172.641 0 0 1-3.552-6.304l1.042-.561a171.798 171.798 0 0 0 3.527 6.262l-1.017.603zm-6.836-12.751a173.915 173.915 0 0 1-3.01-6.578l1.085-.471a171.799 171.799 0 0 0 2.99 6.533l-1.065.516zm-5.743-13.274a173.099 173.099 0 0 1-2.45-6.81l1.12-.378c.76 2.26 1.58 4.535 2.434 6.763l-1.104.425zm-4.633-13.787a172.4 172.4 0 0 1-.957-3.434l1.142-.307c.305 1.142.622 2.278.95 3.411l-1.135.33zm337.379-67.753a176.421 176.421 0 0 0-.428-3.514l1.173-.156c.155 1.176.299 2.356.43 3.539l-1.175.131zm-15.3 95.496-1.062-.521a172.729 172.729 0 0 0 2.934-6.327l1.082.478a172.524 172.524 0 0 1-2.954 6.37zm5.648-12.856-1.101-.433a171.889 171.889 0 0 0 2.411-6.544l1.117.386a174.344 174.344 0 0 1-2.427 6.591zm4.584-13.274-1.132-.341a174.4 174.4 0 0 0 1.87-6.721l1.145.295a173.701 173.701 0 0 1-1.883 6.767zm3.489-13.605-1.156-.247c.483-2.264.926-4.569 1.317-6.852l1.165.201c-.393 2.298-.84 4.619-1.326 6.898zm2.372-13.845-1.172-.153c.298-2.292.553-4.626.759-6.936l1.178.105a176.158 176.158 0 0 1-.765 6.984zm1.248-13.993-1.181-.058c.112-2.308.18-4.655.201-6.975l1.182.01a178.275 178.275 0 0 1-.202 7.023zm-1.056-14.011c-.071-2.316-.19-4.66-.353-6.966l1.179-.084c.165 2.322.284 4.682.356 7.013l-1.182.037zm-21.21 90.926-1.028-.585a168.961 168.961 0 0 0 1.712-3.094l1.04.563a171.365 171.365 0 0 1-1.724 3.116zM100.91 99.44l-1.067-.51c.511-1.073 1.032-2.14 1.565-3.202l1.056.532a180.401 180.401 0 0 0-1.554 3.18zm4.856-9.439-1.034-.574a175.951 175.951 0 0 1 3.581-6.16l1.009.618A173.538 173.538 0 0 0 105.766 90zm298.028-5.285a172.566 172.566 0 0 0-3.768-5.984l.987-.652a175.04 175.04 0 0 1 3.794 6.025l-1.013.61zm-290.667-6.799-.983-.657a174.97 174.97 0 0 1 4.073-5.846l.956.697a173.643 173.643 0 0 0-4.046 5.806zm282.889-5.01a175.18 175.18 0 0 0-4.245-5.655l.931-.731a175.665 175.665 0 0 1 4.274 5.694l-.96.692zm-274.563-6.43-.927-.736a175.005 175.005 0 0 1 4.537-5.492l.895.774a172.82 172.82 0 0 0-4.505 5.454zm265.845-4.703a172.093 172.093 0 0 0-4.693-5.29l.868-.805a175.552 175.552 0 0 1 4.725 5.327l-.9.768zm-256.615-6.017-.864-.81a176.238 176.238 0 0 1 4.968-5.1l.83.843a173.325 173.325 0 0 0-4.934 5.068zm247.018-4.369a175.575 175.575 0 0 0-5.109-4.89l.799-.873a175.82 175.82 0 0 1 5.144 4.924l-.834.84zM140.753 45.83l-.794-.877a174.61 174.61 0 0 1 5.366-4.678l.758.909c-1.8 1.506-3.593 3.07-5.33 4.646zm226.534-4.01a173.343 173.343 0 0 0-5.491-4.457l.725-.935a173.904 173.904 0 0 1 5.529 4.488l-.763.904zm-215.69-5.06-.72-.94a175.569 175.569 0 0 1 5.729-4.223l.681.968a174.997 174.997 0 0 0-5.69 4.194zm204.529-3.627a173.782 173.782 0 0 0-5.837-3.993l.646-.992a174.288 174.288 0 0 1 5.878 4.021l-.687.964zm-192.983-4.525-.641-.995a174.285 174.285 0 0 1 6.054-3.739l.6 1.021a172.537 172.537 0 0 0-6.013 3.713zm181.148-3.219a171.803 171.803 0 0 0-6.147-3.5l.564-1.042a174.12 174.12 0 0 1 6.189 3.525l-.606 1.017zm-168.976-3.957-.558-1.044c2.083-1.115 4.215-2.2 6.339-3.227l.514 1.066a172.086 172.086 0 0 0-6.295 3.205zm156.543-2.789a172.09 172.09 0 0 0-6.415-2.982l.475-1.084c2.159.95 4.332 1.96 6.46 3.003l-.52 1.063zM188.03 15.285l-.469-1.088a173.971 173.971 0 0 1 6.58-2.692l.425 1.106a170.974 170.974 0 0 0-6.536 2.673zm130.879-2.34a171.421 171.421 0 0 0-6.641-2.441l.384-1.12a173.05 173.05 0 0 1 6.688 2.458l-.431 1.103zM201.205 10.21l-.378-1.122a171.931 171.931 0 0 1 6.778-2.138l.332 1.137c-2.245.657-4.51 1.372-6.732 2.123zM305.53 8.34a171.278 171.278 0 0 0-6.823-1.884l.291-1.148a172.67 172.67 0 0 1 6.87 1.896l-.338 1.135zm-90.781-2.096-.285-1.15a172.676 172.676 0 0 1 6.929-1.57l.237 1.161c-2.291.47-4.606.994-6.881 1.559zm77.062-1.387a171.692 171.692 0 0 0-6.944-1.31l.195-1.168c2.335.39 4.688.835 6.992 1.32l-.243 1.158zM228.58 3.41l-.189-1.17c2.331-.378 4.701-.712 7.046-.994l.141 1.176c-2.329.28-4.683.612-6.998.988zm49.295-.885a172.382 172.382 0 0 0-7.028-.735l.098-1.18c2.358.198 4.739.446 7.077.74l-.147 1.175zm-35.266-.803-.093-1.18c2.353-.186 4.743-.326 7.103-.416l.045 1.184c-2.345.09-4.718.228-7.055.412zm21.186-.378c-2.342-.1-4.719-.154-7.065-.16L256.733 0c2.362.006 4.755.06 7.112.16l-.05 1.184zm145.212 92.682c-.545-1.048-1.1-2.089-1.665-3.123l1.037-.569c.569 1.042 1.128 2.09 1.677 3.145l-1.049.547z" fill="#CCC"/><path d="M218.466 116.062h-10.938v92.673a8.903 8.903 0 0 1-2.6 6.278 8.875 8.875 0 0 1-6.268 2.605H19.807v7.994a10.088 10.088 0 0 0 2.948 7.114 10.06 10.06 0 0 0 7.103 2.953h188.608a10.062 10.062 0 0 0 7.104-2.953 10.09 10.09 0 0 0 2.948-7.114v-99.483a10.091 10.091 0 0 0-2.948-7.114 10.062 10.062 0 0 0-7.104-2.953z" fill="#F2F2F2"/><path d="M198.66 99.186H10.051a10.058 10.058 0 0 0-7.103 2.952A10.09 10.09 0 0 0 0 109.252v99.483a10.088 10.088 0 0 0 2.948 7.114 10.06 10.06 0 0 0 7.103 2.953H198.66a10.06 10.06 0 0 0 7.103-2.953 10.09 10.09 0 0 0 2.948-7.114v-99.483a10.091 10.091 0 0 0-2.948-7.114 10.058 10.058 0 0 0-7.103-2.953zm8.868 109.549a8.9 8.9 0 0 1-2.6 6.278 8.87 8.87 0 0 1-6.268 2.604H10.051a8.869 8.869 0 0 1-6.268-2.604 8.902 8.902 0 0 1-2.6-6.278v-99.483a8.898 8.898 0 0 1 2.6-6.277 8.87 8.87 0 0 1 6.268-2.605H198.66a8.871 8.871 0 0 1 6.268 2.605 8.896 8.896 0 0 1 2.6 6.277v99.483z" fill="#3F3D56"/><path d="M184.435 172.613h-66.22a4.727 4.727 0 0 1-3.344-1.387 4.744 4.744 0 0 1 0-6.7 4.727 4.727 0 0 1 3.344-1.387h66.22c1.255 0 2.458.499 3.345 1.387a4.743 4.743 0 0 1 0 6.7 4.727 4.727 0 0 1-3.345 1.387zm-41.387-20.133h-24.833a4.727 4.727 0 0 1-3.344-1.387 4.742 4.742 0 0 1 0-6.7 4.727 4.727 0 0 1 3.344-1.387h24.833c1.254 0 2.457.499 3.344 1.387a4.744 4.744 0 0 1 0 6.7 4.727 4.727 0 0 1-3.344 1.387z" fill="#CCC"/><path d="M88.392 196.301H28.084a5.028 5.028 0 0 1-3.552-1.476 5.044 5.044 0 0 1-1.473-3.557v-66.914a5.032 5.032 0 0 1 5.026-5.034h60.307a5.032 5.032 0 0 1 5.025 5.034v66.914a5.043 5.043 0 0 1-1.473 3.557 5.028 5.028 0 0 1-3.552 1.476z" fill="#018F6A"/><path d="M59.15 182.363c-1.329-.037-2.984-.084-4.258-1.016a3.272 3.272 0 0 1-1.287-2.446 2.209 2.209 0 0 1 .748-1.81 2.84 2.84 0 0 1 2.686-.387l-1.086-7.946.797-.11 1.276 9.342-.665-.306c-.772-.355-1.83-.535-2.489.022a1.421 1.421 0 0 0-.463 1.166 2.483 2.483 0 0 0 .957 1.824c.992.726 2.311.819 3.807.862l-.022.805zm-7.138-12.92H47.68v.806h4.332v-.806zm13.675 0h-4.332v.806h4.332v-.806zm-25.534-11.124c-3.488-.398-6.19-3.746-6.487-7.143-.353-4.041 1.997-7.879 5.22-10.146 3.372-2.372 7.572-3.362 11.636-3.58a31.946 31.946 0 0 1 21.858 7.216c3.045 2.533 5.889 5.759 6.967 9.657.936 3.384.174 7.219-2.544 9.589a6.427 6.427 0 0 1-4.93 1.521c-2.11-.22-4.056-1.33-5.74-2.557-3.277-2.386-5.966-5.71-9.958-6.957-2.927-.914-6.726-.109-8.514 2.542a4.831 4.831 0 0 0-.77 2.021.626.626 0 0 0 .422.744.609.609 0 0 0 .742-.422c.47-3.339 4.569-4.585 7.445-3.823 4.194 1.112 7.01 4.861 10.451 7.242a12.693 12.693 0 0 0 6.086 2.433 7.551 7.551 0 0 0 5.31-1.634c2.94-2.325 4.065-6.323 3.415-9.924-.753-4.169-3.555-7.742-6.63-10.509a33.132 33.132 0 0 0-22.66-8.384c-4.253.098-8.69.977-12.353 3.228-3.554 2.184-6.3 5.837-6.66 10.083-.316 3.738 1.687 7.647 5.124 9.285a8.03 8.03 0 0 0 2.57.727c.77.088.764-1.122 0-1.209z" fill="#3F3D56"/><path d="M519.413 272.984h-9.496v30.982a10.09 10.09 0 0 1-2.948 7.114 10.058 10.058 0 0 1-7.103 2.953H262.811v4.548a11.265 11.265 0 0 0 3.293 7.952 11.234 11.234 0 0 0 7.94 3.299h245.369a11.234 11.234 0 0 0 7.94-3.299 11.265 11.265 0 0 0 3.293-7.952v-34.346a11.265 11.265 0 0 0-3.293-7.952 11.234 11.234 0 0 0-7.94-3.299z" fill="#F2F2F2"/><path d="M499.866 258.371H254.497a11.237 11.237 0 0 0-7.94 3.298 11.27 11.27 0 0 0-3.293 7.953v34.345a11.268 11.268 0 0 0 3.293 7.953 11.233 11.233 0 0 0 7.94 3.298h245.369a11.233 11.233 0 0 0 7.94-3.298 11.273 11.273 0 0 0 3.294-7.953v-34.345a11.275 11.275 0 0 0-3.294-7.953 11.237 11.237 0 0 0-7.94-3.298zm10.051 45.596a10.09 10.09 0 0 1-2.948 7.114 10.06 10.06 0 0 1-7.103 2.953H254.497a10.06 10.06 0 0 1-7.103-2.953 10.09 10.09 0 0 1-2.948-7.114v-34.345a10.09 10.09 0 0 1 2.948-7.114 10.06 10.06 0 0 1 7.103-2.953h245.369a10.06 10.06 0 0 1 7.103 2.953 10.09 10.09 0 0 1 2.948 7.114v34.345z" fill="#3F3D56"/><path d="M297.559 267.846c-3.742 0-7.4 1.111-10.512 3.193a18.946 18.946 0 0 0-6.968 8.504 18.98 18.98 0 0 0-1.077 10.949 18.96 18.96 0 0 0 5.178 9.702 18.909 18.909 0 0 0 9.688 5.186c3.67.731 7.474.356 10.931-1.079a18.927 18.927 0 0 0 8.491-6.979 18.967 18.967 0 0 0 3.189-10.527 18.986 18.986 0 0 0-5.548-13.393 18.925 18.925 0 0 0-13.372-5.556z" fill="#018F6A"/><path d="M470.995 302.783H335.599a4.727 4.727 0 0 1-3.344-1.387 4.74 4.74 0 0 1 3.344-8.087h135.396c1.255 0 2.458.499 3.345 1.387a4.741 4.741 0 0 1 0 6.7 4.727 4.727 0 0 1-3.345 1.387zm-67.993-20.133h-67.403a4.727 4.727 0 0 1-3.344-1.387 4.74 4.74 0 0 1 3.344-8.087h67.403c1.254 0 2.457.499 3.344 1.387a4.744 4.744 0 0 1 0 6.7 4.727 4.727 0 0 1-3.344 1.387z" fill="#CCC"/><path d="M296.275 295.08a2.252 2.252 0 0 1-1.356-.451l-.024-.018-5.107-3.913a2.274 2.274 0 0 1 1.084-4.057c.597-.079 1.2.082 1.678.449l3.308 2.541 7.817-10.214a2.272 2.272 0 0 1 1.503-.87 2.267 2.267 0 0 1 1.677.449l.001.001-.048.067.049-.067a2.277 2.277 0 0 1 .42 3.186l-9.194 12.008a2.278 2.278 0 0 1-1.806.887l-.002.002z" fill="#fff"/><path d="M484.529 104.219h-1.253c.023.254.035.515.035.781v34.346a10.091 10.091 0 0 1-2.948 7.114 10.054 10.054 0 0 1-7.103 2.952H355.637v.403a11.261 11.261 0 0 0 3.573 8.226 11.225 11.225 0 0 0 7.66 3.025h117.659a11.24 11.24 0 0 0 7.941-3.298 11.274 11.274 0 0 0 3.293-7.953V115.47a11.272 11.272 0 0 0-3.293-7.953 11.235 11.235 0 0 0-7.941-3.298z" fill="#F2F2F2"/><path d="M484.464 104.219a11.26 11.26 0 0 0-3.544-7.444 11.226 11.226 0 0 0-7.66-3.025H355.601a11.237 11.237 0 0 0-7.941 3.298 11.272 11.272 0 0 0-3.293 7.953v34.345a11.272 11.272 0 0 0 3.293 7.953 11.235 11.235 0 0 0 7.941 3.298H473.26a11.233 11.233 0 0 0 7.94-3.298 11.268 11.268 0 0 0 3.293-7.953v-34.345c0-.261-.012-.521-.029-.782zm-1.153 35.127a10.09 10.09 0 0 1-2.948 7.114 10.06 10.06 0 0 1-7.103 2.953H355.601a10.058 10.058 0 0 1-7.103-2.953 10.085 10.085 0 0 1-2.948-7.114v-34.345a10.086 10.086 0 0 1 2.948-7.114 10.057 10.057 0 0 1 7.103-2.953H473.26c2.529.004 4.964.961 6.82 2.682a10.079 10.079 0 0 1 3.195 6.603c.024.255.036.516.036.782v34.345z" fill="#3F3D56"/><path d="M443.402 136.978h-57.943a4.727 4.727 0 0 1-3.344-1.387 4.74 4.74 0 0 1 0-6.7 4.727 4.727 0 0 1 3.344-1.387h57.943c1.254 0 2.457.499 3.344 1.387a4.74 4.74 0 0 1-3.344 8.087zm-17.738-20.132h-40.205a4.724 4.724 0 0 1-3.344-1.388 4.74 4.74 0 0 1 0-6.699 4.724 4.724 0 0 1 3.344-1.388h40.205c1.255 0 2.458.499 3.345 1.388a4.739 4.739 0 0 1 0 6.699 4.724 4.724 0 0 1-3.345 1.388z" fill="#CCC"/></g><defs><clipPath id="a"><path d="M0 0h530.646v347H0z" fill="#fff"/></clipPath></defs></svg>