<svg xmlns="http://www.w3.org/2000/svg" fill="none" width="534" height="287" viewBox="0 0 534 287"><g clip-path="url(#a)"><path d="M332.331 98.758a45.24 45.24 0 0 0-12.365-28.609 45.153 45.153 0 0 0-58.134-6.253 45.222 45.222 0 0 0-18.155 25.326c-.548-.02-1.095-.041-1.647-.041a45.167 45.167 0 0 0-27.076 9.023 45.238 45.238 0 0 0-16.279 23.461 31.906 31.906 0 0 0-20.554-1.755 31.932 31.932 0 0 0-17.338 11.189h140.949c17.317 0 31.338-14.356 30.631-31.674a37.563 37.563 0 0 0-.032-.667zM.058 42.67a45.248 45.248 0 0 1 12.365-28.608 45.153 45.153 0 0 1 58.134-6.253 45.226 45.226 0 0 1 18.155 25.325c.548-.02 1.095-.041 1.647-.041a45.168 45.168 0 0 1 27.076 9.023 45.24 45.24 0 0 1 16.279 23.461 31.905 31.905 0 0 1 20.554-1.755 31.934 31.934 0 0 1 17.338 11.19H30.656C13.34 75.011-.68 60.654.026 43.336c.009-.222.02-.444.032-.667z" fill="#E6E6E6"/><path d="M202.278 87.293H91.253l-55.513 96.24 55.513 96.24h111.025l55.512-96.24-55.512-96.24z" fill="#018F6A" fill-opacity=".85"/><path d="M100.547 263.659h92.438l46.219-80.128-46.219-80.129h-92.438l-46.22 80.129 46.22 80.128z" fill="#fff"/><path d="M534 279.1H0v1.348h534V279.1z" fill="#3F3D56"/><path d="m419.551 35.078 4.825 13.682-8.042 16.097-13.669-23.34 16.886-6.439z" fill="#A0616A"/><path d="M460.159 200.473c-2.646 3.71-23.046 25.183-36.691 39.445-3.788 3.952-7.052 7.356-9.272 9.666a5756.97 5756.97 0 0 1-3.087 3.204l-6.168-12.91-2.677-5.602.04-.048 1.68-2.149 16.026-20.524 16.83-21.545-13.67-27.365 16.886-2.415 11.225.66 2.445.145s10.453 33.804 6.433 39.438z" fill="#2F2E41"/><path d="M412.716 266.469c-1.045 1.046-2.862-.29-4.832-2.576-4.077-4.732-8.837-13.521-8.837-13.521l-5.629-12.073c.603-3.606 6.119-4.064 8.885-4.072.941 0 1.568.048 1.568.048l.467.692 9.858 14.616s1.737 13.666-1.48 16.886z" fill="#2F2E41"/><path d="M414.196 249.584s1.737 13.666-1.479 16.885c-1.045 1.047-2.863-.289-4.833-2.575l-2.943-24.017-.603-4.909-.354-2.89 16.026-20.523 3.458 28.362c-3.788 3.952-7.052 7.357-9.272 9.667zm11.137-82.609-2.163-4.33 16.886-2.415 11.225.661.032.144-25.98 5.94z" fill="#000" opacity=".2"/><path d="M403.871 125.621h-5.629l1.609 53.12 11.257 91.752h18.494l-8.041-65.997 4.021-37.023 28.143-6.439-8.041-37.022-41.813 1.609z" fill="#2F2E41"/><path d="M412.717 268.08s-1.608 11.268-.804 12.073c.804.805 1.608 1.609 1.608 3.219 0 1.61 9.649 5.634 14.474 2.415 4.824-3.22 1.608-8.049 1.608-8.049l-4.825-9.658h-12.061z" fill="#2F2E41"/><path d="M409.5 45.138c7.549 0 13.669-6.126 13.669-13.682 0-7.557-6.12-13.683-13.669-13.683-7.55 0-13.67 6.126-13.67 13.683 0 7.556 6.12 13.682 13.67 13.682z" fill="#A0616A"/><path d="m417.541 53.186-10.517-4.229-6.369 79.079 44.225 3.219-15.277-81.289-6.835-6.423-5.227 9.643z" fill="#E6E6E6"/><path d="m405.625 46.568-8.186 6.617-15.278 8.049 5.629 50.705.804 28.974s-10.453 25.755-2.412 32.194c8.041 6.439 16.886 4.024 15.277-9.658-1.608-13.682-4.824-23.341 10.454-37.828 15.278-14.487 1.898-82.45-6.288-79.053zm16.312-4.726 10.078 6.515 13.669 7.243 10.454 115.898-23.319 7.243S419.9 44.985 421.937 41.841z" fill="#2F2E41"/><path d="M448.096 137.695s-12.061 18.512-3.216 18.512c8.845 0 11.257-15.292 11.257-15.292l-8.041-3.22zm-49.853 0s12.062 18.512 3.216 18.512c-8.845 0-11.257-15.292-11.257-15.292l8.041-3.22z" fill="#A0616A"/><path d="m410.304 11.335-4.02-2.415.804 1.61-3.217-.805.804.805-4.02-.805 1.608 1.61s-6.433 0-7.237 6.438l-4.02.805 1.608 2.415v2.414l1.608 1.61v2.414l1.608 4.025 1.609-5.634s7.237 1.61 10.453-4.83c0 0 .804 2.415 4.824 1.61l6.433 11.268s.804-4.995 3.619-5.717c2.814-.722 1.206-7.16 1.206-7.16s-2.412-2.415-2.412-4.025c0-1.61-2.413-3.219-4.021-3.219s-5.629-3.22-5.629-3.22l-1.608.806zM388.593 62.04l-3.743-2.222-2.689 1.417s-3.217 1.61-4.021 7.244c-.804 5.634-8.845 40.242-8.845 40.242s-.804 5.634 3.217 15.292c4.02 9.658 19.298 26.56 19.298 26.56l14.474-12.073-21.711-26.56 5.629-21.73-1.609-28.17zm50.659-6.438h6.433l10.453 39.437 3.217 49.095-15.278-5.634v-35.412l-4.825-47.486z" fill="#2F2E41"/><path d="M112.273 103.283h-1.203v49.691h1.203v-49.691z" fill="#3F3D56"/><path d="M111.672 159.258a3.425 3.425 0 0 0 3.424-3.427 3.426 3.426 0 0 0-3.424-3.427 3.426 3.426 0 0 0-3.424 3.427 3.425 3.425 0 0 0 3.424 3.427z" fill="#6C63FF"/><path d="M137.951 103.283h-1.203v49.691h1.203v-49.691z" fill="#3F3D56"/><path d="M137.35 159.258a3.425 3.425 0 0 0 3.423-3.427 3.426 3.426 0 0 0-3.423-3.427 3.426 3.426 0 0 0-3.424 3.427 3.425 3.425 0 0 0 3.424 3.427zm45.681-55.975h-1.203v49.691h1.203v-49.691z" fill="#3F3D56"/><path d="M182.43 159.258a3.424 3.424 0 0 0 3.423-3.427 3.425 3.425 0 0 0-3.423-3.427 3.426 3.426 0 0 0-3.424 3.427 3.425 3.425 0 0 0 3.424 3.427zm-18.831 49.121a3.425 3.425 0 0 0 3.423-3.427 3.426 3.426 0 0 0-3.423-3.427 3.426 3.426 0 0 0-3.424 3.427 3.425 3.425 0 0 0 3.424 3.427zm-69.617-31.416a3.425 3.425 0 0 0 3.424-3.427 3.426 3.426 0 0 0-3.424-3.427 3.426 3.426 0 0 0-3.423 3.427 3.425 3.425 0 0 0 3.423 3.427z" fill="#3F3D56"/><path d="M164.2 202.095h-1.203v-59.878H137.35v-1.203h26.85v61.081z" fill="#3F3D56"/><path d="M119.66 230.08a3.425 3.425 0 0 0 3.424-3.427 3.425 3.425 0 1 0-6.848 0 3.425 3.425 0 0 0 3.424 3.427z" fill="#6C63FF"/><path d="M120.261 223.799h-1.202v-59.878H93.411v-1.204h26.85v61.082z" fill="#3F3D56"/><path d="M198.977 203.239a3.426 3.426 0 0 0 3.424-3.427 3.425 3.425 0 0 0-3.424-3.427 3.425 3.425 0 0 0-3.423 3.427 3.426 3.426 0 0 0 3.423 3.427z" fill="#6C63FF"/><path d="M199.578 196.954h-1.202v-59.877h-16.518v-1.204h17.72v61.081zM94.584 170.111H93.38V140.34h18.291v1.204H94.584v28.567zm43.051 73.393a3.424 3.424 0 0 0 3.423-3.427 3.425 3.425 0 0 0-3.423-3.427 3.426 3.426 0 0 0-3.424 3.427 3.425 3.425 0 0 0 3.424 3.427zm.601-6.856h-1.203v-28.567h-17.088v-1.204h18.291v29.771zm43.052-18.562a3.425 3.425 0 0 0 3.424-3.427 3.426 3.426 0 0 0-3.424-3.427 3.426 3.426 0 0 0-3.424 3.427 3.425 3.425 0 0 0 3.424 3.427z" fill="#3F3D56"/><path d="M181.889 211.234h-1.202v-29.771h18.29v1.204h-17.088v28.567z" fill="#3F3D56"/></g><defs><clipPath id="a"><path d="M0 0h534v287H0z" fill="#fff"/></clipPath></defs></svg>