<svg xmlns="http://www.w3.org/2000/svg" fill="none" width="553" height="255" viewBox="0 0 553 255"><g clip-path="url(#a)"><path d="M117.276 240.81c-13.241-8.625-22.868-24.129-20.898-39.802a72.827 72.827 0 0 0 44.934 21.904c6.596.66 14 .707 18.684 5.395 2.914 2.917 4.152 7.181 4.216 11.302.063 4.122-.927 8.179-1.912 12.183l.242 1c-15.793-.584-32.025-3.357-45.266-11.982z" fill="#E4E4E7"/><path d="M96.71 201.005a62.218 62.218 0 0 0 24.698 29.25 26.812 26.812 0 0 0 7.676 3.403c2.674.62 5.466.513 8.084-.31 2.458-.718 4.888-1.738 7.477-1.847a9.42 9.42 0 0 1 7.107 2.955c2.329 2.346 3.676 5.388 4.889 8.41 1.348 3.354 2.694 6.86 5.438 9.344.333.302-.154.8-.486.499-4.774-4.323-5.3-11.258-9.052-16.273-1.751-2.34-4.219-4.167-7.235-4.244-2.637-.068-5.144.981-7.626 1.73a16.412 16.412 0 0 1-7.893.598 24.807 24.807 0 0 1-7.779-3.096 60.403 60.403 0 0 1-14.559-12.003 63.31 63.31 0 0 1-11.411-18.231c-.17-.414.503-.596.671-.185z" fill="#fff"/><path d="M117.702 228.24a9.342 9.342 0 0 1-11.908 2.098c-.386-.227-.05-.837.336-.609a8.65 8.65 0 0 0 11.073-1.976c.284-.346.781.142.499.486v.001zm18.269 5.636a17.99 17.99 0 0 0-5.793-11.762c-.331-.303.155-.801.486-.499a18.707 18.707 0 0 1 6.003 12.252c.037.448-.66.454-.696.009zm-32.461-20.129a5.277 5.277 0 0 0 1.968-4.612c-.042-.446.654-.452.696-.009a5.922 5.922 0 0 1-2.165 5.107.362.362 0 0 1-.492.006.35.35 0 0 1-.007-.492z" fill="#fff"/><path d="M141.544 172.326c.034.278.068.557.108.838a69.453 69.453 0 0 0 2.343 11.04c.079.281.163.564.25.841a73.335 73.335 0 0 0 12.621 23.878 71.24 71.24 0 0 0 7.366 7.933c3.664 3.388 7.906 6.771 10.17 11.045.241.444.454.902.639 1.371l-11.297 23.148c-.052.04-.099.082-.151.122l-.409.945-.439-.358c-.085-.068-.167-.141-.252-.208a2.886 2.886 0 0 0-.165-.132l-.05-.045c-.053-.038-.098-.08-.146-.117a242.552 242.552 0 0 1-2.487-2.101c-.005-.003-.005-.003-.008-.01-6.276-5.408-12.156-11.387-16.941-18.067-.144-.201-.293-.405-.432-.616a68.051 68.051 0 0 1-5.649-9.548 60.08 60.08 0 0 1-2.361-5.603 49.944 49.944 0 0 1-2.937-15.345c-.334-10.44 2.677-20.871 9.685-28.438.18-.193.357-.382.542-.573z" fill="#E4E4E7"/><path d="M141.812 172.522a62.184 62.184 0 0 0 2.102 38.217 26.788 26.788 0 0 0 4.079 7.337 15.37 15.37 0 0 0 6.642 4.618c2.394.905 4.949 1.553 7.082 3.025a9.412 9.412 0 0 1 3.895 6.636c.447 3.274-.311 6.514-1.162 9.657-.945 3.489-1.981 7.098-1.287 10.733.084.441-.605.546-.689.106-1.208-6.325 2.55-12.178 2.575-18.441.011-2.922-.858-5.865-3.22-7.742-2.065-1.641-4.699-2.312-7.131-3.208a16.399 16.399 0 0 1-6.663-4.273 24.773 24.773 0 0 1-4.346-7.153 60.331 60.331 0 0 1-4.394-18.345 63.299 63.299 0 0 1 1.869-21.424c.114-.432.762-.173.648.257z" fill="#fff"/><path d="M142.169 206.899a9.337 9.337 0 0 1-10.772-5.49c-.171-.414.465-.699.636-.284a8.643 8.643 0 0 0 10.031 5.086c.435-.105.538.583.105.688zm11.191 15.495a17.981 17.981 0 0 0 2.46-12.877c-.083-.441.606-.546.688-.106a18.703 18.703 0 0 1-2.587 13.395c-.24.38-.8-.035-.561-.412zm-13.794-35.606a5.287 5.287 0 0 0 4.348-2.497c.236-.383.796.032.562.412a5.938 5.938 0 0 1-2.057 1.984 5.945 5.945 0 0 1-2.748.79.36.36 0 0 1-.397-.292.354.354 0 0 1 .064-.258.357.357 0 0 1 .228-.139z" fill="#fff"/><path d="M521.351 240.81c13.241-8.625 22.868-24.129 20.898-39.802a72.83 72.83 0 0 1-44.935 21.904c-6.595.66-13.999.707-18.683 5.395-2.914 2.917-4.152 7.181-4.216 11.302-.064 4.122.927 8.179 1.912 12.183l-.242 1c15.793-.584 32.025-3.357 45.266-11.982z" fill="#E4E4E7"/><path d="M541.917 201.005a62.22 62.22 0 0 1-24.699 29.25 26.812 26.812 0 0 1-7.676 3.403c-2.674.62-5.466.513-8.085-.31-2.457-.718-4.887-1.738-7.476-1.847a9.42 9.42 0 0 0-7.107 2.955c-2.329 2.346-3.676 5.388-4.89 8.41-1.347 3.354-2.693 6.86-5.437 9.344-.333.302.154.8.486.499 4.774-4.323 5.3-11.258 9.052-16.273 1.751-2.34 4.219-4.167 7.235-4.244 2.637-.068 5.144.981 7.626 1.73a16.412 16.412 0 0 0 7.893.598 24.816 24.816 0 0 0 7.779-3.096 60.403 60.403 0 0 0 14.559-12.003 63.31 63.31 0 0 0 11.411-18.231c.169-.414-.503-.596-.672-.185h.001z" fill="#fff"/><path d="M520.924 228.24a9.344 9.344 0 0 0 11.908 2.098c.386-.227.05-.837-.337-.609a8.645 8.645 0 0 1-11.072-1.976c-.285-.346-.782.142-.499.486v.001zm-18.269 5.636a17.988 17.988 0 0 1 5.792-11.762c.332-.303-.155-.801-.486-.499a18.712 18.712 0 0 0-6.003 12.252c-.036.448.661.454.697.009zm32.461-20.129a5.296 5.296 0 0 1-1.566-2.058 5.295 5.295 0 0 1-.402-2.554c.043-.446-.654-.452-.696-.009a5.922 5.922 0 0 0 2.165 5.107.362.362 0 0 0 .493.006.353.353 0 0 0 .006-.492z" fill="#fff"/><path d="M497.083 172.326c-.034.278-.068.557-.108.838a69.453 69.453 0 0 1-2.343 11.04c-.079.281-.163.564-.25.841a73.335 73.335 0 0 1-12.621 23.878 71.24 71.24 0 0 1-7.366 7.933c-3.664 3.388-7.906 6.771-10.17 11.045-.241.444-.455.902-.639 1.371l11.296 23.148c.053.04.1.082.152.122l.409.945.439-.358c.085-.068.167-.141.252-.208.056-.047.112-.094.165-.133a.818.818 0 0 0 .05-.044c.053-.039.098-.08.146-.117.832-.693 1.661-1.394 2.486-2.101.006-.003.006-.003.009-.01 6.276-5.408 12.156-11.387 16.941-18.067.143-.201.293-.405.432-.616a68.051 68.051 0 0 0 5.649-9.548 59.917 59.917 0 0 0 2.36-5.603 49.916 49.916 0 0 0 2.938-15.345c.334-10.44-2.677-20.871-9.685-28.438-.18-.193-.357-.382-.542-.573z" fill="#E4E4E7"/><path d="M496.814 172.522a62.184 62.184 0 0 1-2.102 38.217 26.762 26.762 0 0 1-4.079 7.337 15.37 15.37 0 0 1-6.642 4.618c-2.394.905-4.948 1.553-7.081 3.025a9.415 9.415 0 0 0-3.896 6.636c-.446 3.274.311 6.514 1.162 9.657.945 3.489 1.982 7.098 1.287 10.733-.084.441.605.546.689.106 1.208-6.325-2.55-12.178-2.574-18.441-.012-2.922.858-5.865 3.22-7.742 2.065-1.641 4.698-2.312 7.131-3.208a16.395 16.395 0 0 0 6.662-4.273 24.773 24.773 0 0 0 4.346-7.153 60.333 60.333 0 0 0 4.395-18.345 63.3 63.3 0 0 0-1.87-21.424c-.114-.432-.761-.173-.648.257z" fill="#fff"/><path d="M496.457 206.899a9.336 9.336 0 0 0 10.772-5.49c.171-.414-.464-.699-.636-.284a8.645 8.645 0 0 1-10.03 5.086c-.436-.105-.539.583-.106.688zm-11.191 15.495a17.981 17.981 0 0 1-2.46-12.877c.082-.441-.606-.546-.689-.106a18.708 18.708 0 0 0 2.587 13.395c.241.38.801-.035.562-.412zm13.795-35.606a5.287 5.287 0 0 1-4.349-2.497c-.235-.383-.795.032-.561.412a5.92 5.92 0 0 0 4.804 2.774.36.36 0 0 0 .397-.292.345.345 0 0 0-.064-.258.355.355 0 0 0-.227-.139z" fill="#fff"/><path d="M143.354 164.751a4.012 4.012 0 0 1-1.889-2.807 3.995 3.995 0 0 1 .941-3.249l-7.044-12.34 7.371.476 5.558 11.645a4.018 4.018 0 0 1-2.129 6.8 4.018 4.018 0 0 1-2.808-.525zM89.135 248.87h4.877l2.32-18.8-7.197.001v18.799z" fill="#FFB6B6"/><path d="m87.892 247.278 9.602-.001a6.117 6.117 0 0 1 6.12 6.117v.199H87.892v-6.315z" fill="#2F2E41"/><path d="M122.545 248.87h4.876l2.32-18.8-7.197.001.001 18.799z" fill="#FFB6B6"/><path d="m121.301 247.278 9.603-.001a6.122 6.122 0 0 1 6.12 6.117v.199h-15.723v-6.315zm13.783-100.391s1.341 19.09-1.301 28.705c-2.641 9.615-3.113 67.758-3.113 67.758h-8.854l-7.674-79.145-17.692 79.424-8.433-.579 4.625-93.592 42.442-2.571z" fill="#2F2E41"/><path d="m96.3 82.533 6.769-4.937 11.342 2.468 3.07 7.292 5.291 2.622a11.985 11.985 0 0 1 6.541 9.021l7.558 52.168-44.23-1.709-5.354-61.438a4.815 4.815 0 0 1 4.52-5.226l4.493-.261z" fill="#3F3D56"/><path d="m125.57 94.053 4.085 5.504 17.793 54.243-8.34 3.338-13.355-25.276-.183-37.81z" fill="#3F3D56"/><path d="M110.763 75.018c5.455 0 9.878-4.42 9.878-9.874 0-5.454-4.423-9.875-9.878-9.875-5.456 0-9.879 4.421-9.879 9.875 0 5.453 4.423 9.874 9.879 9.874z" fill="#FFB9B9"/><path d="m89.227 105.768 16.12 22.411 18.02 11.745-34.14-34.156z" fill="#000" opacity=".1"/><path d="M105.527 72.281c-.687-1.37-1.394-2.864-1.131-4.375.263-1.51 1.997-2.827 3.336-2.078.556-2.007 3.015-2.885 5.085-2.654 2.07.232 3.976 1.23 6.015 1.659 2.038.428 4.514.088 5.615-1.679l-2.636-.045 2.745-3.183-3.182-.238c1.102-1.189.81-3.209-.257-4.43-1.067-1.22-2.687-1.797-4.266-2.163a23.78 23.78 0 0 0-9.608-.22 12.489 12.489 0 0 0-4.268 1.484 8.49 8.49 0 0 0-2.984 3.093 10.207 10.207 0 0 0-1.213 4.654 13.01 13.01 0 0 0 5.736 11.069" fill="#2F2E41"/><path d="M473.342 253.847H166.771a11.917 11.917 0 0 1-11.908-11.902V11.903A11.917 11.917 0 0 1 166.771 0h306.571a11.923 11.923 0 0 1 11.908 11.902v230.043a11.917 11.917 0 0 1-11.908 11.902z" fill="#E4E4E7"/><path d="M396.183 105.622h-47.324a8.817 8.817 0 0 1-8.818-8.814 8.818 8.818 0 0 1 8.818-8.814h47.324a8.815 8.815 0 1 1 0 17.628zm-41.445 24.092h-11.17a3.234 3.234 0 0 1-3.233-3.232 3.232 3.232 0 0 1 3.233-3.232h11.17a3.234 3.234 0 0 1 3.233 3.232 3.234 3.234 0 0 1-3.233 3.232zm46.442 0h-11.169a3.237 3.237 0 0 1-3.234-3.232 3.232 3.232 0 0 1 3.234-3.232h11.169a3.237 3.237 0 0 1 3.234 3.232 3.232 3.232 0 0 1-3.234 3.232zm-23.514 0h-11.17a3.233 3.233 0 0 1 0-6.464h11.17a3.234 3.234 0 0 1 3.233 3.232 3.232 3.232 0 0 1-3.233 3.232zm-22.928 12.34h-11.17a3.234 3.234 0 0 1-3.233-3.232 3.233 3.233 0 0 1 3.233-3.232h11.17a3.233 3.233 0 0 1 3.233 3.232 3.234 3.234 0 0 1-3.233 3.232zm46.442 0h-11.169a3.237 3.237 0 0 1-3.234-3.232 3.236 3.236 0 0 1 3.234-3.232h11.169a3.236 3.236 0 0 1 3.234 3.232 3.232 3.232 0 0 1-3.234 3.232zm-23.514 0h-11.17a3.233 3.233 0 0 1 0-6.464h11.17a3.233 3.233 0 0 1 3.233 3.232 3.232 3.232 0 0 1-3.233 3.232zm-22.928 12.339h-11.17a3.233 3.233 0 0 1-3.233-3.231 3.233 3.233 0 0 1 3.233-3.232h11.17a3.233 3.233 0 0 1 3.233 3.232 3.228 3.228 0 0 1-3.233 3.231zm46.442 0h-11.169a3.236 3.236 0 0 1-3.234-3.231 3.233 3.233 0 0 1 3.234-3.232h11.169a3.236 3.236 0 0 1 3.234 3.232 3.232 3.232 0 0 1-3.234 3.231zm-23.514 0h-11.17a3.232 3.232 0 1 1 0-6.463h11.17a3.233 3.233 0 0 1 3.233 3.232 3.232 3.232 0 0 1-3.233 3.231zm-22.928 12.34h-11.17a3.233 3.233 0 0 1-3.233-3.232 3.232 3.232 0 0 1 3.233-3.231h11.17a3.233 3.233 0 0 1 3.233 3.231 3.228 3.228 0 0 1-3.233 3.232zm46.442 0h-11.169a3.236 3.236 0 0 1-3.234-3.232 3.232 3.232 0 0 1 3.234-3.231h11.169a3.236 3.236 0 0 1 3.234 3.231 3.233 3.233 0 0 1-3.234 3.232zm-23.514 0h-11.17a3.232 3.232 0 1 1 0-6.463h11.17a3.233 3.233 0 0 1 3.233 3.231 3.233 3.233 0 0 1-3.233 3.232z" fill="#fff"/><path d="M279.197 153.807c16.558 0 29.981-13.417 29.981-29.968 0-16.551-13.423-29.968-29.981-29.968-16.559 0-29.982 13.417-29.982 29.968 0 16.551 13.423 29.968 29.982 29.968z" fill="#CACACA"/><path d="M279.196 160.564a8.828 8.828 0 0 1-8.818-8.814V95.927a8.805 8.805 0 0 1 2.58-6.237 8.824 8.824 0 0 1 12.476 0 8.817 8.817 0 0 1 2.58 6.237v55.823a8.828 8.828 0 0 1-8.818 8.814z" fill="#fff"/><path d="M357.522 101.839h-8.23a1.175 1.175 0 1 1 0-2.35h8.23a1.178 1.178 0 0 1 1.176 1.174c0 .312-.124.611-.344.832a1.18 1.18 0 0 1-.832.344zm12.934.293h-8.23a1.176 1.176 0 0 1 0-2.35h8.23a1.176 1.176 0 1 1 0 2.35zm12.933.293h-8.23c-.312 0-.611-.124-.831-.345a1.172 1.172 0 0 1 0-1.662c.22-.22.519-.344.831-.344h8.23c.312 0 .611.124.832.344a1.179 1.179 0 0 1 0 1.662c-.221.221-.52.345-.832.345zm12.933.295h-8.23a1.176 1.176 0 0 1 0-2.351h8.23a1.175 1.175 0 1 1 0 2.351z" fill="#E4E4E4"/><path d="M193.954 217.562a10.983 10.983 0 0 0 3.269 7.821h-4.857a10.918 10.918 0 0 1-7.714-3.194 10.907 10.907 0 0 1-3.196-7.711V37.677a10.903 10.903 0 0 1 6.735-10.075 10.918 10.918 0 0 1 4.175-.83h7.067a11.012 11.012 0 0 0-5.479 9.52v181.27z" fill="#CACACA"/><path d="M552.3 255.001H.7a.703.703 0 0 1-.698-.7.7.7 0 0 1 .698-.699h551.6a.7.7 0 1 1 0 1.399z" fill="#E4E4E7" fill-opacity=".6"/><path d="M192.778 78.433a287.422 287.422 0 0 0-11.187-2.891 319.717 319.717 0 0 0-38.852-6.77 8.696 8.696 0 0 0-10.6 6.118l-6.531 24.092a8.68 8.68 0 0 0 6.108 10.641l.088.018a311.717 311.717 0 0 1 28.365 4.56c2.781.576 5.553 1.191 8.318 1.845 1.211.282 2.416.576 3.627.875a328.862 328.862 0 0 1 20.664 5.865c.394.117.788.241 1.176.37V78.768c-.388-.118-.782-.23-1.176-.335z" fill="#fff"/><path d="M192.778 78.433a287.422 287.422 0 0 0-11.187-2.891 319.717 319.717 0 0 0-38.852-6.77 8.696 8.696 0 0 0-10.6 6.118l-6.531 24.092a8.68 8.68 0 0 0 6.108 10.641l.088.018a311.717 311.717 0 0 1 28.365 4.56c2.781.576 5.553 1.191 8.318 1.845 1.211.282 2.416.576 3.627.875a328.862 328.862 0 0 1 20.664 5.865c.394.117.788.241 1.176.37v-1.24l-1.176-.37a307.27 307.27 0 0 0-10.005-3.003 226.576 226.576 0 0 0-3.739-1.04 348.18 348.18 0 0 0-6.719-1.739c-1.188-.3-2.374-.588-3.557-.864-.088-.023-.183-.041-.271-.065a294.34 294.34 0 0 0-6.061-1.363c-.776-.164-1.551-.329-2.328-.488a312.183 312.183 0 0 0-28.118-4.506 7.515 7.515 0 0 1-4.51-3.515 7.505 7.505 0 0 1-.728-5.67l6.532-24.098a7.509 7.509 0 0 1 9.2-5.27l.088.011a318.643 318.643 0 0 1 38.365 6.652 311.55 311.55 0 0 1 11.851 3.067c.388.106.782.218 1.176.335v-1.222c-.388-.118-.782-.23-1.176-.335z" fill="#018F6A"/><path d="M193.954 79.379v43.153c-.393-.129-.781-.252-1.175-.376a305.97 305.97 0 0 0-10.458-3.137 314.01 314.01 0 0 0-10.106-2.686 389.953 389.953 0 0 0-3.592-.864 23.868 23.868 0 0 1-.135-.634 35.828 35.828 0 0 1-.518-3.062c-.058-.393-.099-.787-.141-1.187a40.577 40.577 0 0 1 13.098-33.999c.171-.164.347-.323.524-.476a295.36 295.36 0 0 1 11.328 2.938c.394.1.788.212 1.175.33zm-39.04 17.67-16.349-1.927a4.41 4.41 0 1 0-1.034 8.756l16.348 1.927a4.412 4.412 0 0 0 4.887-3.862 4.407 4.407 0 0 0-3.852-4.893zm2.692 4.76a3.235 3.235 0 0 1-3.592 2.827l-16.349-1.928a3.228 3.228 0 0 1-2.15-1.211 3.228 3.228 0 0 1 .535-4.529 3.234 3.234 0 0 1 2.374-.676l16.349 1.927a3.244 3.244 0 0 1 2.833 3.59z" fill="#018F6A"/><path d="M193.954 89.486v20.466a9.55 9.55 0 0 1-1.175.6 11.874 11.874 0 0 1-6.731.877 11.87 11.87 0 0 1-6.597-3.427 9.453 9.453 0 0 1-.458-.5 11.854 11.854 0 0 1-.589-14.844 11.87 11.87 0 0 1 15.55-3.172z" fill="#fff"/><path d="M192.779 104.299a309.609 309.609 0 0 0-13.785 3.203c-1.705.435-3.404.885-5.097 1.351a360.536 360.536 0 0 0-6.067 1.734 315.457 315.457 0 0 0-7.731 2.397c-.746.247-1.499.494-2.251.741a325.924 325.924 0 0 0-21.252 7.915 8.686 8.686 0 0 0-6.343 10.465l5.896 24.257a8.688 8.688 0 0 0 10.482 6.381l.082-.029a313.934 313.934 0 0 1 35.232-12.058 325.71 325.71 0 0 1 10.834-2.809c.394-.094.782-.188 1.176-.276v-43.512c-.394.07-.782.152-1.176.24z" fill="#fff"/><path d="M192.779 104.299a309.609 309.609 0 0 0-13.785 3.203c-1.705.435-3.404.885-5.097 1.351a360.536 360.536 0 0 0-6.067 1.734 315.457 315.457 0 0 0-7.731 2.397c-.746.247-1.499.494-2.251.741a325.924 325.924 0 0 0-21.252 7.915 8.686 8.686 0 0 0-6.343 10.465l5.896 24.257a8.688 8.688 0 0 0 10.482 6.381l.082-.029a313.934 313.934 0 0 1 35.232-12.058 325.71 325.71 0 0 1 10.834-2.809c.394-.094.782-.188 1.176-.276v-1.21l-1.176.282-.888.211c-3.456.84-6.876 1.73-10.258 2.668-.088.023-.182.053-.27.076a313.717 313.717 0 0 0-35.055 12.017 7.523 7.523 0 0 1-5.647-.911 7.51 7.51 0 0 1-3.371-4.619l-5.891-24.256a7.507 7.507 0 0 1 5.514-9.055l.088-.029a317.24 317.24 0 0 1 23.169-8.544c.752-.247 1.505-.488 2.257-.729a352.757 352.757 0 0 1 5.544-1.698 306.94 306.94 0 0 1 5.849-1.681l.388-.105a311.525 311.525 0 0 1 18.571-4.496c.388-.082.782-.164 1.176-.241v-1.192c-.394.07-.782.152-1.176.24z" fill="#018F6A"/><path d="M193.955 104.652v42.314c-.388.088-.782.176-1.176.27-3.68.894-7.344 1.845-10.993 2.856a16.9 16.9 0 0 1-.424-.493 40.617 40.617 0 0 1-9.247-32.677c.03-.194.065-.394.1-.588.03-.188.065-.382.1-.57a40.235 40.235 0 0 1 1.505-5.67c.077-.224.153-.447.235-.67 1.793-.494 3.592-.968 5.397-1.422a291.633 291.633 0 0 1 13.327-3.109c.388-.088.782-.164 1.176-.241zm-27.319 38.331a4.414 4.414 0 0 0-5.744-2.427l-15.255 6.182a4.408 4.408 0 0 0-2.422 5.738 4.41 4.41 0 0 0 5.737 2.43l15.256-6.182a4.42 4.42 0 0 0 2.428-5.741zm-2.869 4.648-15.255 6.188a3.236 3.236 0 0 1-2.434-5.994l15.255-6.182a3.238 3.238 0 0 1 4.212 1.778 3.23 3.23 0 0 1-1.778 4.21z" fill="#018F6A"/><path d="M193.955 115.458v23.041c-.388.098-.78.177-1.176.235A11.879 11.879 0 0 1 179.292 126a11.872 11.872 0 0 1 2.6-6.487c.135-.17.276-.335.429-.494a11.87 11.87 0 0 1 10.458-3.79c.396.053.789.13 1.176.229z" fill="#fff"/><path d="M192.778 75.372v58.65c.394-.13.788-.253 1.176-.371V75.907c-.394-.182-.782-.358-1.176-.535zm0 0v58.65c.394-.13.788-.253 1.176-.371V75.907c-.394-.182-.782-.358-1.176-.535zm0 0v58.65c.394-.13.788-.253 1.176-.371V75.907c-.394-.182-.782-.358-1.176-.535zm0 4.284v67.581c.394-.094.788-.182 1.176-.27V79.991c-.394-.117-.788-.23-1.176-.335zm0 0v67.581c.394-.094.788-.182 1.176-.27V79.991c-.394-.117-.788-.23-1.176-.335zm0 0v67.581c.394-.094.788-.182 1.176-.27V79.991c-.394-.117-.788-.23-1.176-.335zm0 0v67.581c.394-.094.788-.182 1.176-.27V79.991c-.394-.117-.788-.23-1.176-.335zm0 0v68.192c.394-.094.782-.188 1.176-.276V79.991c-.394-.117-.788-.23-1.176-.335zm256.461-55.564H204.983a12.229 12.229 0 0 0-8.624 3.579 12.218 12.218 0 0 0-3.581 8.62v181.271a12.218 12.218 0 0 0 12.205 12.193h244.256a12.216 12.216 0 0 0 8.621-3.576 12.201 12.201 0 0 0 3.577-8.617V36.291a12.202 12.202 0 0 0-3.575-8.621 12.217 12.217 0 0 0-8.623-3.578zm11.023 193.47a11.037 11.037 0 0 1-11.023 11.018H204.983a11.048 11.048 0 0 1-7.794-3.23 11.03 11.03 0 0 1-3.235-7.788V36.291a11.037 11.037 0 0 1 3.235-7.79 11.05 11.05 0 0 1 7.794-3.234h244.256a11.031 11.031 0 0 1 11.023 11.024v181.271zM192.778 79.656v66.988l1.176-.283v-66.37c-.394-.117-.788-.23-1.176-.335zm0 0v67.581c.394-.094.788-.182 1.176-.27V79.991c-.394-.117-.788-.23-1.176-.335zm0 0v67.581c.394-.094.788-.182 1.176-.27V79.991c-.394-.117-.788-.23-1.176-.335zm0 0v67.581c.394-.094.788-.182 1.176-.27V79.991c-.394-.117-.788-.23-1.176-.335zm0-4.284v58.65c.394-.13.788-.253 1.176-.371V75.907c-.394-.182-.782-.358-1.176-.535zm0 0v58.65c.394-.13.788-.253 1.176-.371V75.907c-.394-.182-.782-.358-1.176-.535z" fill="#2F2E41"/><path d="M140.414 137.426a4.004 4.004 0 0 0-4.253-2.38 3.99 3.99 0 0 0-1.62.615l-11.27-8.655-.533 7.363 10.784 7.091a4.024 4.024 0 0 0 7.03-1.182 4.015 4.015 0 0 0-.138-2.852z" fill="#FFB6B6"/><path d="m95 85.19-3.708-1.752s-5.974 1.68-3.072 9.576l17.566 32.708 21.445 12.55 6.685-5.922-21.461-16.972-17.454-30.189z" fill="#3F3D56"/></g><defs><clipPath id="a"><path d="M0 0h553v255H0z" fill="#fff"/></clipPath></defs></svg>