<svg width="604" height="450" viewBox="0 0 604 450" fill="none" xmlns="http://www.w3.org/2000/svg">
<path d="M545.528 14.9668H0.232422V274.02H545.528V14.9668Z" fill="#E6E6E6"/>
<path d="M529.935 37.1816H15.8242V253.318H529.935V37.1816Z" fill="white"/>
<path d="M545.296 0H0V23.1928H545.296V0Z" fill="#018F6A" fill-opacity="0.85"/>
<path d="M17.2156 17.9362C19.5869 17.9362 21.5093 16.0117 21.5093 13.6376C21.5093 11.2635 19.5869 9.33887 17.2156 9.33887C14.8442 9.33887 12.9219 11.2635 12.9219 13.6376C12.9219 16.0117 14.8442 17.9362 17.2156 17.9362Z" fill="white"/>
<path d="M33.5124 17.9362C35.8838 17.9362 37.8061 16.0117 37.8061 13.6376C37.8061 11.2635 35.8838 9.33887 33.5124 9.33887C31.1411 9.33887 29.2188 11.2635 29.2188 13.6376C29.2188 16.0117 31.1411 17.9362 33.5124 17.9362Z" fill="white"/>
<path d="M49.8093 17.9362C52.1807 17.9362 54.103 16.0117 54.103 13.6376C54.103 11.2635 52.1807 9.33887 49.8093 9.33887C47.438 9.33887 45.5156 11.2635 45.5156 13.6376C45.5156 16.0117 47.438 17.9362 49.8093 17.9362Z" fill="white"/>
<path d="M384.476 70.042H312.07V75.4905H384.476V70.042Z" fill="#E6E6E6"/>
<path d="M423.881 86.0371H312.07V91.4856H423.881V86.0371Z" fill="#018F6A" fill-opacity="0.85"/>
<path d="M404.358 101.271H313.234V106.719H404.358V101.271Z" fill="#E6E6E6"/>
<path d="M365.267 117.984H312.07V123.433H365.267V117.984Z" fill="#E6E6E6"/>
<path d="M392.357 134.312H312.07V139.76H392.357V134.312Z" fill="#018F6A" fill-opacity="0.85"/>
<path d="M287.936 68.3281H279.07V77.2045H287.936V68.3281Z" fill="#E6E6E6"/>
<path d="M287.936 84.3232H279.07V93.1996H287.936V84.3232Z" fill="#018F6A" fill-opacity="0.85"/>
<path d="M287.936 99.5566H279.07V108.433H287.936V99.5566Z" fill="#E6E6E6"/>
<path d="M287.936 116.271H279.07V125.147H287.936V116.271Z" fill="#E6E6E6"/>
<path d="M287.936 132.598H279.07V141.474H287.936V132.598Z" fill="#018F6A" fill-opacity="0.85"/>
<path d="M384.476 150.739H312.07V156.188H384.476V150.739Z" fill="#E6E6E6"/>
<path d="M423.881 166.734H312.07V172.183H423.881V166.734Z" fill="#018F6A" fill-opacity="0.85"/>
<path d="M404.358 181.968H313.234V187.416H404.358V181.968Z" fill="#E6E6E6"/>
<path d="M365.267 198.683H312.07V204.131H365.267V198.683Z" fill="#E6E6E6"/>
<path d="M392.357 215.009H312.07V220.457H392.357V215.009Z" fill="#E6E6E6"/>
<path d="M287.936 149.025H279.07V157.902H287.936V149.025Z" fill="#E6E6E6"/>
<path d="M287.936 165.021H279.07V173.897H287.936V165.021Z" fill="#018F6A" fill-opacity="0.85"/>
<path d="M287.936 180.254H279.07V189.13H287.936V180.254Z" fill="#E6E6E6"/>
<path d="M287.936 196.969H279.07V205.845H287.936V196.969Z" fill="#E6E6E6"/>
<path d="M287.936 213.295H279.07V222.171H287.936V213.295Z" fill="#E6E6E6"/>
<path d="M155.422 193.478H83.0156V198.926H155.422V193.478Z" fill="#3F3D56"/>
<path d="M164.451 207.636H73.3281V213.084H164.451V207.636Z" fill="#3F3D56"/>
<path d="M166.279 124.747C166.276 132.936 164.151 140.984 160.113 148.106C156.075 155.227 150.261 161.178 143.239 165.378C136.218 169.578 128.228 171.883 120.051 172.067C111.873 172.252 103.788 170.31 96.584 166.432L96.5748 166.423C89.2164 162.454 83.0403 156.603 78.676 149.466C74.3117 142.33 71.915 134.162 71.7303 125.796C71.5456 117.43 73.5793 109.165 77.6244 101.842C81.6694 94.5192 87.5811 88.4009 94.7571 84.1104C101.933 79.8199 110.117 77.5107 118.475 77.4179C126.833 77.3252 135.065 79.4523 142.335 83.5825C149.604 87.7127 155.65 93.6984 159.856 100.93C164.062 108.161 166.278 116.379 166.279 124.747Z" fill="#3F3D56"/>
<path d="M119.243 122.45C126.341 122.45 132.095 116.689 132.095 109.583C132.095 102.477 126.341 96.7158 119.243 96.7158C112.145 96.7158 106.391 102.477 106.391 109.583C106.391 116.689 112.145 122.45 119.243 122.45Z" fill="white"/>
<path d="M141.188 149.036C126.82 154.085 111.154 154.024 96.8256 148.864L96.8164 148.858L106.391 129.936H132.095L141.188 149.036Z" fill="white"/>
<path d="M508.479 440.262H498.978L494.457 403.569L508.481 403.57L508.479 440.262Z" fill="#FFB7B7"/>
<path d="M510.903 449.483L480.266 449.482V449.094C480.266 445.928 481.522 442.891 483.759 440.652C485.995 438.413 489.028 437.155 492.191 437.155H492.191L510.904 437.156L510.903 449.483Z" fill="#2F2E41"/>
<path d="M531.685 440.262H541.187L545.707 403.569L531.684 403.57L531.685 440.262Z" fill="#FFB7B7"/>
<path d="M529.262 437.156L547.974 437.155H547.975C551.138 437.155 554.171 438.413 556.407 440.652C558.643 442.891 559.9 445.928 559.9 449.094V449.482L529.262 449.483L529.262 437.156Z" fill="#2F2E41"/>
<path d="M506.366 153.522C510.447 145.299 507.097 135.32 498.883 131.234C490.668 127.148 480.701 130.502 476.62 138.726C472.539 146.95 475.889 156.928 484.103 161.014C492.318 165.1 502.285 161.746 506.366 153.522Z" fill="#FFB7B7"/>
<path d="M479.263 260.506C479.263 260.506 474.018 282.383 476.64 292.885C479.263 303.386 487.129 375.144 487.129 375.144L492.374 432.025L513.352 433.775L510.73 367.268L513.352 309.511L528.211 365.518V432.224L550.459 433.099L550.937 346.266C550.937 346.266 552.686 278.008 541.322 269.257C529.959 260.506 528.211 258.756 528.211 258.756L479.263 260.506Z" fill="#2F2E41"/>
<path d="M510.934 164.245L530.837 174.746L533.459 265.757C533.459 265.757 522.096 258.756 504.614 267.507C487.133 276.258 475.77 270.132 475.77 270.132L486.259 230.753L481.888 178.247L488.139 172.566L510.934 164.245Z" fill="#CBCBCB"/>
<path d="M488.141 170.91L484.51 173.871C484.51 173.871 461.784 185.247 460.91 193.123L476.644 236.003C476.644 236.003 481.014 245.629 477.518 249.129C474.021 252.63 470.525 261.381 471.399 265.756C472.273 270.132 466.155 288.509 473.147 288.509C480.14 288.509 496.748 246.504 495.873 229.877C494.999 213.25 494.394 169.699 488.141 170.91Z" fill="#2F2E41"/>
<path d="M503.419 165.231L511.425 163.897C511.425 163.897 541.144 171.773 545.514 184.9L533.277 215.528C533.277 215.528 542.018 271.535 539.395 271.535H536.773C536.773 271.535 543.766 276.785 539.395 278.535C535.025 280.286 524.536 294.287 521.914 288.161C519.292 282.036 503.558 209.403 505.306 193.651C507.055 177.899 501.867 166.881 503.419 165.231Z" fill="#2F2E41"/>
<path d="M506.892 129.843L507.67 128.276L503.756 126.329C503.756 126.329 499.438 119.296 491.625 121.272C483.812 123.249 480.297 124.432 480.297 124.432L476.393 126.398L478.352 128.35L474.837 129.533L477.185 130.701L474.453 132.274L475.924 140.334C475.924 140.334 478.367 134.22 483.064 136.557C487.76 138.893 496.351 135.349 496.351 135.349L503.815 149.81C503.815 149.81 505.355 144.741 508.1 146.093C508.1 146.093 515.114 134.91 506.892 129.843Z" fill="#2F2E41"/>
<path d="M531.207 283.401C530.775 282.345 530.579 281.208 530.634 280.068C530.689 278.929 530.992 277.815 531.523 276.806C532.055 275.797 532.8 274.917 533.708 274.227C534.616 273.538 535.663 273.056 536.777 272.816L540.142 245.293L551.105 254.628L546.229 279.333C546.508 281.233 546.082 283.169 545.03 284.775C543.978 286.382 542.374 287.546 540.523 288.047C538.671 288.549 536.7 288.352 534.983 287.496C533.266 286.64 531.922 285.183 531.207 283.401Z" fill="#FFB7B7"/>
<path d="M484.314 281.507C484.632 280.411 484.705 279.26 484.53 278.132C484.355 277.005 483.935 275.93 483.3 274.983C482.665 274.036 481.831 273.24 480.855 272.651C479.88 272.061 478.787 271.693 477.654 271.573L471.393 244.562L461.48 255.009L468.945 279.057C468.869 280.976 469.498 282.856 470.714 284.341C471.93 285.827 473.648 286.814 475.543 287.116C477.437 287.418 479.376 287.014 480.993 285.98C482.609 284.946 483.791 283.355 484.314 281.507Z" fill="#FFB7B7"/>
<path d="M531.627 177.768C531.627 177.768 542.99 173.393 546.487 186.519C549.983 199.646 554.353 225.899 554.353 225.899C554.57 240.497 553.795 240.497 554.353 254.777L551.731 267.904L536.872 266.153L537.52 232.738L529.879 198.771L531.627 177.768Z" fill="#2F2E41"/>
<path d="M468.777 187.873L463.39 188.45C463.39 188.45 458.288 192.249 458.288 201C458.288 209.751 457.414 236.003 457.414 236.003C457.414 236.003 456.918 236.618 460.91 258.756C462.856 269.547 466.219 274.639 466.219 274.639L477.069 264.551L475.77 238.629L479.266 224.627L468.777 187.873Z" fill="#2F2E41"/>
<path d="M603.227 450H429.619C429.413 450 429.216 449.918 429.071 449.773C428.925 449.627 428.844 449.43 428.844 449.224C428.844 449.018 428.925 448.821 429.071 448.676C429.216 448.53 429.413 448.448 429.619 448.448H603.227C603.432 448.448 603.629 448.53 603.775 448.676C603.92 448.821 604.002 449.018 604.002 449.224C604.002 449.43 603.92 449.627 603.775 449.773C603.629 449.918 603.432 450 603.227 450Z" fill="#CBCBCB"/>
<path d="M242.059 450H149.83C149.624 450 149.427 449.918 149.282 449.773C149.136 449.627 149.055 449.43 149.055 449.224C149.055 449.018 149.136 448.821 149.282 448.676C149.427 448.53 149.624 448.448 149.83 448.448H242.059C242.264 448.448 242.462 448.53 242.607 448.676C242.752 448.821 242.834 449.018 242.834 449.224C242.834 449.43 242.752 449.627 242.607 449.773C242.462 449.918 242.264 450 242.059 450Z" fill="#CBCBCB"/>
<path d="M201.048 416.994C185.926 428.279 181.641 448.136 181.641 448.136C181.641 448.136 201.872 449.695 216.993 438.409C232.115 427.124 236.401 407.267 236.401 407.267C236.401 407.267 216.169 405.708 201.048 416.994Z" fill="#F2F2F2"/>
<path d="M207.347 422.293C200.08 439.718 181.878 448.697 181.878 448.697C181.878 448.697 175.46 429.425 182.728 412C189.995 394.576 208.197 385.597 208.197 385.597C208.197 385.597 214.615 404.868 207.347 422.293Z" fill="#F2F2F2"/>
</svg>
