<svg width="574" height="564" viewBox="0 0 574 564" fill="none" xmlns="http://www.w3.org/2000/svg">
<g opacity="0.8" clip-path="url(#clip0_27_4586)">
<path d="M402.824 562.096C402.223 562.736 401.599 563.368 400.967 564H328.887C328.294 563.384 327.71 562.752 327.125 562.096C327.102 562.072 327.078 562.04 327.054 562.016C319.223 553.233 314.293 540.468 311.219 527.006C311.021 526.19 310.848 525.366 310.674 524.534C309.868 520.751 309.212 516.928 308.675 513.136C308.58 512.48 308.485 511.824 308.406 511.169C307.679 505.722 307.189 500.362 306.873 495.331C306.834 494.683 306.794 494.051 306.755 493.42C306.176 483.403 306.17 473.362 306.739 463.345C306.739 463.345 306.834 463.345 307.015 463.353C307.545 463.377 308.817 463.433 310.69 463.545C315.849 463.865 325.584 464.665 337.034 466.552C337.658 466.656 338.291 466.768 338.923 466.88C348.607 468.5 358.16 470.842 367.503 473.887C368.088 474.087 368.665 474.287 369.249 474.487L369.257 474.527L376.424 510.929L379.395 478.526C381.758 479.606 384.057 480.758 386.262 481.99C386.878 482.333 387.479 482.677 388.071 483.029C393.111 485.92 397.686 489.572 401.639 493.86C425.146 520.231 420.113 543.803 402.824 562.096Z" fill="#F2F2F2"/>
<path d="M372.703 515.938L373.953 517.339C388.397 533.703 397.017 548.892 399.672 562.707C399.714 562.908 399.744 563.108 399.786 563.308L398.862 563.486L397.971 563.645C395.261 548.583 385.169 533.013 372.575 518.737C372.173 518.273 371.766 517.802 371.344 517.343C365.96 511.348 360.171 505.596 354.318 500.217C353.868 499.797 353.406 499.376 352.943 498.955C345.181 491.897 337.372 485.511 330.407 480.128C329.916 479.745 329.419 479.369 328.928 478.999C317.103 469.937 307.927 463.931 305.883 462.614C305.636 462.449 305.496 462.362 305.465 462.341L305.949 461.559L305.95 461.545L306.44 460.757C306.472 460.778 306.941 461.067 307.789 461.627C310.972 463.704 319.528 469.421 330.171 477.548C330.649 477.917 331.147 478.294 331.637 478.676C337.294 483.038 343.48 488.037 349.728 493.508C351.299 494.88 352.832 496.25 354.325 497.617C354.794 498.032 355.257 498.453 355.706 498.873C362.034 504.686 367.7 510.374 372.703 515.938Z" fill="white"/>
<path d="M337.713 465.001C337.499 465.521 337.27 466.041 337.033 466.553C335.228 470.506 332.92 474.204 330.166 477.551C329.763 478.031 329.353 478.519 328.926 478.999C327.772 480.286 326.545 481.531 325.244 482.734C319.92 487.612 313.61 491.259 306.754 493.42C306.532 493.492 306.319 493.564 306.098 493.628C306.137 494.26 306.177 494.884 306.216 495.532C306.438 495.468 306.651 495.404 306.872 495.332C314.147 493.111 320.844 489.281 326.476 484.118C327.854 482.858 329.165 481.526 330.404 480.126C330.83 479.654 331.241 479.167 331.636 478.679C334.58 475.097 337.031 471.129 338.921 466.881C339.143 466.369 339.364 465.857 339.577 465.337C338.945 465.225 338.321 465.113 337.713 465.001Z" fill="white"/>
<path d="M367.826 472.472C367.731 472.944 367.62 473.416 367.502 473.887C365.359 482.879 360.797 491.094 354.322 497.619C353.871 498.075 353.413 498.523 352.939 498.955C352.804 499.091 352.654 499.235 352.512 499.363C346.621 504.746 339.545 508.626 331.872 510.68C324.2 512.733 316.154 512.901 308.404 511.169C308.223 511.137 308.033 511.089 307.852 511.049C307.946 511.705 308.033 512.369 308.136 513.025C308.318 513.065 308.492 513.105 308.673 513.137C316.619 514.801 324.841 514.546 332.672 512.394C340.502 510.241 347.722 506.251 353.745 500.747C353.934 500.571 354.132 500.403 354.314 500.219C354.788 499.771 355.246 499.323 355.705 498.875C362.331 492.163 367.018 483.743 369.256 474.527C369.374 474.047 369.485 473.567 369.588 473.088C369.003 472.88 368.418 472.672 367.826 472.472Z" fill="white"/>
<path d="M386.265 480.639C386.273 481.087 386.273 481.543 386.265 481.99C386.133 494.631 381.29 506.755 372.706 515.937C372.263 516.417 371.805 516.88 371.347 517.344C370.849 517.832 370.351 518.32 369.837 518.784C361.888 526.036 351.847 530.51 341.195 531.545C330.543 532.581 319.844 530.123 310.677 524.535C310.52 524.452 310.367 524.362 310.219 524.263C310.409 525.111 310.598 525.943 310.804 526.775C310.946 526.855 311.08 526.935 311.222 527.007C320.655 532.331 331.497 534.535 342.229 533.31C352.961 532.085 363.045 527.493 371.07 520.176C371.584 519.704 372.097 519.232 372.579 518.736C373.053 518.28 373.504 517.816 373.954 517.336C382.66 508.042 387.686 495.832 388.075 483.03C388.091 482.598 388.098 482.166 388.098 481.734C387.498 481.359 386.881 480.999 386.265 480.639Z" fill="white"/>
<path d="M226.519 132.44H87.6177C86.4617 132.439 85.3536 131.974 84.5362 131.146C83.7189 130.319 83.2591 129.197 83.2578 128.027V21.2653C83.2591 20.0951 83.7188 18.9733 84.5362 18.1459C85.3535 17.3184 86.4617 16.853 87.6177 16.8516H258.112C259.268 16.853 260.376 17.3184 261.193 18.1459C262.011 18.9733 262.47 20.0951 262.472 21.2653V96.0466C262.461 105.696 258.67 114.946 251.929 121.769C245.189 128.592 236.051 132.43 226.519 132.44Z" fill="white"/>
<path d="M226.515 132.84H87.6143C86.3537 132.838 85.1451 132.331 84.2537 131.428C83.3623 130.526 82.8609 129.303 82.8594 128.027V21.2648C82.8608 19.9887 83.3622 18.7652 84.2536 17.8628C85.145 16.9604 86.3536 16.4527 87.6143 16.4512H258.109C259.369 16.4526 260.578 16.9603 261.469 17.8627C262.361 18.7651 262.862 19.9886 262.863 21.2648V96.0462C262.853 105.801 259.019 115.153 252.205 122.051C245.391 128.949 236.152 132.829 226.515 132.84ZM87.6143 18.0509C86.7726 18.0519 85.9657 18.3909 85.3705 18.9934C84.7754 19.5959 84.4407 20.4128 84.4397 21.2648V128.027C84.4407 128.879 84.7754 129.695 85.3706 130.298C85.9657 130.9 86.7726 131.239 87.6143 131.24H226.515C235.733 131.23 244.57 127.518 251.088 120.92C257.606 114.323 261.273 105.377 261.283 96.0462V21.2648C261.282 20.4128 260.947 19.5959 260.352 18.9934C259.757 18.3909 258.95 18.0519 258.109 18.0509H87.6143Z" fill="#CCCCCC"/>
<path d="M224.408 52.9061H121.318C120.372 52.9061 119.464 52.5256 118.795 51.8481C118.126 51.1707 117.75 50.2519 117.75 49.2939C117.75 48.3359 118.126 47.4171 118.795 46.7396C119.464 46.0622 120.372 45.6816 121.318 45.6816H224.408C225.353 45.6831 226.26 46.0643 226.928 46.7415C227.596 47.4188 227.971 48.3368 227.971 49.2939C227.971 50.251 227.596 51.169 226.928 51.8462C226.26 52.5235 225.353 52.9047 224.408 52.9061Z" fill="#CCCCCC"/>
<path d="M224.408 77.7909H121.318C120.372 77.7909 119.464 77.4103 118.795 76.7329C118.126 76.0555 117.75 75.1367 117.75 74.1786C117.75 73.2206 118.126 72.3018 118.795 71.6244C119.464 70.947 120.372 70.5664 121.318 70.5664H224.408C225.354 70.5664 226.262 70.947 226.931 71.6244C227.6 72.3018 227.976 73.2206 227.976 74.1786C227.976 75.1367 227.6 76.0555 226.931 76.7329C226.262 77.4103 225.354 77.7909 224.408 77.7909Z" fill="#CCCCCC"/>
<path d="M224.408 103.387H121.318C120.372 103.387 119.464 103.006 118.795 102.329C118.126 101.651 117.75 100.732 117.75 99.7743C117.75 98.8163 118.126 97.8975 118.795 97.2201C119.464 96.5427 120.372 96.1621 121.318 96.1621H224.408C225.354 96.1621 226.262 96.5427 226.931 97.2201C227.6 97.8975 227.976 98.8163 227.976 99.7743C227.976 100.732 227.6 101.651 226.931 102.329C226.262 103.006 225.354 103.387 224.408 103.387Z" fill="#CCCCCC"/>
<path d="M256.829 43.1423C268.598 43.1423 278.139 33.4845 278.139 21.5711C278.139 9.65772 268.598 0 256.829 0C245.06 0 235.52 9.65772 235.52 21.5711C235.52 33.4845 245.06 43.1423 256.829 43.1423Z" fill="#018F6A" fill-opacity="0.85"/>
<path d="M253.922 32.7977C253.554 32.7977 253.191 32.7109 252.862 32.5443C252.533 32.3777 252.247 32.1357 252.026 31.8377L246.212 23.991C246.026 23.7389 245.89 23.4521 245.812 23.1468C245.735 22.8416 245.718 22.5239 245.762 22.212C245.806 21.9001 245.91 21.6 246.069 21.3288C246.228 21.0577 246.437 20.8208 246.687 20.6318C246.936 20.4427 247.219 20.3052 247.52 20.227C247.822 20.1488 248.136 20.1315 248.444 20.1761C248.752 20.2207 249.049 20.3262 249.316 20.4868C249.584 20.6473 249.818 20.8597 250.005 21.1118L253.808 26.2449L263.577 11.4123C263.926 10.8828 264.468 10.5152 265.085 10.3904C265.701 10.2655 266.341 10.3938 266.864 10.7468C267.388 11.0998 267.751 11.6487 267.874 12.2727C267.997 12.8967 267.871 13.5448 267.522 14.0743L255.895 31.7291C255.684 32.0484 255.401 32.312 255.07 32.4978C254.738 32.6836 254.367 32.7862 253.988 32.7969C253.966 32.7973 253.944 32.7977 253.922 32.7977Z" fill="white"/>
<path d="M175.249 225.167H36.3474C26.8154 225.156 17.6769 221.319 10.9368 214.496C4.19662 207.673 0.405285 198.422 0.394531 188.774V113.992C0.395888 112.822 0.855707 111.7 1.67311 110.872C2.49052 110.045 3.59877 109.58 4.75476 109.578H175.249C176.405 109.58 177.513 110.045 178.33 110.872C179.148 111.7 179.607 112.822 179.609 113.992V220.754C179.607 221.924 179.148 223.046 178.33 223.873C177.513 224.701 176.405 225.166 175.249 225.167Z" fill="white"/>
<path d="M175.249 225.568H36.348C26.7113 225.557 17.4724 221.677 10.6582 214.779C3.84398 207.881 0.0109567 198.529 0 188.774V113.992C0.00142841 112.716 0.502894 111.493 1.39438 110.59C2.28586 109.688 3.49457 109.18 4.75532 109.179H175.249C176.51 109.18 177.719 109.688 178.61 110.59C179.502 111.493 180.003 112.716 180.004 113.992V220.754C180.003 222.03 179.502 223.254 178.61 224.156C177.719 225.059 176.51 225.566 175.249 225.568ZM4.75532 110.778C3.91357 110.779 3.1066 111.118 2.5114 111.721C1.91619 112.323 1.58136 113.14 1.58035 113.992V188.774C1.59076 198.105 5.25711 207.051 11.7751 213.648C18.293 220.246 27.1302 223.958 36.348 223.968H175.249C176.091 223.967 176.898 223.628 177.493 223.026C178.088 222.423 178.423 221.606 178.424 220.754V113.992C178.423 113.14 178.088 112.323 177.493 111.721C176.898 111.118 176.091 110.779 175.249 110.778H4.75532Z" fill="#CCCCCC"/>
<path d="M141.549 145.634H38.4591C37.5127 145.634 36.605 145.253 35.9358 144.576C35.2666 143.898 34.8906 142.979 34.8906 142.021C34.8906 141.063 35.2666 140.145 35.9358 139.467C36.605 138.79 37.5127 138.409 38.4591 138.409H141.549C142.495 138.409 143.403 138.79 144.072 139.467C144.741 140.145 145.117 141.063 145.117 142.021C145.117 142.979 144.741 143.898 144.072 144.576C143.403 145.253 142.495 145.634 141.549 145.634Z" fill="#CCCCCC"/>
<path d="M141.549 170.518H38.4591C37.5127 170.518 36.605 170.138 35.9358 169.46C35.2666 168.783 34.8906 167.864 34.8906 166.906C34.8906 165.948 35.2666 165.029 35.9358 164.352C36.605 163.675 37.5127 163.294 38.4591 163.294H141.549C142.495 163.294 143.403 163.675 144.072 164.352C144.741 165.029 145.117 165.948 145.117 166.906C145.117 167.864 144.741 168.783 144.072 169.46C143.403 170.138 142.495 170.518 141.549 170.518Z" fill="#CCCCCC"/>
<path d="M141.549 196.113H38.4591C37.5127 196.113 36.605 195.733 35.9358 195.055C35.2666 194.378 34.8906 193.459 34.8906 192.501C34.8906 191.543 35.2666 190.624 35.9358 189.947C36.605 189.269 37.5127 188.889 38.4591 188.889H141.549C142.495 188.889 143.403 189.269 144.072 189.947C144.741 190.624 145.117 191.543 145.117 192.501C145.117 193.459 144.741 194.378 144.072 195.055C143.403 195.733 142.495 196.113 141.549 196.113Z" fill="#CCCCCC"/>
<path d="M175.443 136.726C187.212 136.726 196.752 127.069 196.752 115.155C196.752 103.242 187.212 93.584 175.443 93.584C163.674 93.584 154.133 103.242 154.133 115.155C154.133 127.069 163.674 136.726 175.443 136.726Z" fill="#018F6A" fill-opacity="0.85"/>
<path d="M172.535 126.382C172.167 126.382 171.804 126.295 171.475 126.128C171.146 125.962 170.86 125.72 170.639 125.422L164.826 117.575C164.639 117.323 164.503 117.036 164.426 116.731C164.348 116.426 164.331 116.108 164.375 115.796C164.419 115.484 164.524 115.184 164.682 114.913C164.841 114.642 165.051 114.405 165.3 114.216C165.549 114.027 165.832 113.889 166.134 113.811C166.435 113.733 166.749 113.715 167.057 113.76C167.365 113.805 167.662 113.91 167.93 114.071C168.198 114.231 168.432 114.444 168.618 114.696L172.422 119.829L182.191 104.996C182.539 104.467 183.081 104.099 183.698 103.974C184.314 103.85 184.955 103.978 185.478 104.331C186.001 104.684 186.364 105.233 186.487 105.857C186.611 106.481 186.484 107.129 186.135 107.658L174.508 125.313C174.298 125.632 174.015 125.896 173.683 126.082C173.351 126.268 172.98 126.37 172.601 126.381C172.579 126.381 172.557 126.382 172.535 126.382Z" fill="white"/>
<path d="M348.315 324.681H153.961C144.429 324.67 135.29 320.832 128.55 314.009C121.81 307.186 118.019 297.936 118.008 288.287V178.295C118.01 176.786 118.602 175.34 119.656 174.274C120.71 173.207 122.138 172.607 123.628 172.605H348.315C349.805 172.607 351.233 173.207 352.287 174.274C353.341 175.34 353.933 176.786 353.935 178.295V318.991C353.933 320.499 353.341 321.945 352.287 323.012C351.233 324.079 349.805 324.679 348.315 324.681Z" fill="white"/>
<path d="M348.315 325.081H153.961C144.325 325.07 135.086 321.19 128.271 314.292C121.457 307.394 117.624 298.042 117.613 288.287V178.295C117.615 176.681 118.249 175.133 119.377 173.992C120.505 172.85 122.034 172.208 123.629 172.206H348.315C349.91 172.208 351.439 172.85 352.567 173.992C353.694 175.133 354.329 176.681 354.33 178.295V318.992C354.329 320.606 353.694 322.154 352.567 323.295C351.439 324.437 349.91 325.079 348.315 325.081ZM123.629 173.806C122.453 173.807 121.326 174.281 120.494 175.122C119.663 175.964 119.195 177.105 119.194 178.295V288.287C119.204 297.618 122.87 306.564 129.388 313.162C135.906 319.76 144.744 323.471 153.961 323.481H348.315C349.491 323.48 350.618 323.006 351.45 322.165C352.281 321.323 352.749 320.182 352.75 318.992V178.295C352.749 177.105 352.281 175.964 351.45 175.122C350.618 174.281 349.491 173.807 348.315 173.806H123.629Z" fill="#CCCCCC"/>
<path d="M303.902 219.994H168.045C167.427 219.995 166.815 219.873 166.243 219.634C165.672 219.395 165.153 219.045 164.716 218.602C164.278 218.16 163.931 217.635 163.694 217.057C163.458 216.479 163.336 215.86 163.336 215.234C163.336 214.608 163.458 213.989 163.694 213.411C163.931 212.833 164.278 212.308 164.716 211.866C165.153 211.424 165.672 211.073 166.243 210.834C166.815 210.595 167.427 210.473 168.045 210.474H303.902C304.52 210.473 305.132 210.595 305.703 210.834C306.275 211.073 306.794 211.424 307.231 211.866C307.668 212.308 308.015 212.833 308.252 213.411C308.489 213.989 308.611 214.608 308.611 215.234C308.611 215.86 308.489 216.479 308.252 217.057C308.015 217.635 307.668 218.16 307.231 218.602C306.794 219.045 306.275 219.395 305.703 219.634C305.132 219.873 304.52 219.995 303.902 219.994Z" fill="#CCCCCC"/>
<path d="M303.902 252.788H168.045C167.427 252.789 166.815 252.667 166.243 252.428C165.672 252.189 165.153 251.838 164.716 251.396C164.278 250.954 163.931 250.429 163.694 249.851C163.458 249.273 163.336 248.654 163.336 248.028C163.336 247.402 163.458 246.783 163.694 246.205C163.931 245.627 164.278 245.102 164.716 244.66C165.153 244.218 165.672 243.867 166.243 243.628C166.815 243.389 167.427 243.267 168.045 243.268H303.902C305.149 243.268 306.345 243.769 307.227 244.662C308.109 245.555 308.605 246.765 308.605 248.028C308.605 249.291 308.109 250.501 307.227 251.394C306.345 252.287 305.149 252.788 303.902 252.788Z" fill="#CCCCCC"/>
<path d="M303.9 286.52H168.043C166.795 286.52 165.599 286.018 164.717 285.126C163.835 284.233 163.34 283.022 163.34 281.759C163.34 280.497 163.835 279.286 164.717 278.393C165.599 277.501 166.795 276.999 168.043 276.999H303.9C304.518 276.998 305.13 277.121 305.701 277.36C306.272 277.598 306.792 277.949 307.229 278.391C307.666 278.833 308.013 279.358 308.25 279.936C308.487 280.514 308.609 281.134 308.609 281.759C308.609 282.385 308.487 283.005 308.25 283.583C308.013 284.161 307.666 284.686 307.229 285.128C306.792 285.57 306.272 285.92 305.701 286.159C305.13 286.398 304.518 286.521 303.9 286.52Z" fill="#CCCCCC"/>
<path d="M349.022 208.523C363.921 208.523 375.998 196.297 375.998 181.217C375.998 166.136 363.921 153.91 349.022 153.91C334.124 153.91 322.047 166.136 322.047 181.217C322.047 196.297 334.124 208.523 349.022 208.523Z" fill="#018F6A" fill-opacity="0.85"/>
<path d="M345.344 195.429C344.878 195.429 344.419 195.319 344.002 195.108C343.586 194.897 343.223 194.591 342.944 194.213L335.584 184.28C335.348 183.961 335.176 183.598 335.078 183.212C334.98 182.825 334.959 182.423 335.015 182.028C335.07 181.633 335.202 181.254 335.403 180.91C335.604 180.567 335.869 180.267 336.185 180.028C336.5 179.789 336.859 179.615 337.24 179.516C337.622 179.417 338.019 179.395 338.409 179.451C338.8 179.508 339.175 179.641 339.514 179.844C339.853 180.048 340.149 180.317 340.386 180.636L345.2 187.134L357.566 168.357C358.008 167.688 358.695 167.224 359.474 167.066C360.254 166.909 361.064 167.071 361.725 167.518C362.387 167.964 362.847 168.659 363.003 169.448C363.159 170.237 363 171.057 362.56 171.727L347.841 194.076C347.575 194.48 347.217 194.814 346.797 195.049C346.377 195.284 345.907 195.414 345.428 195.428C345.4 195.428 345.372 195.429 345.344 195.429Z" fill="white"/>
<path d="M418.906 542.201L407.931 545.916L388.551 504.833L404.749 499.349L418.906 542.201Z" fill="#FFB6B6"/>
<path d="M425.264 552.021L389.876 561.602L389.726 561.149C388.496 557.424 388.771 555.837 390.503 552.323C391.35 550.592 392.528 549.049 393.968 547.782C395.408 546.515 397.082 545.55 398.893 544.942L398.894 544.942L403.718 537.789L417.419 538.671L420.508 537.625L425.264 552.021Z" fill="#2F2E41"/>
<path d="M446.023 552.645H434.451L428.945 507.461L446.026 507.462L446.023 552.645Z" fill="#FFB6B6"/>
<path d="M448.975 561.602L411.66 561.6V561.123C411.66 557.195 413.171 555.903 415.915 553.126C417.26 551.757 418.861 550.671 420.623 549.932C422.386 549.193 424.276 548.815 426.184 548.82H426.185L433.001 543.586L445.718 548.821L448.976 548.821L448.975 561.602Z" fill="#2F2E41"/>
<path d="M357.948 190.62C358.186 191.848 358.687 193.007 359.416 194.017C360.145 195.027 361.084 195.863 362.166 196.466C363.249 197.069 364.449 197.424 365.682 197.507C366.915 197.59 368.15 197.398 369.302 196.945L382.662 211.064L393.119 204.938L373.975 185.268C373.095 183.36 371.554 181.844 369.644 181.01C367.734 180.175 365.588 180.078 363.613 180.738C361.637 181.398 359.969 182.768 358.925 184.589C357.881 186.411 357.533 188.557 357.948 190.62Z" fill="#FFB6B6"/>
<path d="M444.41 261.613L450.432 255.306L415.603 222.653L380.549 190.969L370.84 204.856L407.574 239.565L444.41 261.613Z" fill="#E4E4E4"/>
<path d="M423.01 475.898C423.01 467.971 423.165 462.317 423.289 457.773C423.653 444.477 423.751 440.903 418.725 418.005L417.434 412.124L409.821 435.243C407.389 442.618 406.146 450.341 406.141 458.116L417.879 529.41H393.888L376.316 452.334L376.308 428.758C374.76 427.137 373.895 424.97 373.895 422.714C373.895 420.459 374.76 418.292 376.308 416.67L382.146 381.35L388.055 333.747H452.775C452.775 333.747 464.198 357.712 452.847 381.485L452.845 475.927L446.981 541.228H428.875L423.01 475.898Z" fill="#2F2E41"/>
<path d="M448.817 339.509L388.279 334.402L387.965 334.376L392.796 246.348C393.08 240.813 394.999 235.492 398.303 231.074C401.608 226.655 406.147 223.342 411.332 221.564V215.403C411.334 213.879 411.933 212.417 412.998 211.339C414.064 210.261 415.508 209.654 417.014 209.652H425.859C426.915 209.649 427.951 209.945 428.849 210.507C429.747 211.069 430.472 211.874 430.941 212.831L435.266 221.588L451.621 234.833C459.699 241.375 453.198 306.962 452.848 310.422L456.804 330.444C457.021 331.545 456.995 332.681 456.727 333.771C456.459 334.861 455.955 335.877 455.253 336.747C454.55 337.616 453.667 338.317 452.665 338.8C451.663 339.282 450.567 339.534 449.458 339.536C449.245 339.536 449.032 339.527 448.817 339.509Z" fill="#E4E4E4"/>
<path d="M384.712 362.752C385.669 361.961 386.443 360.967 386.98 359.84C387.516 358.714 387.802 357.481 387.817 356.231C387.833 354.98 387.577 353.741 387.068 352.602C386.559 351.462 385.809 350.449 384.872 349.634L390.878 331.052L380.613 324.604L372.495 350.965C371.247 352.65 370.654 354.74 370.826 356.838C370.999 358.937 371.926 360.898 373.432 362.351C374.938 363.804 376.918 364.647 378.997 364.721C381.076 364.795 383.109 364.094 384.712 362.752Z" fill="#FFB6B6"/>
<path d="M405.822 236.43L397.488 233.617L385.45 287.982L374.363 342.048L391.038 344.532L403.969 287.045L405.822 236.43Z" fill="#E4E4E4"/>
<path d="M414.922 204.026C425.902 204.026 434.804 195.015 434.804 183.9C434.804 172.784 425.902 163.773 414.922 163.773C403.941 163.773 395.039 172.784 395.039 183.9C395.039 195.015 403.941 204.026 414.922 204.026Z" fill="#FFB6B6"/>
<path d="M388.17 174.043C388.353 172.135 388.893 170.281 389.761 168.578C390.69 170.623 393.59 170.978 395.574 169.96C397.558 168.942 398.888 167.008 400.306 165.273C404.048 160.694 409.194 156.98 415.026 156.304C420.858 155.627 427.286 158.607 429.49 164.115C430.479 162.725 432.589 162.571 434.081 163.378C435.523 164.298 436.648 165.648 437.302 167.241C438.77 170.289 439.599 173.612 439.738 177C439.877 180.388 439.323 183.769 438.111 186.931C435.655 193.221 429.59 201.697 423.333 204.071C419.535 205.512 415.698 203.668 411.658 204.071C411.869 199.608 412.724 194.101 412.936 189.638C413.052 187.194 413.069 184.459 411.419 182.67C410.914 182.184 410.308 181.816 409.646 181.593C408.985 181.37 408.282 181.297 407.59 181.378C406.897 181.46 406.23 181.695 405.637 182.067C405.044 182.438 404.538 182.937 404.157 183.528C403.952 182.141 403.489 180.805 402.792 179.592C402.435 178.991 401.918 178.503 401.301 178.183C400.684 177.863 399.991 177.724 399.3 177.781C397.613 178.061 396.571 179.814 395.023 180.548C394.144 180.905 393.178 180.981 392.255 180.767C391.332 180.552 390.495 180.058 389.857 179.349C389.238 178.625 388.769 177.782 388.479 176.87C388.189 175.958 388.084 174.997 388.17 174.043Z" fill="#2F2E41"/>
<path opacity="0.1" d="M417.495 286.802L394.145 334.075H411.658L417.495 286.802Z" fill="black"/>
<path d="M573.998 563.049C573.998 563.174 573.974 563.298 573.927 563.413C573.88 563.529 573.811 563.634 573.724 563.722C573.636 563.811 573.532 563.881 573.418 563.929C573.304 563.976 573.181 564.001 573.058 564H127.171C126.921 564 126.682 563.9 126.506 563.722C126.33 563.543 126.23 563.301 126.23 563.049C126.23 562.796 126.33 562.554 126.506 562.375C126.682 562.197 126.921 562.097 127.171 562.097H573.058C573.181 562.096 573.304 562.121 573.418 562.168C573.532 562.216 573.636 562.286 573.724 562.375C573.811 562.463 573.88 562.568 573.927 562.684C573.974 562.799 573.998 562.923 573.998 563.049Z" fill="#CACACA"/>
</g>
<defs>
<clipPath id="clip0_27_4586">
<rect width="574" height="564" fill="white"/>
</clipPath>
</defs>
</svg>
