<svg xmlns="http://www.w3.org/2000/svg" fill="none" width="60" height="60" viewBox="0 0 60 60"><path d="m24.701 16.536-1.11 6.444a1.626 1.626 0 0 0 .636 1.62 1.638 1.638 0 0 0 1.722.15l6-3 5.688 2.964a1.645 1.645 0 0 0 2.4-1.728l-1.11-6.42L43.595 12a1.639 1.639 0 0 0-.906-2.796l-6.51-.948L33.275 2.4a1.638 1.638 0 0 0-1.476-.9 1.638 1.638 0 0 0-1.47.9l-2.91 5.856-6.51.936A1.638 1.638 0 0 0 19.997 12l4.704 4.536zm3.438-6.564a.9.9 0 0 0 .66-.492l3-6 3 6a.899.899 0 0 0 .678.492l6.648.96-4.8 4.644a.9.9 0 0 0-.264.798l1.134 6.57-5.814-3.03a.9.9 0 0 0-.822 0l-6.12 3.072 1.14-6.6a.9.9 0 0 0-.282-.786l-4.8-4.644 6.642-.984zM57.001 28.2a3.497 3.497 0 0 0-2.4-1.2 3.426 3.426 0 0 0-2.532.876l-8.31 7.464a3.739 3.739 0 0 0-2.088-2.892c-1.542-.648-3.684-.348-5.754-.048a14.06 14.06 0 0 1-3.678.228 7.207 7.207 0 0 1-1.578-.6c-1.572-.702-3.726-1.662-7.734-.78a12.688 12.688 0 0 0-5.526 3.048V32.1a.9.9 0 0 0-.9-.9H8.7a.9.9 0 0 0-.9.9v17.4a.9.9 0 0 0 .9.9h7.8a.9.9 0 0 0 .9-.9v-1.248c1.2.282 6.648 1.548 10.674 1.548 4.2 0 9.336-.96 12.498-2.334 5.826-2.526 15.42-13.428 16.2-14.31A3.558 3.558 0 0 0 57 28.2zM15.6 48.6h-6V33h6v15.6zm39.924-16.746-.084.084c-.102.114-10.014 11.466-15.6 13.884C36.9 47.1 32.053 48 28.075 48c-4.2 0-10.398-1.536-10.458-1.548a.887.887 0 0 0-.216 0v-9.6c.654-.75 2.964-3.186 5.916-3.834 3.432-.75 5.124 0 6.6.666a8.58 8.58 0 0 0 2.004.696 14.69 14.69 0 0 0 4.242-.216c1.746-.24 3.726-.516 4.8-.066a1.986 1.986 0 0 1 .936 1.236 2.293 2.293 0 0 1-.486 2.04c-1.368 1.836-9.69 4.584-13.104 4.314a.902.902 0 1 0-.138 1.8h.6c3.726 0 10.842-2.196 13.446-4.392l.066-.036 10.944-9.84a1.667 1.667 0 0 1 1.861-.242c.206.103.39.246.539.422a1.752 1.752 0 0 1-.102 2.454z" fill="#fff" fill-opacity=".8"/></svg>