<svg xmlns="http://www.w3.org/2000/svg" width="100" height="100" fill="none" xmlns:v="https://vecta.io/nano"><path d="M49.998 0c-5.365 0-9.178 5.247-7.535 10.341L18.13 24.386c-.793.457-1.079 1.479-.6 2.292a4.6 4.6 0 0 1-.007 4.572 4.59 4.59 0 0 1-6.26 1.678 4.59 4.59 0 0 1-1.678-6.261c.814-1.409 2.331-2.288 3.961-2.293.92-.003 1.664-.751 1.661-1.672s-.748-1.662-1.667-1.662A7.95 7.95 0 0 0 6.697 25c-2.667 4.619-.077 10.555 5.176 11.692l.002 28.141c.022.904.764 1.634 1.68 1.625a4.59 4.59 0 0 1 4.425 5.77c-1.046 3.903-6.344 4.66-8.396 1.105-.631-1.092-.784-2.361-.431-3.573.257-.884-.251-1.809-1.135-2.066s-1.809.251-2.066 1.135A7.85 7.85 0 0 0 6.697 75a7.93 7.93 0 0 0 10.814 2.897 7.93 7.93 0 0 0 3.575-9.287l9.12-5.264v1.445a5.01 5.01 0 0 0 5 5h13.125v14.553a7.92 7.92 0 0 0-4.2 2.428l-16.66-9.616c-.797-.46-1.817-.187-2.277.61a1.67 1.67 0 0 0 .61 2.277l16.658 9.614C40.817 94.763 44.646 100 49.998 100c2.115 0 4.103-.823 5.598-2.318.651-.651.651-1.706 0-2.357a1.67 1.67 0 0 0-2.357 0c-.866.866-2.017 1.343-3.241 1.343a4.59 4.59 0 0 1-4.583-4.583 4.59 4.59 0 0 1 4.583-4.583c1.624 0 3.139.871 3.96 2.274a1.67 1.67 0 0 0 2.043.742c.209-.079-1.526.908 24.576-14.157 1.459 1.606 3.566 2.597 5.854 2.597 5.878 0 9.685-6.138 7.13-11.385-.403-.828-1.401-1.172-2.228-.769s-1.172 1.4-.769 2.228c.669 1.374.613 2.983-.15 4.303a4.59 4.59 0 0 1-6.261 1.678c-1.06-.612-1.819-1.601-2.135-2.783-.785-2.931 1.44-5.765 4.425-5.77.915.009 1.657-.721 1.679-1.625.003-.129.002-29.132.002-29.625a1.67 1.67 0 0 0-1.667-1.666c-1.691 0-3.187-.915-3.982-2.292a4.58 4.58 0 0 1 1.677-6.261 4.59 4.59 0 0 1 6.261 1.678c.678 1.175.801 2.581.338 3.857-.314.865.133 1.821.999 2.135a1.67 1.67 0 0 0 2.135-.999c.799-2.204.586-4.632-.586-6.661-2.672-4.628-9.109-5.338-12.723-1.36L56.244 9.597c-.798-.461-1.829-.188-2.286.629-.821 1.403-2.336 2.274-3.96 2.274a4.59 4.59 0 0 1-4.583-4.583c0-4.025 4.81-6.055 7.708-3.353a1.67 1.67 0 0 0 2.356-.083c.628-.673.591-1.728-.083-2.356A7.89 7.89 0 0 0 49.998 0zm-5.866 13.226a7.92 7.92 0 0 0 4.2 2.429v14.553H35.207a5.01 5.01 0 0 0-5 5v24.29l-10.792 6.228a7.96 7.96 0 0 0-4.208-2.423v-26.61c1.593-.342 3.078-1.168 4.211-2.419l4.121 2.378c.794.458 1.814.191 2.277-.61a1.67 1.67 0 0 0-.61-2.277l-4.121-2.378a7.96 7.96 0 0 0 0-4.859l23.049-13.302zm11.733 0l23.045 13.3c-.513 1.596-.514 3.284-.001 4.863l-9.119 5.263v-1.444a5.01 5.01 0 0 0-5-5H51.665V15.652c1.615-.351 3.088-1.201 4.2-2.425zM35.207 33.542H64.79a1.67 1.67 0 0 1 1.667 1.667V50c0 .92.746 1.667 1.667 1.667S69.79 50.92 69.79 50v-9.498l10.792-6.228c1.114 1.225 2.588 2.075 4.208 2.423v26.607a7.96 7.96 0 0 0-4.208 2.423c-12.243-7.066-11.817-6.932-12.459-6.932a1.67 1.67 0 0 0-1.656 1.482c-.015.138-.011-.062-.011 4.515a1.67 1.67 0 0 1-1.667 1.667H35.207a1.67 1.67 0 0 1-1.667-1.666V35.208a1.67 1.67 0 0 1 1.667-1.667zm10.417 7.292c-.92 0-1.667.746-1.667 1.667v5.833h-1.25c-.92 0-1.667.746-1.667 1.667s.746 1.667 1.667 1.667h1.25V57.5c0 .92.746 1.667 1.667 1.667h4.167A9.18 9.18 0 0 0 58.957 50a9.18 9.18 0 0 0-9.167-9.167h-4.167zm1.667 3.333h2.5A5.84 5.84 0 0 1 55.623 50a5.84 5.84 0 0 1-5.833 5.833h-2.5v-4.167h1.25c.92 0 1.667-.746 1.667-1.667s-.746-1.667-1.667-1.667h-1.25v-4.167zm22.5 19.18l9.119 5.263c-.512 1.576-.513 3.264.001 4.864l-23.045 13.3a7.96 7.96 0 0 0-4.2-2.425V69.792H64.79a5.01 5.01 0 0 0 5-5v-1.445z" fill="#fbfbfb"/></svg>