<svg xmlns="http://www.w3.org/2000/svg" width="67" height="67" fill="none" xmlns:v="https://vecta.io/nano"><path d="M9.138 6.281c-2.697 0-4.913 2.295-4.913 5.089v4.618a1.77 1.77 0 0 0 0 .73v28.629l.07.252c1.076 3.599 2.473 7.176 3.683 10.755l1.377 4.113 1.672-3.988c1.463-3.496 3.02-7.578 4.285-10.729l.122-.332v-34.05c0-2.794-2.216-5.089-4.913-5.089H9.138zm10.824.624v53.743h1.307v.071h1.646 15.417v-.071h14.801c12.951-13.416-3.272 3.533 9.679-9.883V6.905h-42.85zM9.138 9.692h1.383c.937 0 1.646.708 1.646 1.679v3.284h-4.65V11.37c0-.971.684-1.679 1.62-1.679zm14.117.597H59.52v35.158H48.215v11.81h-10.03c-.297-1.999-1.061-3.904-2.197-5.467-.566-.779-1.264-1.442-2.018-2.017a6.31 6.31 0 0 0 1.653-4.273c0-1.111-.301-2.151-.801-3.059H56.03c2.184-.008 2.184-3.399 0-3.41H26.714c-1.297.004-2.08 1.488-1.383 2.621-.817 1.062-1.326 2.395-1.326 3.848 0 1.643.629 3.147 1.646 4.26-.763.577-1.461 1.247-2.03 2.03-.135.186-.24.402-.365.597V10.288zm25.261 4.333c-.062-.001-.124.001-.186.007H34.413c-.047-.002-.094-.002-.141 0-2.006.254-1.879 3.31.141 3.384h13.918c2.244.202 2.438-3.328.186-3.39h0zM7.518 18.064h4.65v26.679l-2.543 6.323c-.741-2.097-1.499-4.234-2.107-6.243V18.064zm19.196 3.284c-2.217-.024-2.217 3.433 0 3.41H56.03c2.217.024 2.217-3.433 0-3.41H26.714zm0 7.073c-2.184.008-2.184 3.399 0 3.41H56.03c2.184-.008 2.184-3.399 0-3.41H26.714zm29.502 5.308c-.062-.002-.124.001-.186.007H26.714c-.047-.002-.094-.002-.141 0-2.006.254-1.879 3.31.141 3.384H56.03c2.244.202 2.438-3.328.186-3.39h0zm-26.402 9.037c1.39 0 2.517 1.17 2.517 2.733 0 1.536-1.091 2.705-2.447 2.747-.025 0-.046-.016-.07-.016s-.046.016-.07.016c-1.357-.039-2.472-1.21-2.472-2.747 0-1.564 1.152-2.733 2.543-2.733h0zm21.694 6.064h7.937l-7.937 8.152V48.83zm-24.583 4.227l2.854 2.71 2.943-2.697c.225.231.447.472.653.756.673.927.835 2.215 1.095 3.43h-9.332c.261-1.216.447-2.503 1.121-3.43.211-.29.436-.534.666-.77h0z" fill="#fbfbfb" fill-opacity=".8"/></svg>