<svg xmlns="http://www.w3.org/2000/svg" width="100" height="100" fill="none" xmlns:v="https://vecta.io/nano"><path d="M50 5c-10.244 0-18.75 7.178-18.75 16.25 0 8.736 7.893 15.696 17.624 16.201l-.073.403.764.818.435.078 1.001-.503.144-.796c9.723-.513 17.605-7.471 17.605-16.201C68.75 12.178 60.244 5 50 5zm0 2.5c9.086 0 16.25 6.254 16.25 13.75S59.086 35 50 35s-16.25-6.254-16.25-13.75S40.914 7.5 50 7.5zm0 2.5a1.25 1.25 0 0 0-1.25 1.25A1.25 1.25 0 0 0 50 12.5a1.25 1.25 0 0 0 1.25-1.25A1.25 1.25 0 0 0 50 10zm-6.404 1.35c-.161.02-.322.07-.471.156a1.25 1.25 0 1 0 1.25 2.166 1.25 1.25 0 0 0-.779-2.322zm12.808 0a1.25 1.25 0 0 0-1.238.615c-.345.598-.141 1.364.457 1.709s1.364.138 1.709-.459a1.25 1.25 0 0 0-.459-1.706c-.149-.087-.308-.139-.469-.159zm-17.41 3.66a1.25 1.25 0 0 0-.779 2.322 1.25 1.25 0 0 0 1.707-.456 1.25 1.25 0 0 0-.457-1.707c-.149-.086-.31-.139-.471-.159zm22.009 0a1.24 1.24 0 0 0-.469.159 1.25 1.25 0 0 0-.459 1.707 1.25 1.25 0 0 0 2.166-1.25 1.25 1.25 0 0 0-1.238-.615zM37.5 21.25a1.25 1.25 0 0 0-1.25 1.25 1.25 1.25 0 0 0 1.25 1.25 1.25 1.25 0 0 0 1.25-1.25 1.25 1.25 0 0 0-1.25-1.25zm25 0a1.25 1.25 0 0 0-1.25 1.25 1.25 1.25 0 0 0 1.25 1.25 1.25 1.25 0 0 0 1.25-1.25 1.25 1.25 0 0 0-1.25-1.25zm-34.128 4.412l-1.001.503-.198 1.101.764.82.435.076 1.001-.5.198-1.104-.764-.818-.435-.078zm43.149 0l-1.001.503-.198 1.101.767.82.432.076 1.003-.5.195-1.104-.764-.818-.435-.078zM24.18 28.294l-1.001.503-.198 1.101.764.818.435.078 1.001-.501.198-1.104-.764-.818-.435-.078zm51.533 0l-1.001.503-.198 1.101.767.818.432.078 1.003-.501.195-1.104-.764-.818-.435-.078zm-54.041 4.265l-1.003.503-.195 1.103.764.818.435.076 1.001-.5.198-1.104-.767-.818-.432-.078zm56.55 0l-1.001.503-.198 1.103.764.818.435.076 1.001-.5.198-1.104-.764-.818-.434-.078zM21.25 37.5l-1.001.503-.19 1.062c-4.333 1.096-7.559 5.019-7.559 9.685a10.02 10.02 0 0 0 10 10 10.02 10.02 0 0 0 10-10 10.02 10.02 0 0 0-10-10c-.039 0-.076.004-.115.005l.063-.359-.764-.818-.435-.078zm57.393 0l-1.001.503-.134.747c-.352 0-.692.017-1.028.051-2.013.205-3.852 1.012-5.335 2.236a10.1 10.1 0 0 0-1.934 2.127 9.97 9.97 0 0 0-1.26 2.617 9.9 9.9 0 0 0-.249.957c-.067.325-.117.656-.151.991s-.051.676-.051 1.02c0 5.165 3.947 9.435 8.98 9.949.335.034.676.051 1.02.051a10.02 10.02 0 0 0 10-10c0-4.741-3.33-8.719-7.769-9.739v-.002l.11-.613-.764-.818-.434-.078zM22.5 41.25a7.48 7.48 0 1 1 0 15 7.48 7.48 0 1 1 0-15zm27.5 0l-1.001.503-.198 1.101.764.818.435.078 1.001-.503.198-1.101-.764-.818L50 41.25zm27.5 0a7.48 7.48 0 1 1 0 15 7.48 7.48 0 0 1-7.5-7.5 7.66 7.66 0 0 1 .039-.769c.382-3.794 3.562-6.731 7.461-6.731zm-27.5 5l-1.001.503-.144.806c-5.663.577-10.105 5.38-10.105 11.191C38.75 64.948 43.802 70 50 70s11.25-5.052 11.25-11.25c0-5.818-4.452-10.624-10.124-11.191l.073-.413-.764-.818L50 46.25zM50 50a8.73 8.73 0 1 1 0 17.5A8.73 8.73 0 1 1 50 50zM22.5 61.25c-9.617 0-17.5 7.883-17.5 17.5v5h27.837c-1.015 2.301-1.587 4.836-1.587 7.5v5h37.5v-5c0-2.664-.572-5.199-1.587-7.5H95v-5c0-9.617-7.883-17.5-17.5-17.5-6.406 0-12.03 3.496-15.073 8.674-.277.471-.532.956-.764 1.453-.465.994-.84 2.039-1.113 3.123-.093.371-.158.751-.227 1.13C57.355 73.658 53.807 72.5 50 72.5s-7.355 1.157-10.322 3.13c-1.486-8.144-8.626-14.38-17.178-14.38zm0 2.5c7.807 0 14.223 6.04 14.902 13.677-1.234 1.126-2.317 2.409-3.218 3.823H7.5v-2.5c0-8.253 6.747-15 15-15zm55 0c8.253 0 15 6.747 15 15v2.5H65.815c-.9-1.415-1.984-2.697-3.218-3.823.68-7.636 7.096-13.677 14.902-13.677zM50 75c8.942 0 16.25 7.308 16.25 16.25v2.5h-32.5v-2.5C33.75 82.308 41.058 75 50 75zm-40 1.25c-.689 0-1.25.561-1.25 1.25s.561 1.25 1.25 1.25 1.25-.561 1.25-1.25-.561-1.25-1.25-1.25zm5 0a1.25 1.25 0 1 0 0 2.5 1.25 1.25 0 1 0 0-2.5zm5 0a1.25 1.25 0 1 0 0 2.5 1.25 1.25 0 1 0 0-2.5zm5 0c-.689 0-1.25.561-1.25 1.25s.561 1.25 1.25 1.25 1.25-.561 1.25-1.25-.561-1.25-1.25-1.25zm5 0c-.689 0-1.25.561-1.25 1.25s.561 1.25 1.25 1.25 1.25-.561 1.25-1.25-.561-1.25-1.25-1.25zm5 0c-.689 0-1.25.561-1.25 1.25s.561 1.25 1.25 1.25 1.25-.561 1.25-1.25-.561-1.25-1.25-1.25zm30 0a1.25 1.25 0 1 0 0 2.5 1.25 1.25 0 1 0 0-2.5zm5 0a1.25 1.25 0 1 0 0 2.5 1.25 1.25 0 1 0 0-2.5zm5 0a1.25 1.25 0 1 0 0 2.5 1.25 1.25 0 1 0 0-2.5zm5 0a1.25 1.25 0 1 0 0 2.5 1.25 1.25 0 1 0 0-2.5zm5 0a1.25 1.25 0 1 0 0 2.5 1.25 1.25 0 1 0 0-2.5zm5 0a1.25 1.25 0 1 0 0 2.5 1.25 1.25 0 1 0 0-2.5zm-52.5 12.5c-.689 0-1.25.561-1.25 1.25s.561 1.25 1.25 1.25a1.25 1.25 0 1 0 0-2.5zm5 0a1.25 1.25 0 1 0 0 2.5 1.25 1.25 0 1 0 0-2.5zm5 0a1.25 1.25 0 1 0 0 2.5 1.25 1.25 0 1 0 0-2.5zm5 0a1.25 1.25 0 1 0 0 2.5 1.25 1.25 0 1 0 0-2.5zm5 0a1.25 1.25 0 1 0 0 2.5 1.25 1.25 0 1 0 0-2.5zm5 0a1.25 1.25 0 1 0 0 2.5 1.25 1.25 0 1 0 0-2.5z" fill="#fbfbfb"/></svg>