<svg xmlns="http://www.w3.org/2000/svg" width="60" height="60" fill="none" xmlns:v="https://vecta.io/nano"><path d="M56.473 30.13h-6.735v-9.502a1 1 0 1 0-2 0v1.42c-.342-.168-.707-.413-1.031-.776-1.002-1.122-.872-2.532-.835-2.803a1 1 0 1 0-1.983-.266c-.354 2.635 1.171 5.198 3.848 5.986v1.635c-4.144-.467-7.376-3.992-7.376-8.26 0-4.584 3.73-8.314 8.314-8.314s8.314 3.73 8.314 8.314a8.26 8.26 0 0 1-2.414 5.858 1 1 0 1 0 1.419 1.409 10.25 10.25 0 0 0 2.995-7.267A10.33 10.33 0 0 0 48.675 7.251a10.33 10.33 0 0 0-10.314 10.314 10.33 10.33 0 0 0 9.377 10.27v2.295H26.109v-2.295a10.33 10.33 0 0 0 9.377-10.27A10.33 10.33 0 0 0 25.171 7.251a10.33 10.33 0 0 0-10.314 10.314 10.24 10.24 0 0 0 4.068 8.209 1 1 0 1 0 1.212-1.591c-2.084-1.588-3.28-4-3.28-6.617 0-4.584 3.73-8.314 8.314-8.314s8.314 3.73 8.314 8.314c0 4.267-3.232 7.792-7.376 8.26v-5.196a1 1 0 1 0-2 0v1.409a3.32 3.32 0 0 1-1.003-.764c-.999-1.122-.868-2.533-.832-2.805a1 1 0 1 0-1.983-.265c-.354 2.651 1.18 5.192 3.819 5.98v5.945H4.746c-1.691 0-3.039 1.439-2.914 3.14C3.177 51.606 21.13 63.94 38.674 58.844a1 1 0 1 0-.558-1.921C21.604 61.72 5.057 49.892 3.827 33.124c-.039-.538.382-.993.919-.993h14.65l-1.328 1.479c-1.155 1.286-.986 3.284.369 4.357l6.284 4.978a1 1 0 0 1 .375.872l-.736 8.333a1 1 0 0 0 1.992.176l.736-8.333a2.99 2.99 0 0 0-1.126-2.616l-6.284-4.979a1 1 0 0 1-.123-1.452l2.529-2.816h34.389c.537 0 .958.456.919.994-.635 8.66-5.423 16.451-12.846 20.964l-7.251-4.849c-.322-.215-.491-.602-.432-.984l1.334-8.64a1 1 0 0 1 .208-.473l2.569-3.202a1 1 0 0 0-1.56-1.252l-2.568 3.202c-.329.41-.545.9-.625 1.419l-1.334 8.64a3.01 3.01 0 0 0 1.297 2.952l7.797 5.214a1 1 0 0 0 1.232-.095c8.188-4.812 13.482-13.299 14.176-22.751.124-1.688-1.21-3.14-2.914-3.14zM5.48 9.752a1 1 0 1 0 0-2 2.88 2.88 0 0 1-2.875-2.875A2.88 2.88 0 0 1 5.48 2a2.88 2.88 0 0 1 2.875 2.875 1 1 0 1 0 2 0C10.356 2.187 8.169 0 5.48 0S.604 2.187.604 4.876 2.792 9.752 5.48 9.752zm0 1.875a1 1 0 0 0-1 1v1.375a1 1 0 1 0 2 0v-1.375a1 1 0 0 0-1-1zm4.774-.563l.972.973c.195.195.451.293.707.293.883 0 1.339-1.076.707-1.707l-.972-.972a1 1 0 1 0-1.414 1.414zm2.977-5.188h1.375a1 1 0 1 0 0-2h-1.375a1 1 0 1 0 0 2z" fill="#fbfbfb" fill-opacity=".8"/></svg>