<svg xmlns="http://www.w3.org/2000/svg" fill="none" width="61" height="60" viewBox="0 0 61 60"><path d="M30.5 1.2c-8.096 0-14.64 6.435-14.64 14.4v6h-4.88c-2.006 0-3.66 1.626-3.66 3.6V54c0 1.973 1.654 3.6 3.66 3.6h39.04c2.007 0 3.66-1.627 3.66-3.6V25.2c0-1.974-1.653-3.6-3.66-3.6h-4.88v-6c0-7.965-6.543-14.4-14.64-14.4zm0 2.4c6.791 0 12.2 5.32 12.2 12v6H18.3v-6c0-6.68 5.41-12 12.2-12zM10.98 24h39.04c.677 0 1.22.534 1.22 1.2V54c0 .665-.543 1.2-1.22 1.2H10.98c-.676 0-1.22-.535-1.22-1.2V25.2c0-.666.544-1.2 1.22-1.2zm19.52 6c-5.375 0-9.76 4.312-9.76 9.6 0 5.287 4.385 9.6 9.76 9.6 5.376 0 9.76-4.313 9.76-9.6 0-5.288-4.384-9.6-9.76-9.6zm0 2.4c4.056 0 7.32 3.21 7.32 7.2 0 3.988-3.264 7.2-7.32 7.2-4.055 0-7.32-3.212-7.32-7.2 0-3.99 3.265-7.2 7.32-7.2zm0 2.4c-2.683 0-4.88 2.16-4.88 4.8 0 2.638 2.197 4.8 4.88 4.8s4.88-2.162 4.88-4.8c0-.479-.105-.948-.228-1.426A2.42 2.42 0 0 1 32.94 39.6c-1.344 0-2.44-1.078-2.44-2.4 0-.96.596-1.814 1.45-2.175-.487-.122-.964-.225-1.45-.225z" fill="#fff" fill-opacity=".8"/></svg>