<svg xmlns="http://www.w3.org/2000/svg" width="71" height="70" fill="none" xmlns:v="https://vecta.io/nano"><path d="M35.993 0a5.55 5.55 0 0 0-5.275 7.239L13.685 17.07c-.555.32-.756 1.035-.42 1.604a3.22 3.22 0 0 1-.005 3.201c-.884 1.532-2.851 2.059-4.382 1.174s-2.059-2.851-1.174-4.383c.57-.986 1.632-1.602 2.773-1.605.644-.002 1.165-.526 1.163-1.17s-.524-1.163-1.167-1.163c-1.941 0-3.795 1.049-4.79 2.772a5.55 5.55 0 0 0 3.623 8.184l.001 19.698c.015.633.535 1.144 1.176 1.138 2.087.004 3.648 1.984 3.098 4.039-.732 2.732-4.441 3.262-5.877.774a3.18 3.18 0 0 1-.302-2.501c.18-.619-.176-1.266-.794-1.446s-1.266.176-1.446.794c-.426 1.465-.241 2.999.522 4.319a5.55 5.55 0 0 0 7.57 2.028c2.301-1.329 3.288-4.069 2.503-6.501l6.384-3.685v1.011c0 1.93 1.57 3.5 3.5 3.5h9.188v10.187c-1.153.248-2.175.855-2.94 1.7l-11.662-6.731c-.558-.322-1.272-.131-1.594.427s-.131 1.272.427 1.594l11.66 6.73C29.566 66.334 32.246 70 35.993 70c1.48 0 2.872-.576 3.919-1.623.456-.456.456-1.194 0-1.65s-1.194-.456-1.65 0c-.606.606-1.412.94-2.269.94-1.769 0-3.208-1.439-3.208-3.208s1.439-3.208 3.208-3.208a3.22 3.22 0 0 1 2.772 1.592 1.17 1.17 0 0 0 1.43.519c.146-.056-1.068.636 17.203-9.91a5.54 5.54 0 0 0 4.098 1.818c4.115 0 6.779-4.297 4.991-7.97-.282-.58-.98-.821-1.56-.539s-.82.98-.538 1.56a3.21 3.21 0 0 1-.105 3.012c-.884 1.532-2.851 2.059-4.383 1.174-.742-.428-1.273-1.12-1.495-1.948-.55-2.052 1.008-4.035 3.098-4.039.641.006 1.16-.504 1.175-1.138.002-.09.002-20.392.002-20.737a1.17 1.17 0 0 0-1.167-1.166c-1.184 0-2.231-.64-2.787-1.604-.887-1.536-.362-3.496 1.174-4.383s3.498-.358 4.383 1.174c.475.822.561 1.806.237 2.7-.22.606.093 1.275.699 1.495s1.275-.093 1.495-.699c.559-1.543.41-3.242-.41-4.662-1.87-3.24-6.376-3.736-8.906-.952l-17.033-9.83c-.559-.322-1.28-.132-1.6.44a3.22 3.22 0 0 1-2.772 1.592c-1.769 0-3.208-1.439-3.208-3.208 0-2.817 3.367-4.239 5.396-2.347.471.439 1.21.413 1.649-.058s.414-1.209-.058-1.649C38.743.528 37.401 0 35.993 0zm-4.106 9.258c.765.844 1.786 1.452 2.94 1.7v10.187h-9.188c-1.93 0-3.5 1.57-3.5 3.5v17.003l-7.554 4.36a5.57 5.57 0 0 0-2.946-1.696V25.685c1.115-.239 2.154-.818 2.947-1.693l2.884 1.665c.556.321 1.27.133 1.594-.427s.131-1.272-.427-1.594l-2.884-1.665a5.57 5.57 0 0 0 0-3.401l16.134-9.312zm8.213 0l16.131 9.31c-.359 1.117-.36 2.299 0 3.404l-6.383 3.684v-1.011c0-1.93-1.57-3.5-3.5-3.5H37.16V10.956c1.131-.245 2.162-.841 2.94-1.698zm-14.461 14.22h20.708a1.17 1.17 0 0 1 1.167 1.167V35c0 .644.522 1.167 1.167 1.167s1.167-.522 1.167-1.167v-6.649l7.555-4.36a5.57 5.57 0 0 0 2.945 1.696v18.625a5.57 5.57 0 0 0-2.945 1.696c-8.57-4.946-8.272-4.853-8.721-4.853a1.17 1.17 0 0 0-1.159 1.037c-.011.097-.008-.043-.008 3.161a1.17 1.17 0 0 1-1.167 1.167H25.639a1.17 1.17 0 0 1-1.167-1.166V24.646a1.17 1.17 0 0 1 1.167-1.167zm7.292 5.104c-.644 0-1.167.522-1.167 1.167v4.083h-.875c-.644 0-1.167.522-1.167 1.167s.522 1.167 1.167 1.167h.875v4.083c0 .644.522 1.167 1.167 1.167h2.917c3.538 0 6.417-2.878 6.417-6.417s-2.879-6.417-6.417-6.417h-2.917zm1.167 2.333h1.75A4.09 4.09 0 0 1 39.931 35a4.09 4.09 0 0 1-4.083 4.083h-1.75v-2.917h.875c.644 0 1.167-.522 1.167-1.167s-.522-1.167-1.167-1.167h-.875v-2.917zm15.75 13.426l6.383 3.684c-.358 1.103-.359 2.285 0 3.405L40.1 60.741c-.778-.857-1.809-1.452-2.94-1.697v-10.19h9.188c1.93 0 3.5-1.57 3.5-3.5v-1.011z" fill="#fff"/></svg>