<svg xmlns="http://www.w3.org/2000/svg" width="71" height="70" fill="none" xmlns:v="https://vecta.io/nano"><path d="M35.994 4.375c-2.248 0-4.212.922-5.463 2.33s-1.829 3.2-1.829 4.962c0 .506.159 1 .256 1.501l-8.445 4.825c-1.248-1.149-2.94-1.948-4.936-1.948-2.248 0-4.212.919-5.463 2.327s-1.826 3.2-1.826 4.962.574 3.554 1.826 4.962 3.215 2.327 5.463 2.327c1.996 0 3.688-.799 4.936-1.948l8.445 4.825c-.097.501-.256.995-.256 1.501 0 1.762.577 3.554 1.829 4.962.811.912 1.984 1.494 3.276 1.88v9.65c-1.069.319-1.996.808-2.749 1.501l-8.445-4.828c.097-.5.253-.994.253-1.498 0-1.762-.574-3.554-1.826-4.962s-3.215-2.327-5.463-2.327-4.212.919-5.463 2.327-1.826 3.2-1.826 4.962.574 3.554 1.826 4.962 3.215 2.327 5.463 2.327c1.996 0 3.688-.799 4.936-1.948l8.445 4.825c-.097.501-.256.995-.256 1.501 0 1.762.577 3.554 1.829 4.962s3.215 2.33 5.463 2.33 4.211-.922 5.463-2.33 1.829-3.2 1.829-4.962c0-.506-.159-1-.256-1.501l8.445-4.825c1.248 1.149 2.94 1.948 4.936 1.948 2.248 0 4.212-.919 5.463-2.327s1.826-3.2 1.826-4.962-.574-3.554-1.826-4.962-3.215-2.327-5.463-2.327-4.212.919-5.463 2.327-1.826 3.2-1.826 4.962c0 .505.157.998.254 1.498l-8.445 4.828c-.753-.693-1.68-1.182-2.749-1.501v-9.65c1.292-.386 2.465-.968 3.275-1.88 1.252-1.408 1.829-3.2 1.829-4.962 0-.506-.159-1-.256-1.501l8.445-4.825c1.248 1.149 2.94 1.948 4.936 1.948 2.248 0 4.212-.919 5.463-2.327s1.826-3.2 1.826-4.962-.574-3.554-1.826-4.962-3.215-2.327-5.463-2.327-4.212.919-5.463 2.327-1.826 3.2-1.826 4.962c0 .505.157.998.254 1.498l-8.445 4.828c-1.248-1.149-2.939-1.951-4.936-1.951s-3.688.802-4.936 1.951l-8.445-4.828c.097-.5.253-.993.253-1.498s-.156-.998-.253-1.498l8.445-4.828c1.248 1.149 2.939 1.951 4.936 1.951 2.248 0 4.211-.922 5.463-2.33s1.829-3.2 1.829-4.962-.577-3.554-1.829-4.962-3.215-2.33-5.463-2.33zm0 4.375c1.154 0 1.743.354 2.193.86s.723 1.267.723 2.057-.274 1.55-.723 2.056-1.039.86-2.193.86-1.744-.354-2.193-.86-.724-1.267-.724-2.056.274-1.551.724-2.057 1.039-.86 2.193-.86zM15.577 20.42c1.154 0 1.744.355 2.193.86s.721 1.264.721 2.054-.271 1.548-.721 2.054-1.039.86-2.193.86-1.744-.354-2.193-.86-.721-1.264-.721-2.054.271-1.548.721-2.054 1.039-.86 2.193-.86zm40.833 0c1.154 0 1.744.355 2.193.86s.721 1.264.721 2.054-.271 1.548-.721 2.054-1.039.86-2.193.86-1.744-.354-2.193-.86-.721-1.264-.721-2.054.271-1.548.721-2.054 1.039-.86 2.193-.86zM35.994 32.083c1.154 0 1.743.354 2.193.86s.723 1.267.723 2.057-.274 1.55-.723 2.057-1.039.86-2.193.86-1.744-.354-2.193-.86-.724-1.267-.724-2.056.274-1.55.724-2.056 1.039-.86 2.193-.86zm-20.417 11.67c1.154 0 1.744.355 2.193.86s.721 1.264.721 2.054-.271 1.548-.721 2.054-1.039.86-2.193.86-1.744-.355-2.193-.86-.721-1.264-.721-2.054.271-1.548.721-2.054 1.039-.86 2.193-.86zm40.833 0c1.154 0 1.744.355 2.193.86s.721 1.264.721 2.054-.271 1.548-.721 2.054-1.039.86-2.193.86-1.744-.355-2.193-.86-.721-1.264-.721-2.054.271-1.548.721-2.054 1.039-.86 2.193-.86zM35.994 55.417c1.154 0 1.743.354 2.193.86s.723 1.267.723 2.056-.274 1.55-.723 2.057-1.039.86-2.193.86-1.744-.354-2.193-.86-.724-1.267-.724-2.056.274-1.55.724-2.056 1.039-.86 2.193-.86z" fill="#fff"/></svg>