<svg xmlns="http://www.w3.org/2000/svg" fill="none" width="60" height="60" viewBox="0 0 60 60"><path d="M14.375 7.5C10.6 7.5 7.5 10.6 7.5 14.375v31.25c0 3.775 3.1 6.875 6.875 6.875h31.25c3.775 0 6.875-3.1 6.875-6.875v-31.25c0-3.775-3.1-6.875-6.875-6.875h-31.25zm0 3.75h31.25a3.097 3.097 0 0 1 3.125 3.125v31.25a3.097 3.097 0 0 1-3.125 3.125h-31.25a3.097 3.097 0 0 1-3.125-3.125v-31.25a3.097 3.097 0 0 1 3.125-3.125zm16.186 7.507a16.662 16.662 0 0 0-1.835.03 15.305 15.305 0 0 0-4.61 1.044c-2.882 1.156-5.32 3.254-6.682 6.126-1.361 2.872-1.603 6.456-.413 10.386l.02.056c-.466 1.282-.791 2.663-.791 4.226a1.876 1.876 0 1 0 3.75 0c0-3.938 2.295-6.472 4.82-8.225 2.523-1.753 5.058-2.468 5.058-2.468a1.874 1.874 0 0 0-.276-3.669 1.874 1.874 0 0 0-.73.055s-3.09.847-6.191 3c-.879.611-1.754 1.382-2.588 2.247-.014-1.515.2-2.882.73-4.002.927-1.955 2.568-3.4 4.687-4.25 3.601-1.444 8.49-.889 12.788 2.131-1.424 1.046-2.534 2.423-3.381 3.775-1.399 2.233-2.49 4.47-3.281 5.254-1.401 1.388-3.698 1.777-6.011 1.777a1.876 1.876 0 1 0 0 3.75c2.686 0 6.123-.36 8.65-2.864 1.712-1.695 2.617-4.004 3.82-5.925 1.204-1.921 2.422-3.25 4.12-3.562a1.875 1.875 0 0 0 .98-3.176c-3.744-3.71-8.309-5.546-12.634-5.716z" fill="#fff" fill-opacity=".8"/></svg>