<svg xmlns="http://www.w3.org/2000/svg" width="71" height="70" fill="none" xmlns:v="https://vecta.io/nano"><path d="M35.994 2.8c-1.75 0-3.241.707-4.197 1.783-.93 1.047-1.371 2.381-1.395 3.705l-15.411 8.895c-.957-1.076-2.447-1.783-4.197-1.783s-3.241.707-4.197 1.783S5.194 19.639 5.194 21s.446 2.741 1.403 3.817c.688.774 1.659 1.344 2.797 1.61v17.145c-1.138.266-2.109.836-2.797 1.611C5.64 46.259 5.194 47.639 5.194 49s.446 2.741 1.403 3.817S9.044 54.6 10.794 54.6s3.241-.707 4.197-1.783l15.411 8.895c.024 1.325.464 2.659 1.395 3.705.957 1.076 2.447 1.783 4.197 1.783s3.241-.707 4.197-1.783c.93-1.047 1.371-2.381 1.395-3.705l15.411-8.895c.957 1.076 2.447 1.783 4.197 1.783s3.241-.707 4.197-1.783 1.403-2.456 1.403-3.817-.446-2.741-1.403-3.817c-.688-.774-1.659-1.344-2.797-1.611V26.428c1.139-.266 2.109-.836 2.797-1.61.956-1.076 1.403-2.456 1.403-3.817s-.446-2.741-1.403-3.817-2.447-1.783-4.197-1.783-3.241.707-4.197 1.783L41.586 8.288c-.024-1.324-.464-2.658-1.395-3.705-.957-1.076-2.447-1.783-4.197-1.783zm0 2.8c1.05 0 1.659.343 2.103.842s.697 1.219.697 1.958-.254 1.459-.697 1.958-1.053.842-2.103.842-1.659-.343-2.103-.842-.697-1.219-.697-1.958.254-1.459.697-1.958 1.053-.842 2.103-.842zm-4.925 5.534c.2.382.431.75.727 1.083.957 1.076 2.447 1.783 4.197 1.783s3.241-.707 4.197-1.783c.296-.333.527-.701.727-1.083l14.834 8.564c-.094.43-.159.865-.159 1.302 0 1.361.446 2.741 1.403 3.817.688.774 1.659 1.344 2.797 1.61v17.145c-1.139.266-2.109.836-2.797 1.611-.956 1.076-1.403 2.456-1.403 3.817 0 .437.065.872.159 1.302l-14.834 8.564c-.2-.382-.431-.75-.727-1.083C39.235 56.707 37.744 56 35.994 56s-3.241.707-4.197 1.783c-.296.333-.527.701-.727 1.083l-14.834-8.564c.094-.43.159-.865.159-1.302 0-1.361-.446-2.741-1.403-3.817-.688-.774-1.659-1.344-2.797-1.611V26.428c1.138-.266 2.109-.836 2.797-1.61.957-1.076 1.403-2.456 1.403-3.817 0-.437-.065-.872-.159-1.302l14.834-8.564zM10.794 18.2c1.05 0 1.659.343 2.103.842s.697 1.219.697 1.958-.254 1.459-.697 1.958c-.422.475-1.008.801-1.969.831-.052-.006-.104-.008-.156-.008l-.12.008c-.956-.032-1.539-.358-1.961-.831-.443-.499-.697-1.219-.697-1.958s.254-1.459.697-1.958 1.053-.842 2.103-.842zm50.4 0c1.05 0 1.659.343 2.103.842s.697 1.219.697 1.958-.254 1.459-.697 1.958c-.422.475-1.008.801-1.969.831-.052-.006-.104-.008-.156-.008l-.12.008c-.956-.032-1.539-.358-1.961-.831-.444-.499-.697-1.219-.697-1.958s.254-1.459.697-1.958 1.053-.842 2.103-.842zm-24.361 2.66c-3.177 0-5.615 1.132-6.871 3.12-1.203 1.902-1.207 4.313-.53 6.759-.162.38-.437.618-.437 1.181a1.4 1.4 0 0 0 .008.153c.086.771.264 1.397.637 1.92.195.273.432.333.675.489.205.704.395 1.452.744 1.917.327.436.508.586.736.815v1.441c-.099.202-.259.397-.749.67-.548.305-1.358.62-2.234 1.053s-1.837 1.004-2.617 1.939-1.314 2.226-1.397 3.809a1.4 1.4 0 0 0 .382 1.037c.131.138.288.248.463.323a1.4 1.4 0 0 0 .552.114h19.6a1.4 1.4 0 0 0 1.016-.438 1.4 1.4 0 0 0 .381-1.039c-.084-1.554-.626-2.826-1.408-3.741s-1.738-1.471-2.606-1.9l-2.212-1.064c-.491-.286-.662-.5-.771-.744v-1.471c.261-.255.522-.433.804-.826.362-.503.559-1.263.736-2.007.153-.139.428-.143.552-.312.361-.493.578-1.139.675-1.917.121-.665-.03-1.274-.323-1.802.391-1.588.509-3.29-.112-4.853-.599-1.507-2.135-2.549-4.06-2.918l-.331-.828a1.4 1.4 0 0 0-1.302-.881zm-.886 2.953l.148.366a1.4 1.4 0 0 0 1.299.88c1.664 0 2.164.534 2.532 1.46s.33 2.413-.085 3.716a1.4 1.4 0 0 0 .375 1.441l-.014.088c-.043.383-.119.499-.15.552a1.4 1.4 0 0 0-.837 1.282c0 .233-.185.72-.489 1.143s-.797.83-.708.771a1.4 1.4 0 0 0-.623 1.165v2.382a1.4 1.4 0 0 0 .079.462c.393 1.123 1.264 1.839 2.084 2.316s1.655.796 2.379 1.154 1.316.736 1.72 1.209c.117.136.12.438.213.599H28.103c.102-.19.111-.534.241-.689.406-.487.992-.868 1.709-1.222l2.354-1.116c.813-.452 1.694-1.125 2.1-2.228a1.4 1.4 0 0 0 .087-.484v-2.382a1.4 1.4 0 0 0-.41-.99c-.223-.222-.556-.527-.886-.968s-.525-.934-.525-1.121a1.4 1.4 0 0 0-.87-1.293c0-.004-.057-.142-.107-.484.043-.108.129-.293.008-.172a1.4 1.4 0 0 0 .35-1.397c-.624-2.06-.493-3.72.175-4.777.568-.899 1.753-1.478 3.618-1.662zm-25.29 22.397c.093.009.186.009.279 0 .956.032 1.539.357 1.961.831.443.499.697 1.219.697 1.958s-.254 1.459-.697 1.958-1.053.842-2.103.842-1.659-.343-2.103-.842-.697-1.219-.697-1.958.254-1.459.697-1.958c.422-.475 1.007-.8 1.966-.831zm50.4 0c.093.009.186.009.279 0 .956.032 1.539.357 1.96.831.444.499.697 1.219.697 1.958s-.254 1.459-.697 1.958-1.053.842-2.103.842-1.659-.343-2.103-.842-.697-1.219-.697-1.958.254-1.459.697-1.958c.422-.475 1.007-.8 1.966-.831zM35.994 58.8c1.05 0 1.659.343 2.103.842s.697 1.219.697 1.958-.254 1.459-.697 1.958-1.053.842-2.103.842-1.659-.343-2.103-.842-.697-1.219-.697-1.958.254-1.459.697-1.958 1.053-.842 2.103-.842z" fill="#fff"/></svg>