<svg xmlns="http://www.w3.org/2000/svg" fill="none" width="60" height="60" viewBox="0 0 60 60"><path d="M10 8c-2.21 0-4 1.79-4 4v28c0 2.21 1.79 4 4 4h40c2.21 0 4-1.79 4-4V12c0-2.21-1.79-4-4-4H10zm0 4h40v24H10V12zm29.96 3.98a2 2 0 0 0-1.374.606L28 27.172l-4.586-4.586a2 2 0 1 0-2.828 2.828l6 6a2 2 0 0 0 2.828 0l12-12a2 2 0 0 0-1.453-3.434zM30 38a2 2 0 1 1-.001 4.001A2 2 0 0 1 30 38zM20 48a2.002 2.002 0 0 0-1.873 2.772A2 2 0 0 0 20 52h20a2.002 2.002 0 0 0 1.873-2.772A2 2 0 0 0 40 48H20z" fill="#fff" fill-opacity=".8"/></svg>