<svg xmlns="http://www.w3.org/2000/svg" fill="none" width="90" height="90" viewBox="0 0 90 90"><path d="M4.219 2.813c-.777 0-1.407.628-1.407 1.406v42.187c0 .778.63 1.407 1.407 1.407h19.687V45H5.625V5.625H33.75v29.531h2.813V4.22c0-.778-.63-1.407-1.407-1.407H4.22zm77.344 0v2.812h2.812V2.812h-2.813zm2.812 2.812v2.813h2.813V5.624h-2.813zm0 2.813h-2.813v2.812h2.813V8.437zm-2.813 0V5.624H78.75v2.813h2.813zm-71.718 0c-.776 0-1.406.628-1.406 1.406V29.53c0 .778.63 1.407 1.406 1.407H29.53c.777 0 1.407-.63 1.407-1.407V9.844c0-.778-.63-1.406-1.407-1.406H9.844zm1.406 2.812h16.875v16.875h-2.813v-2.813c0-1.843-.902-3.466-2.276-4.493a4.18 4.18 0 0 0 .87-2.538 4.224 4.224 0 0 0-4.218-4.218 4.224 4.224 0 0 0-4.22 4.218c0 .957.333 1.83.871 2.538-1.373 1.027-2.276 2.65-2.276 4.494v2.812H11.25V11.25zm8.438 5.625c.774 0 1.406.63 1.406 1.406a1.408 1.408 0 0 1-2.813 0c0-.776.632-1.406 1.406-1.406zm0 5.625a2.815 2.815 0 0 1 2.812 2.813v2.812h-5.625v-2.813a2.815 2.815 0 0 1 2.813-2.812zM8.438 33.75v2.813H22.5V33.75H8.437zm16.874 0v2.813h5.625V33.75h-5.625zm12.654 2.815c-.535 0-1.07.039-1.596.113l.393 2.785a8.657 8.657 0 0 1 2.412-.003l.392-2.785c-.53-.074-1.066-.11-1.601-.11zm-4.672 1.014a11.244 11.244 0 0 0-2.692 1.73l1.84 2.126a8.47 8.47 0 0 1 2.022-1.302l-1.17-2.554zm9.35 0-1.17 2.554a8.47 8.47 0 0 1 2.02 1.302l1.844-2.126a11.26 11.26 0 0 0-2.695-1.73zM11.25 39.375v2.813h9.844v-2.813H11.25zm17.254 2.354a11.198 11.198 0 0 0-1.332 2.914l2.697.791a8.394 8.394 0 0 1 1-2.18l-2.365-1.525zm18.93.003-2.365 1.521a8.433 8.433 0 0 1 1 2.184l2.697-.794a11.18 11.18 0 0 0-1.332-2.911zm-6.345.983-4.642 5.806-1.703-1.703-1.988 1.989 2.812 2.812a1.4 1.4 0 0 0 1.071.41 1.41 1.41 0 0 0 1.022-.525l5.625-7.031-2.197-1.758zM29.53 47.81l-2.812.005c0 1.077.153 2.143.453 3.167l2.7-.791a8.469 8.469 0 0 1-.34-2.381zm16.875.002c0 .81-.113 1.611-.338 2.376l2.698.794c.3-1.024.453-2.09.453-3.17h-2.813zm23.907 0c-6.204 0-11.25 5.047-11.25 11.25 0 2.996 1.182 5.714 3.098 7.732-4.372 2.42-7.533 6.735-8.446 11.703l2.766.508c.832-4.535 3.93-8.396 8.127-10.263a11.16 11.16 0 0 0 3.37 1.323l-3.09 5.15a1.404 1.404 0 0 0-.052 1.352l4.219 8.437a1.407 1.407 0 0 0 2.515 0l4.22-8.438c.214-.43.194-.942-.053-1.354l-3.09-5.147a11.2 11.2 0 0 0 3.384-1.329 14.02 14.02 0 0 1 4.227 2.881 13.972 13.972 0 0 1 4.117 9.945v5.626h2.813v-5.626c0-4.51-1.756-8.748-4.942-11.933a16.956 16.956 0 0 0-3.79-2.827 11.199 11.199 0 0 0 3.106-7.74c0-6.203-5.046-11.25-11.25-11.25zm0 2.813c4.653 0 8.437 3.784 8.437 8.438 0 4.653-3.784 8.437-8.438 8.437-4.653 0-8.437-3.784-8.437-8.438 0-4.653 3.784-8.437 8.438-8.437zm-39.444 1.747-2.365 1.521c.58.902 1.284 1.718 2.096 2.423l1.843-2.129a8.46 8.46 0 0 1-1.574-1.815zm14.2.003a8.49 8.49 0 0 1-1.574 1.812l1.84 2.129a11.228 11.228 0 0 0 2.099-2.42l-2.365-1.521zm-10.605 3.117-1.17 2.554c.976.447 2.01.75 3.076.904l.396-2.785a8.347 8.347 0 0 1-2.302-.673zm7.01 0a8.38 8.38 0 0 1-2.302.673l.395 2.785a11.11 11.11 0 0 0 3.076-.904l-1.17-2.554zm-24.599 2.203c-.455 0-.91.196-1.17.587L10.08 66.72l2.34 1.56 3.049-4.573v6.605c0 8.53 6.94 15.47 15.469 15.47h26.718v-2.813H30.938c-6.978 0-12.657-5.677-12.657-12.656v-6.606l3.049 4.573 2.34-1.56-5.625-8.438c-.26-.391-.715-.587-1.17-.587zm53.438 13.944 2.614 4.362-2.615 5.23L67.698 76l2.615-4.362z" fill="#FBFBFB"/></svg>