<svg xmlns="http://www.w3.org/2000/svg" fill="none" width="90" height="90" viewBox="0 0 90 90"><path d="M10.772 5.4a1.8 1.8 0 0 0-1.276.56l-3.6 3.789A1.8 1.8 0 0 0 5.4 10.99V68.4c-.008 3.594.846 6.898 2.661 9.478.104.159.2.325.31.478C10.25 80.99 13.034 82.8 16.2 82.8c.262 0 .517-.032.773-.056.337.025.672.055 1.02.056H77.4c.09 0 .181-.007.27-.021 3.053-.101 5.733-1.87 7.56-4.426 1.88-2.633 2.97-6.128 2.97-9.953 0-3.825-1.09-7.32-2.97-9.953-1.818-2.544-4.483-4.31-7.517-4.426h-.007a1.799 1.799 0 0 0-.306-.02h-7.2V7.2a1.8 1.8 0 0 0-3.073-1.274l-5.916 5.928-5.938-5.928a1.8 1.8 0 0 0-2.546 0L46.8 11.855l-5.927-5.928a1.8 1.8 0 0 0-2.546 0L32.4 11.855l-5.927-5.928a1.8 1.8 0 0 0-2.546 0L18 11.855l-5.927-5.928a1.799 1.799 0 0 0-1.301-.527zM25.2 9.745l5.927 5.928a1.8 1.8 0 0 0 2.546 0L39.6 9.745l5.927 5.928a1.8 1.8 0 0 0 2.546 0L54 9.745l5.941 5.928a1.8 1.8 0 0 0 2.546 0l4.113-4.12V54H16.2c-2.832 0-5.353 1.456-7.2 3.646V11.707l1.832-1.93 5.895 5.896a1.8 1.8 0 0 0 2.546 0L25.2 9.745zm-9 11.855v3.6h25.2v-3.6H16.2zm30.6 0v3.6h12.6v-3.6H46.8zm-30.6 7.2v3.6h12.6v-3.6H16.2zm18 0v3.6h25.2v-3.6H34.2zm-18 7.2v3.6h9V36h-9zm14.4 0v3.6h12.6V36H30.6zm18 0v3.6h10.8V36H48.6zm-32.4 7.2v3.6H36v-3.6H16.2zm25.2 0v3.6h18v-3.6h-18zM16.2 57.6c1.804 0 3.524 1.008 4.9 2.936 1.378 1.927 2.3 4.732 2.3 7.864 0 3.132-.922 5.937-2.3 7.865-1.193 1.67-2.646 2.648-4.186 2.879-2.525-.237-4.296-1.277-5.597-2.897-.054-.067-.1-.145-.151-.215C9.87 74.115 9 71.422 9 68.404V68.4c0-3.132.922-5.937 2.3-7.864 1.376-1.928 3.096-2.936 4.9-2.936zm7.165 0H77.4c1.802 0 3.52 1.01 4.897 2.94 1.378 1.928 2.303 4.731 2.303 7.86 0 3.129-.925 5.932-2.303 7.861-1.377 1.929-3.095 2.94-4.897 2.94H23.365c.231-.273.455-.551.664-.845C25.91 75.724 27 72.226 27 68.4c0-3.827-1.09-7.324-2.97-9.956-.21-.294-.434-.572-.665-.844zM16.2 63c-.955 0-1.87.569-2.546 1.582-.675 1.012-1.054 2.386-1.054 3.818s.38 2.806 1.054 3.819C14.33 73.23 15.245 73.8 16.2 73.8c.955 0 1.87-.569 2.546-1.581.675-1.013 1.054-2.387 1.054-3.819s-.38-2.806-1.055-3.818C18.07 63.569 17.155 63 16.2 63z" fill="#FBFBFB"/></svg>