<svg xmlns="http://www.w3.org/2000/svg" fill="none" width="60" height="60" viewBox="0 0 60 60"><g clip-path="url(#a)"><path d="M41.813 9.525c-1.374 0-2.597.591-4.126 1.275v-.037c-2.559 1.097-8.062 3.637-8.062 3.637H4.8A4.797 4.797 0 0 0 0 19.2V42c0 2.654 2.147 4.8 4.8 4.8h34.8c1.275 0 2.31-.525 3.112-1.125 2.227.811 4.257 1.125 6.863 1.125 1.842 0 3.848-.487 5.625-1.012 1.777-.525 3.323-1.097 3.975-1.313A1.2 1.2 0 0 0 60 43.313V26.175a1.2 1.2 0 0 0-.337-.825S51.178 16.37 47.4 12.713c-1.922-1.922-3.36-2.949-4.987-3.15a5.219 5.219 0 0 0-.6-.038zm-.338 2.4c.225-.032.445-.023.637 0 .774.099 1.805.68 3.6 2.475v.038C49.27 17.883 57.16 26.194 57.6 26.663V42.45c-.825.291-1.753.661-3.075 1.05-1.673.497-3.553.9-4.95.9-2.79 0-4.519-.276-6.9-1.275-2.377-.993-5.419-2.793-10.5-5.662-.01-.005-.028.005-.037 0-1.557-.895-3.061-1.79-3.863-2.625-.403-.422-.605-.792-.675-1.125-.07-.333-.066-.68.225-1.238.492-.98.984-1.214 2.137-1.275 1.154-.06 2.888.253 5.025.788 3.999.97 9.75 2.175 9.75 2.175.436.155.924.042 1.252-.281a1.201 1.201 0 0 0-.727-2.044l-.862-.188V19.2c0-2.653-2.147-4.8-4.8-4.8h-4.163c1.149-.515 2.391-1.082 3.188-1.425h.038c1.303-.58 2.142-.951 2.812-1.05zM4.8 16.8h34.8c1.43 0 2.4.97 2.4 2.4v11.925c-1.96-.43-4.383-.97-6.413-1.462-.014-.005-.023.005-.037 0-2.16-.54-4.012-.952-5.7-.863-1.678.09-3.29.924-4.125 2.55-.01.02-.028.02-.038.038-.478.933-.642 1.922-.45 2.812.193.905.708 1.66 1.313 2.288 1.205 1.26 2.869 2.18 4.425 3.075 3.848 2.175 6.553 3.731 8.775 4.837-.052.005-.098 0-.15 0H4.8c-1.43 0-2.4-.97-2.4-2.4V19.2c0-1.43.97-2.4 2.4-2.4zM15 20.4c-1.345 0-2.677.47-3.675 1.425-.998.957-1.612 2.382-1.612 4.088 0 1.983.848 3.881 2.137 5.25.122.3.052.342 0 .45-.023.052-.037.108-.075.15-.037.042-.052.051-.15.15-1.05.436-2.081.923-2.85 1.612-.89.802-1.575 1.833-1.575 3.075v.6c0 .807.366 1.575.9 2.1.534.525 1.162.863 1.875 1.088 1.43.445 3.173.525 5.025.525 1.852 0 3.595-.08 5.025-.525.713-.225 1.34-.563 1.875-1.088.534-.525.9-1.293.9-2.1v-.6c0-1.242-.703-2.273-1.613-3.075-.825-.726-1.903-1.28-3.075-1.725-.028-.075-.056-.276.038-.6 1.14-1.364 2.138-3.21 2.138-5.287 0-3.319-2.55-5.513-5.288-5.513zm0 2.4c1.584 0 2.887.91 2.887 3.113 0 1.373-.806 2.995-1.724 4.012a1.155 1.155 0 0 0-.263.375c-.328.905-.277 1.758-.037 2.363.117.305.276.553.45.75.084.098.178.173.3.262.065.047.3.094.412.15l-.037.075c1.087.38 2.034.905 2.625 1.425.59.52.787.957.787 1.275v.6c0 .216-.01.272-.15.413-.14.14-.488.3-.975.45-.97.305-2.527.45-4.275.45-1.748 0-3.305-.145-4.275-.45-.487-.15-.834-.31-.975-.45-.14-.14-.15-.197-.15-.413v-.6c0-.318.206-.792.787-1.312.582-.52 1.486-1.008 2.513-1.388.16-.07.3-.173.412-.3-.042.043.122-.098.263-.262.14-.164.31-.385.45-.675.277-.581.398-1.5.037-2.4a1.263 1.263 0 0 0-.3-.45c-.88-.792-1.65-2.475-1.65-3.9 0-1.172.361-1.88.863-2.363.502-.482 1.21-.75 2.025-.75z" fill="#fff" fill-opacity=".8"/></g><defs><clipPath id="a"><path d="M0 0h60v60H0z" fill="#fff"/></clipPath></defs></svg>