<svg xmlns="http://www.w3.org/2000/svg" fill="none" width="52" height="52" viewBox="0 0 52 52"><path d="M26 2.08c-9.177 0-16.64 7.463-16.64 16.64 0 6.598 4.018 14.21 7.962 20.28 3.945 6.07 7.898 10.563 7.898 10.563.199.223.483.353.78.353.296 0 .58-.13.78-.353 0 0 3.953-4.502 7.897-10.563 3.945-6.061 7.963-13.65 7.963-20.28 0-9.177-7.463-16.64-16.64-16.64zm0 2.08c8.052 0 14.56 6.508 14.56 14.56 0 5.76-3.782 13.252-7.638 19.175C29.69 42.86 26.96 46.13 26 47.255c-.955-1.125-3.685-4.412-6.923-9.392C15.222 31.93 11.44 24.44 11.44 18.72c0-8.052 6.508-14.56 14.56-14.56zm-9.36 9.36v2.08h10.4v8.32h-7.28v-4.16h-3.12v2.08h1.04V26h2.08c0 1.15.93 2.08 2.08 2.08s2.08-.93 2.08-2.08h5.2c0 1.15.93 2.08 2.08 2.08s2.08-.93 2.08-2.08h2.08v-5.525l-.163-.26-2.08-3.12-.325-.455H29.12v-3.12H16.64zm0 3.12v2.08h5.2v-2.08h-5.2zm12.48 2.08h2.535l1.625 2.405v2.795h-4.16v-5.2z" fill="#fff" fill-opacity=".8"/></svg>