<svg xmlns="http://www.w3.org/2000/svg" fill="none" width="60" height="60" viewBox="0 0 60 60"><path d="M53.75 10H6.25a5 5 0 0 0-5 5v30a5 5 0 0 0 5 5h47.5a5 5 0 0 0 5-5V15a5 5 0 0 0-5-5zM1.25 20h57.5m-5 10h-20m7.5 7.5h-7.5" stroke="#fff" stroke-linecap="round" stroke-linejoin="round" stroke-opacity=".8"/><path d="M23.75 33.125a.624.624 0 0 0-.625-.625H18.75v-4.375a.624.624 0 0 0-.625-.625h-3.75a.624.624 0 0 0-.625.625V32.5H9.375a.625.625 0 0 0-.625.625v3.75a.625.625 0 0 0 .625.625h4.375v4.375a.624.624 0 0 0 .625.625h3.75a.624.624 0 0 0 .625-.625V37.5h4.375a.624.624 0 0 0 .625-.625v-3.75z" stroke="#fff" stroke-linecap="round" stroke-linejoin="round" stroke-opacity=".8"/></svg>