<svg xmlns="http://www.w3.org/2000/svg" width="100" height="100" fill="none" xmlns:v="https://vecta.io/nano"><path d="M85.938 0c-7.752 0-14.062 6.311-14.062 14.063 0 3.234 1.092 6.219 2.936 8.594l-6.671 6.11c-4.247-4.248-10.107-6.891-16.577-6.891-7.361 0-13.94 3.406-18.237 8.752l-6.213-4.865a1.54 1.54 0 0 0-2.191.269c-.531.672-.403 1.655.268 2.185l6.329 4.956c-2.161 3.545-3.394 7.684-3.394 12.14a23.18 23.18 0 0 0 1.935 9.314l-12.653 5.56c-1.141-1.453-2.923-2.374-4.907-2.374a6.25 6.25 0 1 0 0 12.5 6.25 6.25 0 0 0 6.25-6.25c0-.342-.031-.671-.092-1.001l12.842-5.64C35.358 63.781 42.156 68.17 50 68.689v9.436c0 .861.702 1.563 1.563 1.563s1.563-.702 1.563-1.562v-9.436c5.737-.378 10.889-2.814 14.764-6.58l6.299 5.67A12.41 12.41 0 0 0 71.875 75a12.52 12.52 0 0 0 12.5 12.5 12.52 12.52 0 0 0 12.5-12.5 12.52 12.52 0 0 0-12.5-12.5 12.4 12.4 0 0 0-8.081 2.985l-6.323-5.701A23.2 23.2 0 0 0 75 45.313a23.25 23.25 0 0 0-4.797-14.185l6.799-6.219c2.434 2.012 5.542 3.217 8.936 3.217 7.752 0 14.063-6.311 14.063-14.062S93.689 0 85.938 0zm0 3.125c6.03 0 10.938 4.908 10.938 10.938S91.967 25 85.938 25c-2.484 0-4.768-.829-6.61-2.234-.842-.622-1.575-1.392-2.203-2.234C75.78 18.72 75 16.486 75 14.063c0-6.03 4.908-10.937 10.938-10.937zm-70.312 6.25c-5.17 0-9.375 4.205-9.375 9.375s4.205 9.375 9.375 9.375S25 23.92 25 18.75s-4.205-9.375-9.375-9.375zm0 3.125c3.448 0 6.25 2.802 6.25 6.25S19.073 25 15.625 25s-6.25-2.802-6.25-6.25 2.802-6.25 6.25-6.25zm33.908.287c-.861.053-1.515.795-1.462 1.657l.192 3.119c.047.766.641 1.37 1.376 1.456a1.5 1.5 0 0 0 .278.006c.861-.053 1.518-.795 1.465-1.657l-.192-3.119c-.053-.861-.788-1.521-1.657-1.462zm8.493.546c-.842-.169-1.668.379-1.837 1.224l-.62 3.064a1.56 1.56 0 0 0 1.224 1.84c.042.009.084.017.128.021a1.56 1.56 0 0 0 1.712-1.242l.616-3.064c.17-.845-.378-1.673-1.224-1.843zm-16.235.983c-.202-.015-.409.008-.613.076-.819.275-1.261 1.16-.986 1.977l.995 2.963c.198.592.717.987 1.3 1.056a1.57 1.57 0 0 0 .68-.07c.819-.275 1.256-1.163.983-1.981l-.995-2.96c-.206-.614-.757-1.016-1.364-1.062zm23.685 1.639a1.56 1.56 0 0 0-1.495.864l-1.392 2.799a1.56 1.56 0 0 0 .702 2.093 1.57 1.57 0 0 0 .516.156c.636.075 1.279-.251 1.581-.858l1.392-2.795c.384-.773.07-1.712-.702-2.097a1.56 1.56 0 0 0-.601-.162zm-31.372 1.956a1.57 1.57 0 0 0-.577.235 1.56 1.56 0 0 0-.433 2.164l1.73 2.603c.264.398.681.633 1.12.687a1.55 1.55 0 0 0 1.047-.25c.719-.478.911-1.448.433-2.167l-1.73-2.6a1.56 1.56 0 0 0-1.59-.671zM51.563 25c5.561 0 10.607 2.251 14.282 5.878.75.733 1.434 1.526 2.045 2.374a20.22 20.22 0 0 1 3.986 12.06c0 4.639-1.582 8.936-4.218 12.378-.148.194-.314.377-.47.568V56.25c0-5.244-3.322-9.859-8.06-11.673 1.133-1.55 1.81-3.452 1.81-5.514 0-5.17-4.205-9.375-9.375-9.375s-9.375 4.205-9.375 9.375c0 2.063.677 3.965 1.81 5.514-4.737 1.814-8.06 6.429-8.06 11.673v1.999c-.555-.672-1.079-1.368-1.544-2.109-.567-.873-1.069-1.815-1.489-2.768-1.062-2.483-1.654-5.203-1.654-8.06 0-3.705 1.001-7.19 2.753-10.187a17.87 17.87 0 0 1 1.776-2.582C39.501 27.955 45.191 25 51.563 25zm0 7.813a6.26 6.26 0 0 1 6.25 6.25 6.26 6.26 0 0 1-6.25 6.25 6.26 6.26 0 0 1-6.25-6.25 6.26 6.26 0 0 1 6.25-6.25zm-4.861 14.252c1.42.866 3.08 1.373 4.861 1.373s3.441-.508 4.861-1.373c4.377.825 7.639 4.687 7.639 9.186v5.054c-3.062 2.405-6.836 3.952-10.937 4.26-.513.044-1.031.061-1.562.061s-1.05-.019-1.562-.061c-4.111-.312-7.878-1.853-10.937-4.251V56.25c0-4.498 3.262-8.361 7.639-9.186zM12.5 60.938c.689 0 1.331.22 1.843.61a3.09 3.09 0 0 1 1.282 2.515c0 .122 0 .231-.018.342a3.14 3.14 0 0 1-3.107 2.783 3.13 3.13 0 0 1-3.125-3.125 3.13 3.13 0 0 1 3.125-3.125zm71.875 4.688c5.17 0 9.375 4.205 9.375 9.375s-4.205 9.375-9.375 9.375S75 80.17 75 75a9.28 9.28 0 0 1 1.532-5.127 8.86 8.86 0 0 1 2.106-2.277c1.581-1.239 3.583-1.971 5.737-1.971zM51.563 82.813a7.82 7.82 0 0 0-7.812 7.813 7.82 7.82 0 0 0 7.813 7.813 7.82 7.82 0 0 0 7.813-7.812 7.82 7.82 0 0 0-7.812-7.812zm0 3.125a4.7 4.7 0 0 1 4.688 4.688 4.7 4.7 0 0 1-4.687 4.688 4.7 4.7 0 0 1-4.687-4.687 4.7 4.7 0 0 1 4.688-4.687z" fill="#fbfbfb"/></svg>