<svg xmlns="http://www.w3.org/2000/svg" fill="none" width="70" height="70" viewBox="0 0 70 70"><path d="M43.75 37.188h-17.5a4.388 4.388 0 0 1-4.375-4.376v-8.75a4.388 4.388 0 0 1 4.375-4.375h17.5a4.388 4.388 0 0 1 4.375 4.375v8.75a4.388 4.388 0 0 1-4.375 4.376zm0-17.5h-17.5v-8.75c0-4.813 3.938-8.75 8.75-8.75 4.813 0 8.75 3.937 8.75 8.75v8.75zM35 26.25v4.375m0 17.5v6.563m-6.344-1.97L35 54.689m-3.938 5.25L35 54.688m3.938 5.25L35 54.688m6.344-1.97L35 54.689m21.875-6.563v6.563m-6.344-1.97 6.344 1.97m-3.938 5.25 3.938-5.25m3.938 5.25-3.938-5.25m6.344-1.97-6.344 1.97m-43.75-6.563v6.563m-6.344-1.97 6.344 1.97m-3.938 5.25 3.938-5.25m3.938 5.25-3.938-5.25m6.344-1.97-6.344 1.97" stroke="#fff" stroke-linecap="round" stroke-linejoin="round" stroke-miterlimit="10" stroke-opacity=".8" stroke-width="2"/></svg>