<svg xmlns="http://www.w3.org/2000/svg" fill="none" width="60" height="60" viewBox="0 0 60 60"><path d="M29.955 2.466a1.2 1.2 0 0 0-.693.25l-27.6 21.537a1.2 1.2 0 1 0 1.476 1.894L4.8 24.851V56.4A1.2 1.2 0 0 0 6 57.6h48a1.2 1.2 0 0 0 1.2-1.2V24.85l1.662 1.296a1.2 1.2 0 1 0 1.476-1.894l-27.6-21.536a1.2 1.2 0 0 0-.783-.251zM30 5.186l22.8 17.792V55.2H7.2V22.978L30 5.187zM19.024 20.4a2.243 2.243 0 0 0-2.224 2.224v5.152A2.243 2.243 0 0 0 19.024 30H20.4v2.4h-1.298a2.32 2.32 0 0 0-2.302 2.3v4.999A2.322 2.322 0 0 0 19.102 42H28.8v2.646c-.588.197-1.121.484-1.498.907-.33.373-.56.8-.708 1.247H20.4a1.2 1.2 0 1 0 0 2.4h6.194c.147.448.377.874.708 1.247.62.697 1.598 1.153 2.698 1.153 1.1 0 2.078-.456 2.698-1.153.33-.373.56-.8.707-1.247H39.6a1.201 1.201 0 0 0 .464-2.313 1.2 1.2 0 0 0-.464-.087h-6.195a3.512 3.512 0 0 0-.707-1.247c-.377-.423-.91-.71-1.498-.907V42h9.698a2.32 2.32 0 0 0 2.302-2.3v-4.998a2.32 2.32 0 0 0-2.3-2.302h-1.3V30h1.376a2.243 2.243 0 0 0 2.224-2.224v-5.152a2.243 2.243 0 0 0-2.224-2.224H19.024zm.176 2.4h21.6v4.8H19.2v-4.8zm3.6 1.2a1.199 1.199 0 0 0-.86 2.055 1.2 1.2 0 0 0 .86.345h3.6a1.201 1.201 0 0 0 .464-2.313A1.2 1.2 0 0 0 26.4 24h-3.6zm0 6h14.4v2.4H22.8V30zm-3.6 4.8h21.6v4.8H19.2v-4.8zm3.6 1.2a1.199 1.199 0 0 0-.86 2.055 1.2 1.2 0 0 0 .86.345h3.6a1.201 1.201 0 0 0 .464-2.313A1.2 1.2 0 0 0 26.4 36h-3.6zM30 46.8c.5 0 .722.145.902.347.166.187.27.474.286.778-.004.05-.005.1-.002.15-.017.304-.118.592-.284.778-.18.203-.402.347-.902.347s-.722-.144-.902-.347c-.166-.186-.27-.474-.286-.778.003-.05.004-.1.002-.15.017-.304.118-.591.284-.778.18-.203.402-.347.902-.347z" fill="#fff" fill-opacity=".8"/></svg>